<mxfile host="Electron" agent="Mozilla/5.0 (Windows NT 10.0; Win64; x64) AppleWebKit/537.36 (KHTML, like Gecko) draw.io/26.1.1 Chrome/132.0.6834.210 Electron/34.3.3 Safari/537.36" version="26.1.1">
  <diagram name="Page-1" id="KNZzRuWbTHy-sSfBoyFF">
    <mxGraphModel dx="1685" dy="556" grid="1" gridSize="10" guides="1" tooltips="1" connect="1" arrows="1" fold="1" page="1" pageScale="1" pageWidth="827" pageHeight="1169" math="0" shadow="0">
      <root>
        <mxCell id="0" />
        <mxCell id="1" parent="0" />
        <mxCell id="kOmin4emKqyUBwTHQekN-19" value="" style="rounded=0;whiteSpace=wrap;html=1;" parent="1" vertex="1">
          <mxGeometry x="10" y="158" width="690" height="712" as="geometry" />
        </mxCell>
        <mxCell id="kOmin4emKqyUBwTHQekN-18" value="" style="rounded=0;whiteSpace=wrap;html=1;" parent="1" vertex="1">
          <mxGeometry x="18.91" y="243" width="670" height="620" as="geometry" />
        </mxCell>
        <mxCell id="kOmin4emKqyUBwTHQekN-17" value="" style="rounded=0;whiteSpace=wrap;html=1;" parent="1" vertex="1">
          <mxGeometry x="230" y="280" width="145.91" height="190" as="geometry" />
        </mxCell>
        <mxCell id="kOmin4emKqyUBwTHQekN-1" value="ollama" style="shape=image;verticalLabelPosition=bottom;labelBackgroundColor=default;verticalAlign=top;aspect=fixed;imageAspect=0;image=data:image/png,iVBORw0KGgoAAAANSUhEUgAAAE8AAABXCAYAAABFsRhwAAAAAXNSR0IArs4c6QAAAARnQU1BAACxjwv8YQUAAAAJcEhZcwAADsMAAA7DAcdvqGQAABJhSURBVHhe7Zx7TBRX+8ef2V2WZZf7fRWyXAQLgiCFiiXeQ0sMxDYNXqJBTUmsSrz9Ya2mJqKVUE1dY5rKH1VrvGJbY2xjGkQSUy8BLQhGBVRusuACcoeFnZ3n/ePH7o9zzu4yC/jGbd5PcpLdZ77zzDnPzJw5txkOERHeAX19fVBSUgK1tbWgVCohJSUFPv74Y+A4jpa+UxAR7t27BxUVFTA0NASzZ8+G9PR08PT0pKWOg9OMyWTC6upqjIqKQgAg0qpVq7Cjo4Pe5Z3R0dGBq1atYvIRFRWF1dXVaDKZ6F0cYtqDd+PGDfT392cyDADIcRwuX74cGxoa6N2mnYaGBly+fDlyHMfkAwDQ398fb9y4Qe/mENMavP7+foyIiGAySgcwKysLh4aG6N2njaGhIczKyrIZOHOKiIjA/v5+enfRTFvwjEYjbtq0icmgteTm5oYXL16kXUwbFy9eRDc3N+a41tKmTZvQaDTSLkQxbcErLy9HiUTCZG7NmjWYnJzM2FNTU2kX00ZqaipzvOTkZFyzZg1jl0gkWF5eTrsQxbQEz2Qy4Y4dO5iMpaamoiAIeO/ePVQoFEymq6uraVdTprq6mjmJCoUC7927h4IgWA3sjh07JvXwmJbgvX37FpcsWUJkSKlU4vXr1xERked53Lx5M5PpxYsX066mzOLFi5njbN68GXmeR0TE69evo1KpJLYvWbIE3759S7uakGkJXl1dHXp7exMZio+Px5aWFoumvb2dqcD9/Pywu7ub8DUVuru70c/PjzgGx3HY3t5u0bS0tGB8fDyh8fb2xrq6OsKXGCR0u28yPH36FHp6eghbfHw8hISEWP4HBQVBRkYGoRkYGICSkhLCNhVKSkpgYGCAsGVkZEBQUJDlf0hICMTHxxOanp4eePr0KWETw7QEr7KykvjPcRwkJiYSNgCAhQsXEv+NRiM0NDQQtqnQ0NAARqORsNHHBABITExkejp0GcQwLcGrqKigTbB8+XLaBKGhoSCTySz/ERH6+vrA3EM0Go3Q2dkJd+/ehX379sGiRYsgMDAQZDIZKBQKCAkJgU8++QQOHz4MlZWV8PbtWzCZTFZ9AQDIZDIIDQ21/DdjLW/WyjAh9H3sKIIgYEhICFGHuLq6osFgoKX44MEDDAwMJLTZ2dk4PDyMpaWlmJeXh7GxsSiTyQiNtaRQKDA5ORm//vprrKioQIPBgNnZ2YQmMDAQHzx4QGcDDQYDurq6EtqQkBAUBIGW2mXKwRsdHWUeBDNmzKBliIio0+kwOjqa0EZERODixYvRzc2N8SMmcRyHKpUK165di7Nnzya2RUVFYWtrK50NREScMWMG42d0dJSW2WXKwevu7mYKFBMTQ8sQx7SxsbGM/l2l2NhYm0/zmJgYRm9La4sp13nmOmc8SqWSNgEAgIuLC0ilUtpsF6VSCaGhoRASEkLUl2KQSqXg4uJCmwFs5NFaWewx5eBZg36SmZFKpTa3mVEqlRAdHQ3ffPMNlJeXQ29vLzQ1NUFzczMMDQ1BWVkZbNmyBTQaDcjlcnp3Ao7jbJ6sifIhCvpSdJTOzk7m8k9ISKBliGMVdUJCAqMHAJTJZJiRkYHFxcXY1dVF78qg0+nw559/xtTUVJt1ZUJCgtUHFyJazUdnZycts8uUgzcwMMBkIjw8nJYhjnXjrNV5HMfh0aNHbRbUHr29vbhlyxbGJ4zVeba6XeHh4Yx+YGCAltmFwykOwyMieHp6Ei17Ly8vqKqqgubmZujq6oK2tjZoa2uDly9fwrVr18BgMFi0YWFhoNVqYeXKlRbbZDh58iQcOnQIOjo6LDaFQgGff/45REZGglqtBrVaDf7+/hAeHg5xcXHQ29tr0bq7u0NfX59jtzMdzckwb9485kqKjo5Gf39/ZjRlfFIoFHjlypVJjWjQ8DyPhYWFdtuICoUC/f39MSYmhrnV582bR7uckGkJXm5uLpPRiZJEIsHNmzfTrqYEz/O4bNky5lhiUm5uLu1uQqb8tBUEAdzc3GjzhMyZMwdOnjxJm6eEVCqF8+fPg6+vL71pQpRKJQiCQJvtQ0fTEUwmEx45coS5BSZKUqkUz507R7ubNvbv388cc6LEcRweOXLEoSpk0g8Mk8kEWq0W8vPzoa+vj94M7u7ukJSUBHFxcRAdHQ1BQUEwMjIC7e3t4OnpCdnZ2eDv70/vNi28fv0afv31V+B5HoKCgkAikUBbWxvU1tZCdXU1VFdXEw8tM56ennDgwAHYuXOnzfYhAR1NMZhMJszPz2dGZGGsLsvIyMC///4bOzo6HDqT7xqj0YhtbW34559/Mg85c1IqlZifny8q3w4HTxAELC4utho4b29vLCwsnFR77b/NwMAA7tq1y+osm1KpxOLi4glHWRwOXmdnJ86ZM4c5oEajwb/++kvUGXtfGB4exl9++YWZQgAAnDNnzoQ9DoeCJwgCbtu2jTmQh4eHZbLHGfnpp59QLpcz5dq2bZvdq8+h4D18+JBphHIch99+++2kJ47fB/r7+3Ht2rVM8GQyGT558oSWWxAdPJ7nMS8vjzlAamrqO1068d+iq6uLGSAFADx69CgttSC6kazX6+HBgweETalUwoEDBybVSH7f8PX1hb179zJjhrdv34b+/n7CZkZ08HQ6HdTW1hK22NhYq7Nkzkp6ejoxXQoA8Pz5c3jz5g1hMyM6eA8fPmTOwEcffQRqtZqwOTMRERHMnG5zczPodDrCZsah4I2H4zhYsGABYXN25HI5JCUlEcNSJpMJqqqqCJ0Z0cGjb1kAgOTkZNo07Yw91CzpXRMXF0eboK6ujjYBAIDovm1sbCw8e/bM8l8qlcLg4CC4uroSuvHwPA+PHz+GJ0+egFQqhZSUFJg1a5bNfuPo6CjU19fDP//8A7dv34aqqipoaGiwVBceHh4QHh4OiYmJsGzZMkhKSoKoqCibcxkmkwlevHgBFRUVYDKZIC4uDhISEpiHwngePXoEKSkpxInKzs6G4uJiQgfwf2dWFPR8q0qloiUEPM+jVqtFtVptGXWJiYnBhw8f0lJERKypqcF169ZhWFgYSqVSpslAJ6lUimFhYbhu3Tqsqamh3SGOtUvNU4wcx6FarUatVmtZMWWN2tpaZpQoMzOTliE60s6jJ5QlEondhvGrV6+szlckJiYSuuHhYSwqKrLawpdIJKhQKFClUqFKpUKFQsGsvQMAlMvlWFRUhMPDw4TvxMRERhsbG4uvXr0idOOpqqpigvfFF1/QMkRHgpeWlkY45DgO6+vraZmF4uJiqwX18/OzaAYHB3Hr1q3o4uJC+A0NDcX169djYWEhXrp0CW/evIk3b97ES5cuYWFhIa5fvx5DQ0OJQrq4uODWrVtxcHDQ4p9ebgZjJ6S4uNiiofn999+Z4H311Ve0DNGR4G3cuJFwyHEcXrp0iZZZOH36NJNxAMDo6GjEsWGtnJwcorsnlUpx//79qNPp7I7MGAwG1Ol0uH//fuIWl8lkmJOTYxmcoKsaczp9+jTt0kJ+fj4TvGPHjtEyREeC9+OPPzKZyMvLszmKcvfuXebMe3h44NWrV9FkMmFRURGxbe7cuXjnzh3azYTcuXMH586dS/gqKipCk8mEV69eRQ8PD2Kbn58f3r17l3aDOFaFrFy5ktDLZDK8desWLUV0JHjl5eXo7u5OOE5KSsLXr1/TUsSxq+PUqVPo4+ODHMehTCbDgoICHBoawsbGRqI+VKvV+Pz5c7sjGLYQBAGfP3+OarXa4i82NhYbGxtxaGgICwoKUCaTIcdx6OPjg6dOnbJ5VT99+hQ1Gg1RRo1GY3PVqOjg6XQ6ZlW7XC7H3377jZYSGAwGrKysxDdv3lhsV65csfhwd3e3WncKgoA1NTV45swZbGlpwbq6Ojxz5gw2NTXRUkRErK+vJ07ulStXLNvevHmDlZWVNoNm5vvvv2du2RUrVmBfXx8tRXQkeEajEXfv3k04BgD84IMPbF591hAEAbOyshDG6s2cnBwcGRmhZTg6OopxcXEIABgcHGypAjZu3Gi1qhgZGcGcnBxL4bOyshy6ksvLy62+uXTy5EmbfkQHD8cua9o5AOCHH35o84qgGR0dtVTyEonEZmXM8zx+9tlnzLH27t1rszDHjh2zPOGlUqno9XaNjY1WR8e9vLywp6eHlltwKHiCIOCBAweYJohEIsHvvvuOlltl/NoWFxcXu1OQL168sFylMPa+xPjbn+bcuXNEs0fs2pNDhw4xZXJzc8OrV6/SUgLRfVsYGwzYuXMnzJ07l7ALggCNjY2EzRYSyf8fEhFhcHCQ2D6eyMhI+PTTTy3/9+3bB4GBgYRmPIODg0S3avyx7NHc3MxMeKekpMCKFSsIG4047+Po6uqC+vp6wiaXy0WPsCgUCtBoNABjfc/W1la7Hf7S0lLLb3uLrhERWltbLQsUNRoNKBQKWmaVBQsWMP3jR48e2RyKskBfivYQBAFXr15NXN4AgPPnz0e9Xk/LbVJQUGDZNzo62u6+T548wS+//BLz8vKwt7eX3mxBr9cTjeKCggJaYhO9Xo/z589nyrV69Wqb9Ss6WufV19czj3IAsNmItEVFRQV6eXlZ9k9MTLTbWTeZTFafsGZ4nif6sV5eXlhRUUHL7HLr1i2mXBN1QR0KnlarZQ6wcOFCWjYhIyMjuH37dsLP0qVLsayszO5gA43RaMSysjJcunQp4Wv79u1Wmz8TsXDhQqZ8Wq2WllkQHbzh4WHmPQepVIoXLlygpaLQ6/XEYAPHcRgQEIDp6el49uxZbG5uRkEQrKbm5mY8e/YspqenY0BAAHE3pKWl2a0G7HHhwgVmOMz8nog1RAfPWg9DrVbj48ePaaloent7MTMzk8mwOZhubm4YHByMPj4+6OPjg8HBwTbf15BKpZiZmWm3XpyIx48fE908GHtPV6fT0VJER4L37NkzxnFqauqkz7KZ9vZ2PH78OEZGRjIBEZsiIyPx+PHjxNuNk0Gv1zPv46rVanz27BktRXQkeOXl5cxqgezsbLtPI0fo7+/HEydOoEajQY7jRCWNRoMnTpyY0ncCxiMIAlM1yWQym2+Ci57D+OOPPyArK4uw7dq1C3744QfCNlV4nocXL17Ay5cvoaenB3ieJ7bLZDLw9vaGyMhImDVrlt35iMmwe/duOH78OGG7ceMGZGZmEjYAEN/OO3/+PHFGOI7Dw4cP0zKn5/Dhw0ydev78eVqG6Ej3jJ7wBoB/xTILGmtlslZ2cKR7Zq2rMzo6SpucHmtlslZ2cCR49LeXEJF5Nf7fQE9PD9PXpstuRnTwgoODmcq5paWFGY1wZgRBgJaWFsImk8kgODiYsJkRHTwvLy/w8fEhbE1NTf+qq6+npweampoIm4+PD3h5eRE2M6KD5+3tDTNnziRsDQ0N0NraSticmdbWVuaDETNnzgRvb2/CZkZ08Pz8/CAiIoKw6fV6uH//PmFzZu7fvw96vZ6wRUREgJ+fH2EzIzp4CoUCFi1aRNh4ngetVst8jsMZMRqNoNVqmUb5okWLbD5tRTeSceybdNbevzh48KDd8bj3HZ7n8eDBg0y5lEql3W/9ORQ8QRBwz549zEF8fX2xpKSEljsNJSUl6Ovry5Rrz549dvvuDgUPx15isTYCsnLlSlrqNNBLLGBspGail1hE13lmfHx8IDc3l1mgOJlvMb0v0HmXSqWQm5vLNM1oHA6eyWSCmpoa5jMaYWFhxH9ngs67rTIy0JfiRFRVVTELflQqFV6+fJmWOg2XL19GlUpFlMnd3R2rqqpoKYFDwRMEATds2MDUD6mpqcSiQmdjcHCQGUEGANywYcP0PTC6u7uZVyxdXFywrKyMljodZWVlxFINGFtyYe8TSQ4Fr7S0lDk7iYmJdudUnQWTyWR1DXNpaSktteDQA6O6upo2QUZGhug1Ie8zEomE+bIk2CizGdGlRkRmjYpUKoW0tDTC5sykpaUxTbD6+npmfM+M6ODxPE98LQcAQKVSQUBAAGFzZgICAkClUhG2jo4Opr9rRnTwjEYj80UIhUJh9w0gZ8PV1ZUZBDAYDDYHPkQHz2QyMU7kcjkzuuzMyGQyZqmZ0Wi02VgWHTyO45iPVAmCYLM+cEYQkZlWsFZuM6KDJ5PJmFvUYDDAyMgIYXNmRkZGmKrJ1dXV5t0lOnhyuZyZRerr6yM+o+bs9Pb2Ml8n8vT0ZG5lM6KDJ5FIICYmhrDxPA/Xrl0jbM7MtWvXmCdrTEyMzXasdasNrLXpxr+D6+xYK4u1MpsRvdDnf7A4dOX9D5L/AEju2vQU5prUAAAAAElFTkSuQmCC;" parent="1" vertex="1">
          <mxGeometry x="437" y="331.5" width="79" height="87" as="geometry" />
        </mxCell>
        <mxCell id="kOmin4emKqyUBwTHQekN-2" value="" style="shape=image;verticalLabelPosition=bottom;labelBackgroundColor=default;verticalAlign=top;aspect=fixed;imageAspect=0;image=data:image/png,iVBORw0KGgoAAAANSUhEUgAAAHQAAAAYCAYAAAArrNkGAAAAAXNSR0IArs4c6QAAAARnQU1BAACxjwv8YQUAAAAJcEhZcwAADsMAAA7DAcdvqGQAAAnVSURBVGhD7Zl/cJP1HcdfodAHigQ6m8mOZ+skG0gOnJ0ysuMkWo/MYnPQa8aPq1DskK1MJNPYHhYzrxBca+aCnUY5LlqxiFt7pQtmWAZavUpqcWGdlutpONk9O3DpUQlSeFpK90fSkudp0h+6+ZPXXe/yfD6f77dPnvfz/Xw+3280s2bN6ifGmzf2DHz8n3JrW6radJX/E+PUhqt8tfnMgo6fOZfUeQsZNyVd7focELFscuLcYFI7vrGMSVBh/mKmlVWT8cwR0rf+GWG+mSmFW5jmeJH0ir8wcVGeesgwWLFVurDlq+1JyLfhqrRhVRiLKd5gxXpPEUUK+xdAwvuLI7sYZ6WT0lVZSnumBdsf9+Lff4hDh/3466pxrjYoY8bAqAQdl34d0xwvMrVkJ6k3LUKTNoULB2sQjHcywbAAgBSdyIQbblEPHYYszEstFD+wM/lDGMRE1a+LsSw1o3wcHmoaggRfa6RRYf8CuNmc4P5iZDvxu21YDBB4KRhnd1Bf66J4gZZwKEjwaIhwmgHrlr34t3+6rDOioJqJaaRvfZnUeQvpOdbEmd+YCRfO4+Ib++g/H1HE9ssXFdfDslZEB5BhomCLqPYqEDfbMM0A0CGujvdI1JSsZGVJDVK8+ctEtoP6Civiv2rZmFtG06BDpPR+KwYCVFiXULjJjr1kI4U581l/IIw+34FroWKmUTGioONnzqU39E/kt1/l49+t45L0PvRHG+OLzT4uvtkAQM/fX6P3g38weeWDqhmSMFVAQCJ4TMaw1DlMyrTiyDUgtwSioqWo/V9ish3UVxSg/0gtJoCVrEwB6S0P3pMKB01PBJEQMdyptI+GYQUVbrkDYf5ieloPcvbxX0HfJYW/t+Mdzu16hHDBHD5+rIhJ2T9ncl4xKboZiriEXKdF6IsQfLIRSWvEut2ojgBA3FKAKT1E47MSMlp0s5R+R10bbXUOpRFgbgGuumZa2zro6Ij+tbU2s/OXMX9mAY4X/DS3ttHWHotpa8O/PT5pGiiorKe5NW6OgB/XaGpcthO/O5mYAAKCoLYNQ6aF0hcODfk+e7daFGFJBRV+8jOmlu4iLXcd2k07mHSnItcN0t99jv6eaKq9fOYjGJdC6vzF6rAhGCcLcD5CuNlO7TsyelNRglpqxZFjIHK0lrLmEGFlhgdASBMQ0lRPJtuJf48Dy/fOEni+HHuJHXtJOd7XXqf93VjM7WYsC3T8561aPJvt0ZinvPj+NlDjTDj2VeNYKnK2xUN5iR37Ng9NnTosI9Q4MdeF321Fd6ImiZgATYQkEOcVoJ5JXK1HRKL9wKCF0h1Oim6CoOL7fIB0yqcYm1TQ1B/dqrgWsm5TXCei570jAIyf8QO1awiGdC30gQx4djUhJail4uYCjBkSTc96B206MXlyjiJSer8FfXe0Nm18ogZfgw9fQw3ukjLczfGxYdo3leNp8EVjnnXjORybZbMN6xwIPJ7Hkvvc1DT48O12szE3j4oWOWmNE9bt5OXtFnTH3BQuK08iJkAA958CdE43U3W4Gkd+dNWLuS52LjfQedCDffBeCzDOEpAOFLJe8X0KsT8dP+cwgl76sF1x3Xti4NVOjiZlfPTD5T61KzFdEjUAhytoPC5jyHHErVITpYsN8E5t7IuFkUdzkLXQhnmOQOhw2ZDaNHqM2G43IJxswrNL3W5JeB+ppb1b5Kd3K9Md6LE8ZCKjO4Cn0oPyCQ5F2lXIikd9hDOMFGyvpyPQSn2lGeFgOSvuq42LlJFlmJieuCzFk1TQCwf38MmeSnrePUJ3/dOcf/kP6pAhpN58BwCXTh5Xu4ag12njriQqdgfozDBi3RAzbSjGNEOiaZcnZvARjoBWq4sbl4BF0XQVekUtxFgwoRehM9REQO0COFlB+2nI+L76AYfwbfMRSjFSuucQVatG6N5XVVG9xczEY17s+YVU7A8idYGYY6PqUQtXRrtpPNpJxiIHzXUuihYknzepoADd9R4uvOJFM/VaUr79XbV7CKnzFtLfcxG55VW1KzHxC7munFePC2RZnBgx4rRkIRxvoiKWAgcR4l+EBEwRAJmIIrWOFS1CCpztUtaneELhCGSIQ7pzebedJVY7NSe0mB+tZ+9D6go5QBHOB8zojntZsaYC37sBvNvWk7dwCfb9YfSrHDjXXon23rsC+/MBzs6INkdtTfUJm7NhBQWYMPvHTMpewbQt1Wgmpil8k8x3k/FcEF11G2m5v+B87ZN079/F5XNdirihiAgpEDkTirNJlDcGkWfeRtFDRdw2s5Om3eXK/eVoMnkf0Q4yU+0YO8L45CtBr9NCVzjxgcZJH+XLCnG39JC1ripxA7XahEEbIXjQrdpDS/hKvAQ6tWTl2JT2x9azxDibvIdrCHSLCZuzEQU9X++h79SHpHzneq7dcYi0u4rQpE5EMzGNKevKGXfNNDRpU7imcAvy2wfobtipniIBZnSJjn6fdtN4MgPTPSYyTh7BW6d0h85EIF2kQGlGjoSvXByV6ESHuCw+YqwEkDpBnKX+TwMUIWZA5HT7MAca7XjWrKDi8DnE/ASiDuynlTvBGLWEIyAkKS/tdeWsz4k1Z8tslMb5RhS0v/scXQ/n0dvewrhvTeeatY9w7TNvoZk8FTQaVbSG/u5zKttYCOB+ox1SZIKvuBPXrxRQb99kOW4/09DIe50CWXe5hmwHRo8Pb0CCOWaqstU+MG61kqWN0H74SvedGAlv8QrcLTL6fBfV6+JWfJdMD1q0YoIskFmKYTpETg3XVkl4pTCkCMQXoREFBbj8ycd0/XYlZ13F9B5vhUs9TLjewIVDewdjLr65j75THyrGjcglWW1B2pbH7Nk3snJH8nd/eGopfy5AJNOCa7+L4uyBOiNiXO6gNK4uDUfgwRoCXSLmCj+udcZYgxI9Z61arkdu8VD2vHpUIiS8a+zUnhAw3r8T58AL0uDl9fdlDMurqYqvhZkWHDusGFJCNL5YEzMW4ai0YY1rhsQFNqpNejgdUrz4ms/6A/eEG24BzTh6j7+tdg0y9AduJ/4OK9TNZsnDKtcwFL3QSum8EJ6slbhjNudfOzCHK5i/RrlaDBuqcK0xo49P7X0y0sEy7tjkg7XVtG7W0Th7CWVxIQoyC3A9ZcPyw7g10CcjNXvYeK9qW7LdT0c+1CabL9PG3n3FGE7XsjEndtgQP78sI/dFD0roDtFYuZ6NL8Ve6sUu/L+3oFelJvnfAWq2FSoax88s6GgYKujnyFwTFr0W5DDBA7Hz4LEyMAcy4WONBD71/jYJc01YsrIwZsoEjgaT3qe4wEzW9KiqkZCPpgRHA19/Qb9hjKqGXuWrw1VBv2YoUu5VvvpcXaFfM/4LQ4C257no1RUAAAAASUVORK5CYII=;" parent="1" vertex="1">
          <mxGeometry x="297.90999999999997" y="230" width="116" height="24" as="geometry" />
        </mxCell>
        <mxCell id="kOmin4emKqyUBwTHQekN-3" value="Local VM or AWS EC2" style="sketch=0;points=[[0,0,0],[0.25,0,0],[0.5,0,0],[0.75,0,0],[1,0,0],[0,1,0],[0.25,1,0],[0.5,1,0],[0.75,1,0],[1,1,0],[0,0.25,0],[0,0.5,0],[0,0.75,0],[1,0.25,0],[1,0.5,0],[1,0.75,0]];outlineConnect=0;fontColor=#232F3E;fillColor=#ED7100;strokeColor=#ffffff;dashed=0;verticalLabelPosition=bottom;verticalAlign=top;align=center;html=1;fontSize=12;fontStyle=0;aspect=fixed;shape=mxgraph.aws4.resourceIcon;resIcon=mxgraph.aws4.ec2;" parent="1" vertex="1">
          <mxGeometry x="315.91" y="116" width="78" height="78" as="geometry" />
        </mxCell>
        <mxCell id="kOmin4emKqyUBwTHQekN-4" value="Task API" style="shape=image;verticalLabelPosition=bottom;labelBackgroundColor=default;verticalAlign=top;aspect=fixed;imageAspect=0;image=data:image/png,iVBORw0KGgoAAAANSUhEUgAAAUwAAABrCAYAAAAcsLtlAAAAAXNSR0IArs4c6QAAAARnQU1BAACxjwv8YQUAAAAJcEhZcwAADsMAAA7DAcdvqGQAAIMWSURBVHhe7L13vB9Vnf//PFM+5fZ+k9z03huEACG00KuoX0BBf8CqqF/buq7oGgVXLOu6lt39qizosqzIKiAiSkAg0ltC+iW93iQ3t7dPn5lzfn/MOZPJFRFcZVm4rzxOPvOZO/0z85p3f4t8Pq8YwQhGMIIR/FFYw2eMYAQjGMEIXhkjhDmCEYxgBK8RI4Q5ghGMYASvEWLEhjmCPyd83ycIAnp6erjrrrs4fPgwo0aNoru7m2nTpnH66aczZcoUhBAABEGAZR19b5v5IxjBmxEjhDmCPyuklPT09PC1r32NI0eO8JWvfIXJkyezd+9evvrVrzJt2jQ+/vGPk0qlUEohhCAIAhKJRLSNEdIcwZsVIyr5CP5sUEohpWRoaIiDBw+yfPly9u/fz5NPPklbWxvJZJLnnnuOnp4eACzLQghxDFma7YxgBG9GjEiYI/izQilFb28v3/72t9m5cyfbtm3D932EEPi+z3HHHcd3v/tdKisrSSQS2LaNUioiybh0OSJpjuDNhhEJcwR/Vkgpqays5KqrriKZTHL48GHa2trYt28fxWKRxYsXU1FRgeu6AHiehxAiIsy4dBkn0hGM4M2AEcIcwZ8VQghs22b69Olcd911nHfeeSQSCRzHwXEcWlpaSKVS2LaNZVlYlkUQBBAjyxGSHMGbFSOEOYI/K4y0aFkWJ598Mp/97GcjYuzt7WXVqlVs3LiRTCbDwMAAmUyG/fv3R+uPkOYI3swYsWGO4M8Oz/MAcByHzZs3c8kll9DZ2UlZWRme59HU1ERTUxN1dXXkcjkGBwcpKyvjsssu41Of+hRSStBOoWKxiOu6UeiRlDLyrpsxghG8URiRMEfwZ4PxkjuOg23b7N69m+985zv09PQwdepUysrK8H2f0aNH84EPfICTTz6ZXbt2sWXLFtasWcNdd93Fnj178H0/IshEIoFlWRGJGpIMgiAizxGM4I3CiIQ5gj8rlFIMDg6yYcMGvvWtb/HEE0+Algxt2yaZTFJVVcXEiRMZGhpi+/btlEolEokEp59+Oj/72c9wXRcpJZZlUSgUSKfTeJ4XzTf7Mar+CEbwRmHkbhvBnw2GLB999FFWrlzJM888E0mAxrmTzWbp6upi586d7N27l1KphG3buK5Le3s7q1atoq2tjXw+j5SSdDodkW1cFbdtG9/3IwIdwQjeCIxImCP4s0EpxebNm7nhhht44oknsCwL27YjgvM8L4rJPOecc5g+fTrbt29n//79bN++nXQ6zejRozn++OM5/vjjmTJlCjU1NTQ1NdHc3Ew6nY72I4SIAt9HMII3CiOEOYI/G6SUbN++na9//ev86le/olgskkgkEEJE9kYpJUII3v/+9/PZz36WYrHIjh07ePTRR3n22WdpbW3Ftm0qKipobGykpqaG0aNHM3nyZE455RTmz59PS0sLQRBEoUkjGMEbBXvlypU3DZ/5x6GAP/RmfzX+/UPr/DEM3+afup0R/KWRTqfp6+vjhRdeoFQqQcwZVFFRwYIFC5g3bx79/f1MmjSJRYsWMWvWLMrLy9m4cSOdnZ14nkepVGJgYIAjR45w4MAB1q5dy5YtW6isrGTRokUj9ssR/I/g9d9xKgDlAxIFBHpIQMoAvALIIgR5KGVQhaFwngpAynAo/SklSkoCKZEq3I4P+Ch8JD6SQPrg5cLhFyDwQAbhNjSVBgqkitOqQgW+PlY9kBHxqlcYI3htCIIgChuSUkbTxWIRgGQySUNDA8lkkiAI8H2fiooKrrvuOr7yla/wrW99i29+85tcd911bN68mfb2dpRSlJeX09raSqlUQkp5jG0yCALy+Tzbtm3jhRdeIJ/PR1WR0ISMrpQEUCqVouPxfZ98Ph9tSykVedhHMILXi9evkitNRMJBCZvwlg1lPhsFQSkcQoHlgLBAOIANKpQMpVQESqGEheUcS1xHaS2EDSSDUFLBskFYKMQx6wgjc0pF4JewBNi2BUIcu4QQgPWKBDkis752SCkjldhMl0olKioq6O/v55ZbbuGf//mfGRoaor6+nosuuojdu3ezZs0abNsmnU4jhGBwcJDzzjuPSy+9lFwux7e+9S2am5tZuHAhEyZM4JlnnuF3v/tdRIAm93zChAksW7aMyy+/nBNOOIFisUh1dTXEyBMdD6qUiswCRtK1bTt2NiMYwWvHn0CYWqYUDgorIjgLkL6P8ku4rgOWBcImQOApKGnBUNgh7ykBgYSiH0qIlh2SJTHCFCoctgRbhNxr2XrTQs8DXE2sFuqoRBn4YLvhShFZRtT6e6Q5QpivDyZWslAoUFZWhpSSQqHA448/zo033sj27duPkQANcQVBgFKKZDIZEeCYMWO47rrrmDdvHrNmzaKuro5MJsN3vvMdfvCDH5DL5Y6RDI2jZ8KECVx++eV86lOfoqqqimKxGDmGDEzMpiFJcywjQe8j+FPw+gkTFarDMUnPwNx+gQJfgS8gEFCSUChBNg+eD4ViwFA2y2Amy0AmS75QYDCbObptQ8NKIRSUlVWQdF3KytJUlpdTUV5ORdollbBpqE6StiFhgaskLj5YWvYUWsKNjuzoAzL8pEcendcGQ1zGkdPX18fQ0BBtbW385je/4Te/+Q2HDx+OimpIKampqYkku7KyMkaNGsUpp5zC0qVLGTNmDLNmzaKzs5OxY8dGqvLevXu54447uP3228nlclHwumVZpFIpMpkMiUQC3/d5xzvewRVXXMGcOXOorKykvLwctCrvum7kHDJkbTz3I4Q5gteLP4Ewjyq58e8QkqREkyQwUICOvoCDHT109QzS0zdINl8kk82SLRQoepJACSRQKhVDolQSoT/D7xalAGzbIeFYJF2blGuTciApJFPGNdPSUMWklmbGNtZQlbKx8UMJ001qc8BrwyuR/wiOhZHQADZt2sR//ud/8sQTT9DZ2UlfXx+O4+D7Po7jUF1dTXNzM/X19TQ0NCCEoKKiglQqRUVFBU1NTUyaNIlUKsXnPvc5vvOd73D88cfjOA633XYbmzdv5je/+Q0dHR3HSKi2bVNeXk5VVRVVVVVYlkVtbS2LFi1i3rx5jB49mjFjxtDS0hKRpyFiQ/iWZeE4r/3eGMEI+FMIU2n576jcFq6uEBQl5AMYLEFbZ5Ytuw6wa/8h+rN5/AA8T4aEikBiIYWNEjYKQSBDghRIhApHSJoCaTlIqVBBgAo8lF/CCkpYskiZo6hwYWxTHfNmTGbu9EmMaarDtcB1rWO8WkcV8qPHPaKivz4Yh8zAwADf+MY3+OlPf8rQ0BCWZUWqdrFYJJlMsmzZMlpaWtizZw9BEHDo0CE6OzvJZrORhDdjxgwmTJjA448/zllnncUXv/hFampq+OpXv8qqVauora3Ftm2am5spKysjk8nQ0NDA4sWLaWhooKysjPr6eiorKwmCgEwmw8GDB3n55ZdpaGhg4cKFzJkzh6amJpTODjJq/YgtcwSvF6+bMI3CbEU2QwlCoLDIA+0DsGlnG+u27mVPezfZosRNprEdBxX4KMtGCQsfG09ZeFIQyPAQQgU/wJISSwUIFXri/dCdpFX0AKEUtvSwlYcqhR50V3k0VpcxZ9pElixawMypoyh3QtsmMYI/SpoqJisfa1pghDBfFVJKDh8+zPXXX88TTzxBdXU106dPp6GhIcrgMUHo3d3dDAwMIITA87yIWI2aLKWMJNLy8nLOOusszjvvPI4cOUI+n2f69OnU19fT1NSElJJ///d/x3VdPvCBD+D7Pps3b+bkk0+mpaUl2vbhw4f5/Oc/z6pVqxg/fjyLFy/m5JNPZsmSJUybNg3HcUYIcwR/El53HGZgqCaQIXkJQFh4StA1JNm48wDPrGvlcH+ekrJJpMuxHBchPYRfwBECqUIbmB+E4USWbaM0aYakKEGGxBhyspY2VWjXVChN3BbCcsBOUJBQ8KGjL0PHQI665onUVVvYhM4lSzuIwu35RylSRP8dI3O+3QlTxqoCxR0tZjqZTEZVhFpaWqiurmbnzp0cOXKEXC6H53n09vZSKBRAq8LEUiTjBYSnT5/OpZdeypVXXsmZZ57JjBkzOO644zj11FOZPXs2U6dOpbm5GaUUd999N88//zwNDQ1UV1fT2NjI+PHjox5BhjAffvhhtm/fTldXF9u2bWP9+vU8++yzdHV1MWbMGGpqaiiVShF5m2MxxziCEbwSXreEaSIa8XwcIRF2GDaU8eHltn4eeWEzW/a0o1KVKCyymSyphEPCCigTJUoBeNjgllGQFkPFAF9aOG4yUviF9LGkj6WME0iFf1FaaTcxl5r8HEsgfQ/HgsArkEy4HL9gNu9aPp+pzTZCe9EdLWkq38OyOOo5HxaqFHcTvV1hvOBGakPHWqZSKXzf59ChQzz88MPce++9bN26lVKpRKFQiGyEyWQykihLpRJC9+4pFouUlZUxYcIETjjhBM455xxqa2vp7e2lVCqxY8cO+vr6WLx4MWeffTbNzc3R8QRBwObNm8lkMkyaNIna2lrKy8sjci8UCkgpufPOO/nqV7/K4OBgFFJULBaprKzk1FNPZcmSJZx33nnMmTMHgEKhgG3bI43YRvBH8boJ05AKvoclJFg2Ujj05OH5rW088vwWOjMeyk0jvQLF7BALZ09nyrhGRtWUceBQO63b97DnUCckK0lW1+Pjki14IQEqpdXxAEuGarkgCKVKJQiwtKMoDGnyff9onJ0M8L0SvueRwOOa85Zw0fI5lCdCEnQNGUo/PAsjXQoLpeMzj5ob3t4whGlsjSamEeD555/nX/7lX3jqqafIZDJRXctcLodt29i2TalUioLXPc8jlUpxxhlnsGzZMpYuXcqUKVMoKyujq6uL1atXM2rUKBobG/E8j3w+z5gxY5g6dSrJZJJSqUQqlYKYDRXA1gU5MpkMlZWVDA4O8u1vf5v/+I//wLZturu7I6kxnU5TW1vLmWeeyXnnnUc2m2Xy5Mkcf/zxEZFbOvfdnPcIRjAcr5swI0gvjHe0HDzhcHhQ8eiabTy5aQ8lK4ESDt5QDzMmjOYdZy9jcnMo4RUUbN7eza8ffYqOgTykqxnKSwLhIFUo8QnpI2SApSQWYWZRqIZbEWEGykKaog6+xLFDVU/KAMeyKGb7OW1aPR/4P+cyuiGJHYvXFFHmD8cQprHPhjGdIzChQcabnMvluP/++/nGN77Brl27IjILggDHcXBdNwownzZtGieddBKTJ09m+fLlkYOmqqqKtrY2hBCRZDl+/PhoHybWMi7dGhU5n8/jOE7kLTfD8zxaW1v5x3/8R4aGhrj55puZOXMm+XyeHTt28Pjjj3PHHXfQ09ODpSvB19fXM2XKFD70oQ9RW1sLuvbmCEbwavgTCFOryUpLacqiaCfY16f45ePreOblgwg3QcJ1cYv9vPeiM1k2tw5bQuB5OEmXTAC//O1aXty8k6GSTV46BHYylPKUQBjJUjt+wmTJUB0PyVJoFVrgJhJkMlkSCRehJH6pSMJ1EEGRFjfDR66+jHkzRuFoldwBhE7tDGH9HmFamjTf7igUCiQSiUiyfOGFF7jxxht58cUXQUuhjY2NJBKJKDayq6uLxsZGPvKRj/Dud7+bsWPH4rou3d3dbN68maamJh544AFeeOEFrrnmGs455xySySTEbIdGilRK4TgOnuchpYzU/oGBAdra2ti+fTutra3s3LmTp556irFjx/KZz3yGq666inQ6HRF5Lpejvb2dxx9/nBdffJFDhw7R29vLhRdeyIc+9CEaGhqOMR0Yp9AIRjAcr58wTaaPDLM4pLQouUl29sB9j69j4/5efKkQMqBaDfA3176bmU020iuBBUVcsAW/+t1GVj+/kYGShUjXkPVAKhulLNBEaUKLlM5bl4DScZtKO4QcxyabzZBKODgCSoUsKIktS1TLQa678lJOPWkWCcBWWi1XnlbJtcVS2COEGYMhSBPzqJQim81y00038W//9m9IKRk9ejQTJ07kzDPP5LjjjmPixIk8+OCDfOlLXyIIApqbm/niF7/Iu9/9biorK8nlctx66620tbVx8sknM378eOrr6xk9ejSJRCIq1FEsFvF9H8/zyGQyDA0N0dPTQ1tbG21tbezfv58NGzbQ2dlJsViMVPeBgQEOHjzI97//fc4444zIhGCC1AuFAqlUilKpRKlUwnEckskkjuMc0wbDEPWIB30Er4TXT5jS0/nkYThRIC2KboqdPXD3Y+toPTSAYzt4+UGqSt3838vP4YQp9Sg/j3RccoGNbyW5+6EneXbjTjIyRckqo0gCSZhuKWSY3ii011MKbTvV38MHOvSmJ12HYj6LpXwSFtjKQ+pYTbfYz+WXnMc5Z55AZQJEgN6Lr/MuGSHMV4AhTKF7iTuOQ09PDxdffDHbt29n4sSJXH311Rx33HFI3VZ3ypQpPPXUU9xwww3s27cPIQRf/OIXufbaa6mtrSWTyfCtb32LTZs20dLSwv/9v/+XmTNn0tXVRUdHB62trbS3t9PT04Pv+2SzWTo6Ojhy5AiDg4NIXUy4ubmZuro6qqurqampYfny5cyePZv+/n7+7u/+ji9/+cssWrQItMRqCnIYcwG615CRXpVS+LpGpzELKB0dMIIRDIfI5PPqqFfYeKX1NL9fsCJ0XAfYSieH2w6enWRXT8Ddj7zApoMDWG6aYiGPm+vk5NnjOOeE2YxvGQUuZEqwdU8n9z/2JAd7swTJKgYLEjtVHhYw8n1UqYQV+LhC4DoOJZ1BZJxCKpwAFLYlCHwfFfjYQmELHYYkizjZQ1x+4ZlcePZpVCXBCo56yrFCwjSqfuyMw0whiqECrxxQw+hTAMLQK6goEEkg3gL+dUOYcbW4s7OTs88+G6UUH//4x1m4cCF33XUXhw8f5mMf+xhz5szB8zx++9vf8uijj7Jz506mTJnCtddeyymnnALA0NAQu3fvZtOmTUycOJGBgQEefvhhDh06xLp16xgaGiIIAhKJROTYCYKAOXPm8N73vpe5c+fS1NREQ0MD6XQa13UpKytD6EIeP/7xj1m4cCGnnnoqxFR8Q35/iAjjLwjz/ZWWe71QSkWRAo7jRLbZ4csY08Hw+fFjMC+uV4IxnZjlzX7MNgKdEmpCuV7pOP63ItBZW1KHuylt8zYvQRErNG3mme9/CuzP6ThMCzRZmkhLqT+Jwm8UIAVIy8ISNkgf4dgIbAZzRbbvPcSR/iylQCKFjQX0DQzQ39dP92CRw70em3a288y6VvZ1DUJFDZ6dpD9fxEolkTJABgGWCkgIRcJSOFZY3Uio0I9tVPVwKKQf6MMUSCXwFQRYKBSW18f8GeOZNXUySTtGlgKUJZAITESmIcvw5VHQhBnSJ8rWIq65bEoTZui9D4Oewg2/FQjTEGX8Bszn89x+++1MnjyZT33qUzzzzDPcdttt1NXVcf3111NVVUVZWRlTp07l+OOPZ/ny5cyaNYspU6ZQV1cHQHl5eSRt/vznP+eOO+7gueee4+DBg2Sz2WMIbsGCBZx11lmUl5fT3t7O6aefzplnnsmECRMoLy8nkUiQTCbDF6iuQrR//35s3RPdPBTxB+MPPSSvdbnXCkPA6G2Z8zLX9JW2P5zAhi9TKBQiiThu4y0Wi1Fkgud5eJ53jA3WbHdgYIBkMomIEejwff5vRRAEkbMx0AVfDOLX20xLnSzxp5hdrJAK0WxgfuijP7j5fnQ5DSFQlgvCxRPgWSk8O01RpMioJAWnElnRSNauYuOBPn77QisPPbWOR55dz46D3XhWikAkCIRLoqySQklRDOxwnlNG0S4jo9IMefZRCTB2I8a/v9L8cJZECYnSkuRRQdBIhwFCV/QU0fD1QgntV3di65mhohdKOEsA1luCLOMwb2rz9jYxlLZts3nzZnp6eti1axcvvfQStm1HHuvdu3dzxx13cPPNN3Pdddfx4osvsm/fPu69914+8pGP8NnPfpb777+f3bt3R6XbKisrWbhwIStWrOCkk07ife97HytXruS2227j9ttv54QTToiaoBmpAv1b5/N5XNclnU4zODj435Ig/hwQ+kVjjjMu8QwnPKEjPYzH38yPD7RJwSwTPz+TQGDsssYWi/79NmzYwN///d9zxRVX8IMf/CAi3j+FLN6MsCwLz/Oil4Gni0+vWrWK97znPdxwww1s374dqZ2G5nr/IWn9jyFGmAbDyZJI/RWEQmjg61kxyVNZggCbYgCesskHgsGSICMTFOxyhgKXjv48JeWSKKtG4tDXO0h2MEvSdsAPw4FcN4mwEwQigXTSWKlyZCzI5+iNdPR7/PMoVOh1FyKygSIkCD8c+FFWu/G5H31p2EBSk6a+OscQppG+laZLS4//uYf0zwnj6Al0ADr6xqypqaGjo4Pdu3dHnut9+/bx4Q9/mB//+MdRDOPjjz/Of/7nf7Ju3To2btzIT3/6Uy666CI++MEPcu+997J3717Gjx/PmDFjEFoCK5VKXH755fzgBz/gxz/+Me9973upqalhzJgxLFu2jMmTJ1NZWRmRgjm+rVu3smHDBmzdFC2bzR5DNG8kDHkXYtlNccIz5PlKZG6WM1JQfKDXNyRn5nmeF52viWYwUujQ0BD/9V//xQ033MC//uu/8uyzz7J3715SqdQx2/3fDqUU6XQ6Ou8jR47wxS9+kU9+8pOsXr2anTt3orQ0HTdb/Kmwfn/14XM0MRjSDErYQQFLlbDwQfkIBX6hiPKLpF2LmooyKtIpHCcs+BtgIbGx3CS242IJSFtQn05QlxCUBXkakoIKPJxSHuEVQHrIwKdUCr2dwx+C+Pfok9ibGYEkiVTpiFxRmniV0jRnIbCxsBE4CELzgiKBxNWlQEIzhBLh6kqEXvujYUmEpGn48y0CWxcHJmY/W7JkCXv37mX16tX09PQAcPnll1NZWcknP/lJzjrrLD7xiU/w85//PJIEi8Ui//Zv/8b+/fuRUkbFObq7u8lmsziOQ1lZWRTUbmyUFRUVlJeXR5JAVVUVaHNBqVSKCPv222/nmWeeYdOmTfT29tLX1/c/RghCCFKpFAlddq6/v5++vj4GBwfJZrPk83ny+TzFYjEKkcpms2QymUgyKhaLFAoFCoVCtHw2m2VoaCga7e3tDAwM4DgOFRUVCCHI5/NkMhn6+vp48MEHuf7667nhhht4+umnyWazJBIJuru78X0/coS9VdDf38/LL7/MzTffzLnnnsttt90WJS34vs/Q0BCZTCYyRZiX9J8CkcvndR10Q4zHEgEYx4/+LkPJDEx+t6CokuzpznHf79ayYW8PnltOPrAQ0iNlKewgT1AsIpTQAeahJ9t1HYQlKHkexZKPpwRSuAgnjZVIgwirFBGUELyyqmIeamNHNH8TKsDN9fCei87mknMXUO1CQoGl9PGL0Dsed2iJcEMocSwdGoRXIQA8LZkK7RhyjbD5+++b/8Uw6l+hUMB1XR544AE+9alPUV9fj+u6bNu2jSlTpnDkyBGKxWLUCsKQnJQyUhfLysrI5XIkEgkWLFjA3LlzKRaLjB49mlmzZrFs2TLGjh2L0pKj0lLT0NBQFOdpVG9LG/n37NnDe97zHt797nczbtw4tm7dimVZfOlLX4qO4Y0kTqUUJd02+KmnnuIHP/gBmUwmKhxispWGH5OKVYI3Emig23uYz2w2G6nkQ0NDLFy4kI985CNMnz4d3/dxXZfDhw9z9dVXs3nzZgqFQvTiCLQj7fLLL+eHP/zhf5s03kzo6+vjH//xH/n5z39Oe3s7UpuPzLmddNJJfO9732PWrFmgw9aMtPmn4BXCio6hj0jxNLCUH/bsQYHnheXPnXK6s5LHXtjElv2dBE4ZeU+B9ClLOriqhOcFBCpBwrEQygO/hKX7A3mBh1ICN1VBSVoc6cvS0TtI3lfYThrhuBGBDSdNQ5zHSJcKLCVxsxmuvPg8Lj13KlUJSEmd5SN8rXbbv89wKvT8BEaNHwaBpwkzVMYFbuhJl3pT//vvweglZG4+tEq+Z88ePvWpT/HYY48hdBhOnBAzmQyW9ggXi0Ucx6GqqoqGhoZIZZRScu2113L11VdHThvLso6xT5ob3tYxlOjf3dfpmiZu8qWXXuIDH/gAV1xxBdOmTeOWW25h6dKl3Hjjjbiu+yfbqf5UmGNUStHa2sp3vvMdnnzyyShUSmgbJpo0bZ2/7ugaokZlN9sx9mNj4yT227zjHe/g5ptvZvz48dH81tZW/vZv/5adO3dGEQcyFld6/fXX85WvfCW6tm8Fwjx8+DDf+MY3eOKJJ6J+9ual6vs+p5xyCt/61reYNWtWZNKQ/40oAXvlyi/cFFontRtECaQIVdFAW/pKCjw9AiyUSKCES0naBFYKz3IILJuaxjHMXzCNhQsmsnDuJBbOmcLC2ZNYMHMq8+ZOY/7iycybM4mF86dy3MIZHLdgJgvmzGbB3HmccNxcTlg6nanTpmHZ5fQODFIslkhXVFDyAyC82eIkSYwoGUamQikolpg/ayozp9SHqZEii2AQGAJRAnR6J344TSEcQiGEjRhW9k3LtNrmaf7ZWlfXC/1pv8ObDvGH29xojuNw+PBhnnnmmcgJ4fs+6XSaoaEh0MRqHvCysjJGjx7N0qVLede73sWKFSuiAPJTTjklsjsa+5MhSrNvNcyTa250s9yePXv4zW9+Q1VVFaeffjqPPPIITU1NnHrqqdjac/xGwhx3sVhk1KhRzJ49m7Fjx9LT00N7e3v0khFCUFlZybJly1i2bBnHH388xx13HIsXL2bRokVRZ83Zs2cza9YsampqyGQyFItFhBCk02lOPPFETj/9dFKpVPRyaGxsZOnSpdTW1nLkyBEGBgYi0kST7EknnRQdw1sBlZWVzJo1i7lz52JZFnv37qWkG+lZlsX48eM5//zzaWpqAn0P/fcI8wtfuEkJHTKEbisRKZ7Qn4X27iGOdA/RM5Cna7BER3+BIwN5OgaKdAzkOdKXo3sgTyZfIpMtkRkokhssUsjkKAxmyA0NMpSTDBRSZLKQzXhkB4tkBnPkMnny2QKZbInBIUFPX4HDRzppa+8gk89juS6+HyrccbKMk+MrzRNKEuQzLJg1mamTmwiK3diqE1nsxPa6CIr9+MUBvOIgpUI/XqkXr9CNX+xCqUA3DpJYutZn6BaShNbRECFhWkcJ8y0iYYph8Wvoa2syckzRDSkljuNEqqIQgvHjx3Pdddcxfvx49uzZQ3d3N8uXL+eUU06hvr6e5557jj179rBo0SJqamqwLItkMklbWxvJZJJMJsPzzz+P1AHx5sY2kpeRei3tHd24cSOzZ8/mwgsvxLZtOjs7OeOMM/7HnBvmmriuS2NjI/PmzSOdTvPUU09Fpg0hBJMmTeJjH/sYV199NStWrODUU09l+fLl0Vi2bBmnnHJKNH/atGls2LCBoaEhysrKOO2001i+fDllZWXRvi3Lor6+njlz5pBKpWhtbaW3tzc6rvPPP58TTjghdrT/+6GUorq6milTprB48WJaW1vZu3dvdO+OHz+es88+m8bGRoQOKfrvaB72ypUrb/ICFdoPrVDWynhwZECxbU8X61t3sr51J5t37KV153427j7CS3u72bi7nY172sPP3YfZsvsQW3a38fKuA2zdtY9tu/axdfdetu7ax8u79rFp10HW7mhj0/ZdbNq2i03bd7Nx+142bt/Lhu17WbtlFy9t3cPmPW3sae+lczBPJhCUpIUQlnY6hYiTpNQ21/i8EAF4/SyYPZqpEyuR3j6sYB9BcT++10bg9SD9Pvygj8DvJgi6CIIjyOAwvh+2cbXxcNwwnlToF4oC7SwySrkVdcN8q9kw/xB27drFtm3bACLpx5BTdXU1s2bNore3l6GhIQqFAt3d3fT29vKzn/2MTZs2sW/fPkaNGsWCBQtIJpNYlkVXVxd33303DQ0NDAwMUFdXR0NDA56uNhT3EBvCTCaTjB8/njPOOIO6ujqklGzcuJFly5ZRUVERLf9GwdyDRoJTOlh87NixPPzwwxw5ciQi/bFjx/KOd7yDWbNmkU6nIzttMpkklUqRTqcpLy+nsrKSpqYm5s6dSy6XY8OGDSSTSVasWMFxxx33e9Ki53mk02mqq6vZtGkTO3fujP527rnnsmTJkuj7WwVCmzcqKysZGhrit7/9LZauuzphwgTOOeeciDDVfzP+1JIKSr4Mc1sUdA7C2tbDPPzkGn712DM88tx6Nu05wv7ePG39RfYO+OwegN0Dgl0DFrsGBHsGBXsHJPv7fQ70FTnYl+dQX5aDvTkO9BY40Fdif2+egz0Z2nqytPXm2N9bYF9PkX29Jfb1euztLbKnK8e+7jw9RZCpKqzyGqSbColqmESpUMhhXnIzHX5XJBISN1HAdgaxrB4scQRhHcIWbbj2YVz7MAn7MK7TjmMfwnUO4jht+KX9FDN7KeUPIUudQA4LD0uT5VH7p77wIk7Ub200NzezaNEi6uvrqauri4jJ2OIOHTrE3XffTVdXV+Tx3rlzJz/5yU948cUXyeVy9Pb2sn///ihY3aib99xzDzfddBOVlZVRBSMT1kRM3Uf3Hk8mk5x00km0tLREpgEg8ogaVfSNgnlwjalCaIdLXV0dY8aMwY6Fa6lYYkBe91k3NkvzN1vHC9o6YuGaa67hpJNOilROE3toBjGV06SQvtVhrrFxck2dOjW6BnFe+HPBCqTETthgw5FeydrNu/jdsy+xbts+uvMKWdaAqmhAljUgKpshVY0vHDyRoGQlKVopCqQoWCmKIkEJhyIJCiTJkyZnVTBkVVGwy1C2QNkW0nEJnCS+m6Zol1F0yvCcSvxEOSXhkPMCCp6H55UoFfOvSJbh9NGLMvziKBWSWxgoFGBTxBY5Ek6edKKIIwaxVB9C9mLJXmzVi5C9CHqwVQfCP4xfOEQhcwgv142SBU2YxlEUfgshdYznn/8HerOhvLycuXPnMnHiRMrKyhgcHIwe/FKsgMbg4GBULMN40AuFAn19fSxYsIDTTz89amCWTqeZNm0aV111VRTDKHQqm7HbKV0gOP7dqF2FQiEiD7Ov4ffDGwmpnVdmFItFqqqqIofQcDKM2yEN8Zl73SCVSlFWVsa73/1uampqIqIolUrkcrkoKNuom4lE4k/2BP9vg9E2LMuKygga082fG5ZlWwgBg1nYunMPL23cSk+2hEpWECQr8Z1ycipJT05yqC9PJlckISSOJbEFWEJg2RbCsrH0wLJRlkNgu3h2As8pQ1o2QpUQykMpH6UCpAojGgMlKEmlQ30A5eHaAWVJSCUEqPCNfCxZHitVms9ovgK/BF5R4BUkfslH+iXwiwhZwrYUjgNJR5ByIeUo0q4k7UpSiQIJpx8R9ODluygV+ghKuUg1PwqjiquwsscrBiO9tSCEYMyYMVRWVtLR0UFfXx+uDqq2bZtkMsnAwABbtmzh4MGDkSR04okncu+99/LUU09x5513cvbZZ5NOp3nppZfo6Ojg/vvvZ9q0adxwww0MDQ2Ry+VwHCfKGUer5eYhKBaL9Pf3I3Tso9KFhLu7u2FYoPcbDbNfc+5KB1ebe9OohHFp0kBpCdRIyEEs1a+2tpaLL76YW265hXe84x0kdZaPqwP50Y45W3vA/zuq5/8mmBcnOhSuvLwc8ReyX1sQ9gxv3babDZu30jOUQTkJfOFSCCyygUWJBKQqcSvrQ4Ip9ZMs9ZP0BnH9DI6XxfZyCD8PfgH8EirwCAKJH0hKQdjxMa1ypMmRIk+CEgnCNheukFSkbFK2xAryWN4QrjeIle+mNNQRVi9ieOjQ7xOngVJhMKWlyrFVNchylJcELwG+C74NngVFAaVwqJJCeQpZUjjCI+lmsUQGZAbp51BBKewz9HukScjOQkuZb3Eopaivr6e6ujqSapSW9pRSjB07lhtuuIH/7//7/6Jamclkki996UuceuqpLFq0iIkTJxIEAUeOHOGnP/0p5557LocPH0YpxRNPPEFlZSXJZBJfl3lDE7UhQfO7FwoFPF3k2DidCjrg26i9/xNQ2nbp6lApQ/gGgU4hLeniy3FStCwLJyZ9mvMtFotIKUkkEpxyyik0NTVF5+667u9Jk8O3+1ZFXPWWUpLNZqNYy7/E728VgX1dWdbtPMS+3gIFt5qsTFAILNxkmqTrooISspjDwcd2LKRtg20jLHAsFZGeI8CxBLYlsCyBbYFjSVzLxyYIXfAeCE8hvADhlbC8EpZfxPJLCK+I7fsksUhaLmknRcpJxUqvSaTwUKKIEiU9fJSQSHQZOKGQlkRaEmGFCYtJJxm+9YUVSsCRZBiq1UpaCOVAYGNJG0cEuFYBV2RxRAYr6EN5PRAMIihFEQWhTKkpVIW8+VZF/I1dU1PDpEmTImeFCTgXQpDL5ejs7IxU5EmTJvH+97+fhQsXUlZWhu/7FAoFNm/ezNq1a1m8eDFjx47lkUce4Xe/+x3Lly8nkUgwODiIbdu4rouvM1NULD4xlUpRW1sbETZAb28vXV1ddHZ2/sUkjNcCczxC5zabz+F/M4QYf7illKHmNYwIUqkUBV2VyPM8Ap1UYOye8XM11yS+L4ZJtq8Hr0Q88e2/HrzaejLWfgS97PDv5iVgthH/tHQ8r/nt4/sy677SPTH8mIYfn/keBAHWkIQtB3rZ2V2gkG5kyKqh4FTi2ylKno/yi6SER1qUsIsDFH2PjJWkgIOndD9x5YdtJbTqHAbfyDDAW5VwZA5HBlgqHQ6ZwJYWjlS4gY8b+NheEdvzSSoLR7n4RYFXsHFEOTKkWyQBihJKFFBWASmKKOEh8VFCoYQisCCwJdL28YMCpWIW21bYNig8sJRObzQXUoQOHGkjlI2QTphjrrJYwSCu7Ed4nfi5w+B1AlkUJQLk0YZwShzNn3yLwdx8cQJKJBLMmjWL+vp6SqUSH/3oR5k1axZKKcrKyqiurmbHjh309/dTW1vLpz/9aaqrq6Ob1kiAzz33HA899BAnn3wy119/PUIIXnrpJWpra6mrq4tuVF9nvCjd99xxHBydUmmyZwyBmAIc/5NwHCciwWQyfFmrV6lUZB5uQw7Dvxuis3SGk23blJWVhdLoHygLZ1RyFfMKm+2+FulbaRIx0rAh6fjfDIaT2B9CnBDN+QWxjKb4OZtlzTLxbcSPzVxPs29LZ/EYe7GvEwLM8ujjNduI79PAbCu+H7Oc1TsIbYcOkcsX8bwgpBGTLKkUmLhDczGUmT46lAKpwvJqEgupjo4wp1vgC4uicClYLkUrQdFKhNN2OK+g/xYNEY6SSKCUi1COHmFmjQhcPZJYMglBAhEksKSLHbhY0iXlOLi2QnoFbKEIfJ9ioYgQxuYhUQQoXYgjGkqiolJ3YTFjpTyk9HSQexi8HkJLmK+gqL8VYR6+iRMnUltbi2VZHDx4kLq6OsrKynBdl66uLnp6elA64+WJJ56gVCrR2dlJNpultbWVPXv2RDbIRMJl+fLlfPrTn+ayyy6jsrIyIpdisUgymTzmQTIPinlYSqUSrusye/Zs5syZw969e6Ob/c0Ic+xxiS/+UHq6hqalY02NU8e8HP5UxM0br4Y4kRgJmdiLq1gsRtc20I6n13qtDemb5ePbtrUpIv4bx00waNt0nMReDUKbKyxt44ybLZSuVRrEqj+ZcyZ2rYjZzl3Xxeru7ufw4SMEfhCShBCaBHUFH8PEhjp1UDgy1idcEbaO0P12wj6PVtSDJ6w7aVO0HYpWbNguhdj3gmWH0yIcBcuhhI1SdkiW0gbpgEyAchEqgZBuSJYynBaBgxU4WIGFjSSdsFCyGJbRkLqIiBAglPay++EgdESF1eTNj6GdOcpHyRIyKII0eeRHA9gVbxu+BH0jjh49OrJR3nHHHaxZswbP8+js7OTZZ59l+/btkQf3a1/7Gu9///v5wAc+wFe/+lWeeeYZHn74YR544AFGjRrF+edfQDabJZVKMWrUKKqrqxFavRfaPmkkqWKxGD2kcYkhn89TVVVFRUUFHR0dw474zQHzQMbJkmFSvFHT0ee1du1aPv7xj3PrrbcyNDQUPdxSFyEZLh29GnK5HMT294cgdb1IQxJmf+h1zW+hhqnBZvt/CIYsh18Da5ikbP5ujrGk24pks1nQ+zVEF7+Or4T4tSX2wg90+5U4hhO5eWHEbelWV08vQ9kctuti205YelcX5zXMHhU/U7o4h24hgZIoaSRMI2VaBK8wJKENUiFRIkCKUKlVSKRWcKXSn1rqU0p/EpKaWV7FC3FASFma7IQeFiUSdpGaKhshC4jAw7UE6UQiJM1AnwM+qDA/HFUKCVOaF0Kgu1YWUDJP4GchKOhXwduKI38P9fX1LFiwANd16e3tpaDrLPb399PW1oaUkoqKCqSUtLW1sW7dOs4//3zKysrYv38/kydPpry8nIGBAerr6xkYGOChhx4imUySSCSwdbiNuYmVUvT09NDb24vneezbt4+hoSFUzDu+b98+urq6yOfzkUPqzQQjQcXJwpC/rdNEjXRpiGXTpk08/PDDtLe3U6arywfaoWNU/z8ENcwDHyfMV4MhIhnr3mkcS3FyM7+LkTBfiwQcPbeamOKkZ1R/EZP2hBBRNIDZvjmeP3YeaLI1oWrozqPxfZrfIy6xxgndmH/MOVsdXb1IRFh2zbZCOVJp0ozsfFqKBNDdHJHmxA1ZQqBCZTVAEKgwXEhhIZX2pKoAS9s7w+lAk1v4KZSPkB5CemE1d11ZSAkPZXlI4RMIHymkHioiWISPwENQQogiFgXqqhOMqk8jgizKy+MIcB0HAokMtERJgMJDqVJInMpHyQAlw4pHKA+LIjLIEfg5ZBBKq8f+VPrbH//9/tdDKRWF/CxatIhUKkVDQwOjR4/mne98J8VikUwmg+/75PN5pJQUCgW+/vWv86EPfYiPfvSjVFRU4DgO3/nOd/jkJz9JfX09M2bM4IwzzmBgYIBDhw7R2dlJScd12jpw29Ml3Q4ePMhDDz0U1eXMZrP09vby7LPPks1mGRgYoK+vL3oA3iwwJKB0MQw3Fnvp+34UO2kIMQgCdu3aRaFQYNy4cZFqaB7g4RLSH4OpnflqJMswqUxoh9WBAwd48MEH+eY3v8k111zDmWeeyYUXXsgXvvAFVq1axa5du17T8dixikzx3/IHP/gBn/zkJznnnHNYvnw573znO/nkJz/Jt771Le6//37Wrl2Lo2sOGNJ7LYRpiN6QYjKZ5NChQ9x///389re/Zf369bS2trJlyxa2bdvG3r17aWtr49ChQ1HjvYMHD+L7PqVSCetIVxdSCTw/iGUfhjKlkjHSJBTMQCGkDOcc1crDNbRabkgUvY5S4Tpu4OFKj4T0SASlcOhpV393ZQlXeSSUhytL2LKIEkUCUURZJU2cHtLS5Gn5YJW05zyPEHkEWYTIMGViDWOakihvAPwcBB7K97R0qVsFK11MWHlhtXXT4E0Z66uHoICQeVSQAxmWmjtWJRdvC7I0KNNV12fPnk15eTlXX301l112GUuXLmX+/PmkUqlIYpJS8s1vfpNzzz0XXwei9/X1AbBs2TJaWloQQtDT00NVVRW9vb288MIL3HPPPaxfvz6SIgEaGxupqamhu7ubxx57jLvuuou+vj6ampooLy9nzJgxnHHGGaTTabq7u1/TA/VGwpCl0OFPplZmUXfKzOfzDA0N0dfXRz6f59lnn2X16tX4vh9VJTJQMSfGH4O5fq/V1miOM5PJ8Lvf/Y5vfOMbXHXVVVx++eXcfPPN3Hvvvbz44os88cQTfO973+Oaa67hIx/5CE888cTwTR0DI8U5jsPQ0BAPPvggn/3sZ/mrv/orVq5cyU9+8hPWrl3Lpk2bePTRR/nRj37EF7/4Rd7//vfzsY99jPb2dgDS6XREuK92PuZv5j4wL6yNGzdy8803c+WVV3LWWWdx5plnct5553HhhRdy/vnnc8EFF3DuuedyxhlnsGLFCq6//no2bdoUSp0DgxmkEHi+TyBl2EAsIoyY+KxJEW3DFEppGg1JUeq/G9OmIIzntkVYai20e8a6Q+hhvltKl7JQFpYUCBlOC0UYfxm5WnQPcWGjROhUwrJQMlTJLVHCFkXSrs/kCXVUpErgD2CrPEJ6BKUSSG1kMBXY8RHiqMNHKKWTdgKdElkK+/wEOQjy4fIxwnw7kaWKlTCbOnUqc+bMoaOjg8svv5yysrKoY6NR0R3HYcOGDRw6dAgpJRs2bODRRx8ll8uxe/du7r77btrb29m4cWMkVbW3t9Pe3s5Pf/pTDhw4QKCDuB3tGXddl/7+fn7zm9+wZ88eEokENTU1HHfcccycOROlFO3t7X+QUF7tIftLwrbtSLret28fd955J9/97nf5l3/5F1auXMlHP/pRPvaxj/H+97+fc889l/e85z1s27YNy7Korq7G1yFVxvnyxyRFA3O+/isUDo5fC/OsS90f6fvf/z4f+chH+O53v8v69euZNGkSl112GRdccAGzZs2K4mVd12Xt2rX8+Mc/pqg7cw7fptKSrWVZ5HI5nnjiCb797W/zwAMP4LouU6dO5YILLuC6667joosuYt68eTQ1NZHUqbE7d+5k69atkdZi7sFXg6MLw5h1crkctm2zbNkyrr/+es4++2yam5vJ5XL09/fT29vLoUOH6Ovro6h7BFVWVlJTU0NNTQ1SSqx8ycdNpEAY17tx8Yc3qWFxqRSBUmF9YXWUVDWXhoSmFFIqVKAQklAFFuCKUM0PAoHn6xEIvMDCkxaBspE4SOWGlc6FG5WQQyRQMnT8SKWXUQmUdEGFf0s4KU28Mixa7MDcGZOZN2M0+aF9JOwsSdcnaYWxogiB0H15jvbxCdtVhG8Gnb4mFKhQxXfsEr43RLEwAH4pJNU4V77JpJm/FKxY+TYhBEuXLuXuu+/mwIEDzJ8/n7POOivycksdtP3AAw9wzTXX8PDDD1NRUUFzczOpVIqnn36affv2UV9fz7hx4+jp6WHr1q20tbXR3t7Ohg0buPHGG1m7dm20f1uH1JSXl1NRUUE6naZQKFBbW8v27du55557OHjwIJlM5piHlZiEEZ/3RsLStTxLpRJ9fX3ce++9fPvb3+arX/0q3//+9/n5z3/OL37xC5544gk2bdpENpvFdV0qKioiu66li0q81nMwy4lhhSfMtYjb7gy5rF27li984Qt89atfpa2tDd/3mTNnDj/96U/50Y9+xB133MFPfvIT3vGOd5DQFayUUqxatSqKUIh4IxYeZMaePXv4t3/7N55//nnS6TTvec97ePDBB7nzzjv53ve+x3/+53/yy1/+kptuuoklS5bg6oSFtWvXktQV+41K/mrXINCFk13tWa+qqiIIAioqKvjABz7ALbfcwtVXXx2l6NbW1rJw4UKuv/56/uEf/oFbbrmFX/ziF9x2221MmjQptOGW/DAbR5oLq6tAhoQQUqFSR73kypCEYUmlU6i1VGmLkCgdIRFBCUo57KCAIxRWIoWVSCPcFNhJlOUSYOMpi5IUeErgSfD0dEmGfc+FZ2GVLOySHQ7PDEESF6voU247VNkWFQTMaGnm3OVLqK3wcOjFYRCbHJYqaeeQJkUdfi7QErBC96IIW04IFSC0DTMceSxK4TqaMA3Mqm8HWDre0bIs5s+fj+u6fP/73yeZTDJt2jSWL1+OpePhisUizc3NdHV1ceuttzJx4kRWrFjBmDFjouLCtm1TXV3NQw89xMaNG1m0aBH5fJ6uri7Wrl3L//t//y+SEpRSNDc3M3PmTAYGBnjppZewdE+grVu3smjRIubOncuRI0eiB1nGPLyv1fb1l0BcMmxsbOSCCy7gQx/6EB/60Ie44ooruPLKK7niiis4//zzmTFjBpWVlZFt0zgdpE63dHT4zasRxh+DiHm8DYaGhvjxj3/MY489Bvq3Hj16NCtXrmT+/PkoncU0depU3v/+9zNlyhSCICCdTkfmFjHMK22ue6CLZGzbto3NmzcDMGnSJC655BJqa2sjOyHAmDFjeOc738nnP/95TjzxRIrFImvWrIns52jSf7Xf0hCqGUbjcBwnul9efPFFMpkMY8aM4YorruCf/umf+NjHPsZll13GsmXLGDduXBSOpJQKCdMLjn3rhoQYM1BydFLpaQxJaFXcqOBCKZRfQpXyOEGRhPBIqBJCekjC4sTKCjOFlGWjhI0UFlhOmINuO2A7ehkHIRySuKSVS0o5JJVLUiZIKYeUcrCLAYlAkgp8qm1YMmsaF51+EpMbK0kygC16sRnAVtnIqXPMuUXSsmY8aR01GRAAJSwKmiwLYbX4SBI9KmHqLHf97a0LIyWg3+Dz5s1j1KhRrFu3jnXr1h2TlmaWy2azSClpaWkhmUzyrne9i9GjR9Pb20sQBHR2dvLTn/6Ub3zjG6xZs4ampiZaWloiW96uXbvo6uoCfdM2NDRw7rnn0tzcHHlWU6kUdXV1XHzxxYwbN44DBw6Qz+ePeWj+pxGXDltaWvjgBz/IzTffzNe+9jX+8R//MRpf//rX+exnP8sJJ5wQOYGMwyMKb9Ee3FcjjD8Gs67RBqQOipdSRr9jQ0MD1157Laeffjoy1vvbcRzmzJnDzJkzcV2XXC6HZVlRrydzzV9pH0eOHImWKxQKlGIhYoZsgyCgurqa5cuXc+2117JkyRIKutdRQgem+zr06Q/B7M84yMwxDQwM8Pjjj/Ptb3+bl156ifnz5/OFL3yBz33uc8yfP5/a2lrQx2LHsrEsy8Lyo5BKEfbPAU0GRoQMT95MRx9mliZJVOgkkp6HCDxs5WMrD9svYJVy2MU+goG9MLQfJ3+QRLGdlHckHKUOrGwbVvYgdvYgVqYNW0/bWTN9CCd7CDt7CCt3ECt7ECvXhhjaQ6XqYOGUMi4+fSqXnTmNE6anKQv24sh2LPqx1BBC5UEVj4YNKWlanBFSvnkbCIhqrasYaZYQeLrxWyilRpL22wyGDKWUNDQ0sGLFCjzPY9WqVdi2TaFQQMbsTF1dXRx//PGk02m+853vIKXkqaee4sc//jF33XUXf/d3f8ctt9zC4cOHefHFF7nvvvtYsmQJZ5xxBtdeey0f+tCHqK6ujrywlmVx8skn85nPfIZzzjmHiooK8vk8J554ItXV1dTU1NDf38/Q0FD0ABry/p+E1GE6RmJMpVLRg9jY2BiVy5s4cSIXX3wx733ve2lubo4C95Uu4owOwXklm+Trgdkm+uXnOA6VlZW8//3v55Of/CQf/vCHufnmm7n66quprKxE6ogHs45SisbGRsrKyqJ7Iv734UjqikKFQiG6N9ra2vjZz37G4cOHjyEmdBiU7/ucc8453HjjjXz605+OmuHZr6FVrqMLOQex0K0gCLj//vu5+eabWb16NSeddBJf+9rXePe73019fT2+DqA3krEZ5vzsGae+4yZpJQgsB4UFlqWLTBgbpQJMFo8IYxBVAITecDAtFQmdQUgStiJhSRLCpywhaKypYNKYepbOn8y8aWOZP32cHmOZN62F+dPHccL8KRw3ZxKLZ0/iuDnhWDx7EsfPnsTxcyazePYkFs01YzKL505i8ZwJnHrCLJYunMDy4yYyf1oVtWX9qPw+cr1bKXe7ca0hLFXEMTGWUUKj0ip0+OOGZoV4TrjSWT0+CInCRaoynGQjVno0iEoECaPBa/IlbFnxFsbwm8jSDom7776bTCbDaaedhuM4rFu3DqltZFJKRo0ahVKKhx9+mNraWs4880zWr18fpVfu3r07cogcPHiQU045hWuvvZazzjqLuXPnUlNTE8URGulq8uTJUdV2S9ugLG0n3LhxI9OmTWPs2LGRFGIkDHP8fynEt22mf/3rX7N58+bowWtoaOC0005jwoQJuLG+4oZsHMdh9OjRPProo7S3t3PllVcyevTo6Lqbh3r4fsz5+b4fhc2Yvy1cuJALL7zwGAKwYjGfhoDGjh3Lcccdx0knncSCBQui7p3muluxVMPHHnuMjRs3UtRl9y6//HKmTp16zH1ijs9Ix9u2bePJJ5/E0rnwO3fupLW1ldraWlpaWqLjMMeUSCQYNWoUkydPPuaeMr+nuQ5CiKgeq0l6mDBhAueddx5NTU0cPnyY22+/nVtvvZUdO3Zw7rnn8vnPf57Zs2dHqaYmvtNco+H3jGXZ4QUQ2umjvTpaggrZw6jdKiJJI3VqKEApXNsi4Vj4pTyW8hk/ZhRnLj+ZK991Kddcfj5XnTufq8+bx1XnzOHKFbO44sxZvOesObznrNm869SpvPPUqbzr1Cnh9PJw+rLTp3LxmVO5cMVULloxlYtWTOOiFdO4cMV0LlwxjWXH1bN4Voq6sna8wfWQ20ylu4/m2m5cux9BDoviMHX86DmGv4w+B4nppavPyUigRx1DRxc+FsdaNN/aiN9QlmWxdOlSTj/9dA4fPszjjz/OvHnzGDt27DEBzevXr2f16tX09vayceNGRo0axXe/+10GBgZ48sknaWlp4ZprruHss89mxowZjB49mpaWFurr66MwJtd1o9xs8/C6sYpAhUKBgYEBKisrKRQKbN++/ZheQ+I1hKL8pWFUw3Q6TU1NTeSQSOgmcSUdcC914P/MmTNJpVIRARgITYryT5Sc49cgTpaOVl+rqqpobGwknU6T0u0+crlcFFivdO/zw4cPR5JueXk51dXV0TWOk2WgHTCO4zBlyhSmTJmC53nYtk2xWOTxxx/nfe97H+973/t4/PHHkboyk7Fpmt/ZJDaY8WpSZqDz1IvFIrt27eK2227jH/7hH9i5cyejR49myZIlTJo0iYqKCmzbZnBwMLrOITlqNTwmbVqGLBFCF7DQ3CFCm1woeWknUHxgI6WNlC4KF6EEqlTA9YeYMirNxafN5qNXncaVK2YyvT6D1b8e+teg+tfAwFqswZdQ/S/idT2D1/U09tA6nKF1OBkzXsLJvISdWYfIrkPk1kH2JUT2JazsWqzsGqzcSxR7nyUYXEsy2EFtWRdVqR4c2U7KGsAVBWzla7tjKCnGSU8QxoeG0rQhR1MMWN+I4cXACgSWsVmGxloCK6y5AWATVkZ6O8BIJObBcF2Xa6+9lmw2y2OPPUZ/fz8TJ07E0WFFhUIhalfhOA4vvfQS69evZ8qUKfzwhz/kzDPPZMeOHTz33HN87nOf495772XZsmWR9OO6LplMhmQySRAEUWC8IRujqpeVlZFOp6O4zN7e3ihY2yBOOm80zHEoXZpuYGDgGLVaSkk6nUZqW2IikeDrX/86v/3tbzn55JMjm6zUQfyuzpP+U2DFqtcbqcrEvJr9Ky1dDQ4OEmjHjm3b5PN5BgYGeOSRR9i4cSOFQiGaX1lZGW1jOIyEedxxx3HJJZdQWVkZqcqJRIJ8Ps9DDz3EJZdcwpIlS7jtttuiTqSuLpdnbMDqNcah9vX1cdddd3HNNdfwzW9+M9peW1sbjz76KNu3b8fzPJT2oid1/VL07+F5XhQnC2BPPuH8m0QyRUGCpxTSsnRx3yAMUNeBlSIAIRWWrkqUTteRyQJ2JY6VJigWSckh5k6o4F1nTGf57BSN1l78rmdxBzZQnzpE0jmEw2Gs4BDCP4gdHMSlHZd2HHkQJziI7bdhBW1HP/U82w8/Hb8N12vD9dtw/AOUWx2UOd2ktHNHqAzIIkoFODLAjjKW9NDhRMbhI2SgPeQ6jxwfiQ9W6CUHAdJF5cALynGrxiLKR+FZ5XikEICjQJhqRdb/3AP5RsCQ5PC3r+u6PPjgg3R1dTF+/HjKy8tpbW2N4tmMxJHWHSabm5uZPHky69evZ//+/ezYsYPp06dHQe1jx46NyCAIgihNsqRb+sbVtvjDbeuUysOHD7N161ZOOOGE6EE3x/5qUsl/F8OlQINf//rXbNmyJXrIR48ezUUXXcT48eOPkWiEdjSYa5tIJKIydq6uqxknOwOzL3OdjUq+YcOGaJmFCxdywQUX/N46Qhc5MbZIA6nrS5ZKJfbu3cvWrVt57LHHuO+++/iXf/kX7r333sgZZ2sN4N3vfjcTJ06MzsnA0g4vdPX4KVOmkEwmo/jHgu4mij6Hvr4+1q5dy7Zt23Bdl7q6OlzXxfO8Y2y6w693e3s799xzTxRz2dXVxXPPPUd3dzeVlZWRROs4Dh0dHdTW1rJ48eLopZHL5UjozCDzWxgzBIAVBqCjq/NAySsRyKP1B4mFGIUpk6Gkls1lsGwFsoT0stgyx8zJjZx+8gymTyiDwn6K/duprspRU1NEBJ04YhCbcDhiEEcM6c9BHfozgM0Ajh4ug9F0+H0AV4XzE9H0EA4ZbLLak+3p2ErjyIk7sIwUSfjdqOaRZBkup+vAh3+XitAJZCGEAyKsp2m2GEE7i97qELFc5vjD1djYGOWKZzIZxo8fz4wZMyKpwDgrhoaGkFKyY8cO7rvvPu644w5WrVoFWtJpamritttuY9OmTZHzKJFIRM4E13WjN755AKW2xdnao+k4DtOnT+fw4cO8/PLLuDEboROzE76R+J/Y56tBxsqmKW0SkDq4u1gsUiwW2blzZ5QO+clPfpJLL72Ub3/72zz++OPYts3ixYsZPXp0FOYUJ69XgqtTQaWUjBkzhk984hN85Stf4dJLL2X8+PHRixFdQjCTyfDrX/+av/u7v+Nb3/oWg4ODlJeXR9dSxOIw4y8MM89MV1VVMXfuXD7+8Y9z0UUXgZZ2s9ksDzzwAC+88ALFYhHP86isrIwk4VeChQxAyjArx7IIfImS2vON5htNI6DwZYASkqKf097jHHh9NFQpFs1pYVJLBQTd2GKIRNoDfwClMjjJkGSO4ljKMduP7204qZljQhffEGZJFX6GBKkl4ogk9TrmuzL71ts1IUZmNmEGkCJu8yQKfRLCISxU/+o3x1sV5s2rYj11zI1+3nnnMXr0aKSUdHV1MWrUKMp0fxXjFTWS0+TJk3nHO97Bxz72MT74wQ8yd+7cSFrZt28fTz/9NI6OlxscHMTSzpw4UZoHIq7WmnmTJ0/G933WrVsXmQIMhpP9XwpvxD7+OzA2UPOb+jpMJ5/Ps2rVKr785S/z5S9/mVtuuYWDBw9yxRVX8OlPf5rvfve73HrrrXzrW9/itNNOi4LJ/9j5qmE1KSsqKjj11FP55je/yde+9rVI4la6wryx5+7fv58777yTf//3fyej2zsrLV0ayc8QpoyFvSmlKC8v56yzzuKf/umf+Ju/+Rs+8pGPMHPmzOglu2vXLn74wx+yd+/eSBAw2UWvBMu2gcDDInTauLbAAl1Y9yjlKGXkLoWHxHZAySwJkaXMHmT+9FqmjUtiF9tQhUNY9GCLIQKG8EWegKNFK45RkX9PEjyqLh91zmiyVLq0XPSpA86NNGj+FqtrGZGi2Ue0fUOaHP1uyFN5KGUcRQEoCHBRViKMF9WEaWRKwduLP40kZ25W86DMmzePRYsWMaR7Z3d0dEQ3tiGpQBvi165dy/79+1mxYgWf+9znotjDmTNnUltbGwWqO45Db28vCV0px9UV2I1x3qhLZtvmQRg9ejTz5s1j3bp19PX14cT6pw9XZ98I/DEyeaNh1M24ZGbbNkeOHOEHP/gBX/va13jwwQdpb2/n3HPP5aabbuKrX/0qV155JSeddBJjx46loaGByljveOOgeTWY38y27cgO29jYyKWXXsrf//3fc9NNN/HhD3+YefPmRfZEIQQDAwPccccdbN++PfoNzYs7DnMfKP3ibGlp4eqrr2bRokUopVi0aBEf/ehHaWpqitZ/6qmn+P73v08mkwH9IjHrDx9WecpFekUsrXInHAdLWJpDQg+Q0mSpUGHeuVQ4CQtBAUsO0lxncdzsUYyp9UnTRbk7gEMfpVInllPATkp85WlyNIUrYmSp55sukKF5QAeCK6NG6xGRpCFInf9tlo1ILywDdyxpxsiYUHI8Oh0jZ3xQJaTydW69IMABO0zXVNg6I+ptxZMRjERiYAiorq6OM888k3w+H9mxCoVC1JQqTrDbt2/n4Ycfpq2tLZI0zj33XCZOnMjkyZNpa2tjcHCQVCpFU1NTpJr7OvPFFGAwD76RlKSUDAwMcODAAWbPns3evXujog3mATHL/iVgHuDhD9qbDSqmIRj4vs/DDz/MD3/4Q7Zu3YqUkiVLlvDXf/3XUZxieXl5pDEYbcFIdH8MJrg9GFYAGv3bmCywL3zhC3zpS1/irLPOIp1OEwQBruuyf/9+Nm/ejBVrzTFcW4hLmLZtU1NTQ0tLS+RRV0px3nnncf7550Psd/rFL37BHXfcEb2Ih/9+Zlg1lWUov4jyPfxSCUvEiEDFFWUVCmXCIcBFBuBYFrKUZeq4BqaMqaRcZKlM5LD9PtJOgaQr8fwCUkicpB3LoQzJKSTO0EsdqdSYAB0jLZpiH9o5o+XcMObTfGri1NuK1v1DEib6Apv50TDr+kCJQAVhmTocPJEkEGkUSVChT/z3/ZN/mYfwzQRz4wwnHEuH+Zx00kmMGzeOgwcPcuKJJ1JWVoanaxwa6a+qqooZM2awevVqPvzhD0fFHYIgYPTo0Vx33XVMmDCBRx55hKeeeort27fz9NNPc/3117NmzRo6OzvZs2fPMcHbgU45tG2b/v5+XnzxRWpqahg1ahQPP/zwn/SAv5WhtCRWihUhPnLkCL/97W8ZGBiIXoLz589n+vTpkSMkLpV6sfqV7mvw2KfTaQ4dOsSdd95Ja2srQjubDIGiHUL19fWcddZZfPrTn2bOnDnYsV7vPT09CK2xoAkyjvgLSmmp2URKKG0Db2xs5P/8n//ze9v+9re/zR133BEVKn4lWFXlSYT0wffwCgVUYKQwTSNx0hQgLBelkhQLPknHJSjkmNBcR3VC4g0dwfb6oTSAkHlcS5FIOAjLxg80OQ0jy4jAlCbNiNQ0kWqJ0pDlMcSpydL83ajnEYkeQ4T6U+l5cbKMiNiMUKVXSuFj4YskgUiFhCmSYbV37N+XMN/6fIkYVi3cH9Y7vLq6mrlz57Ju3TpmzZpFbW0thUIhUptt247qVfb19bF+/Xq+8pWvcNVVV/HlL3+ZPXv2MG3aNE4//XTuv/9+rrjiCr73ve/x+OOP87Of/YzPfe5zPPfcczz55JNRPrKIBUXbOoYwmUwyfvx4Lr30Um6//XYymQyFQgGhVULzUP0lEX9w34j9vR6YF5zxPAtdqPfll18GTYZSSpqbm0kkElHWlLEhGtOIaYlsln81SClZu3YtN9xwA7fddhv9/f2Rs8i8TM0LzdGpl0uWLIkqVKXT6UhNN7GhxK5zfNrcp/l8noQuXGLMMo7jsHTpUj7xiU8wceLEKHSot7eXf/iHf4ickK8Ea+qEcVjSQ6iApOMg/QCv6CMDiZRhlSIpdSc7pQgCC2QCSyUp5kpUpcuY0DIaKyiSICAlFOmkEzGsX1KUShLbco/GO+rURCM+RyXlpK7irpcxqrmUPlL6qPgIws9QJQ9Cu6WejoYM9HJSFwWWYdHgY7YV6GG2GXrYlR8glYXtlOOpFCJZQ3nNaOzyeoRdhoVzrOvn99jz7QFHp/gRC3eZN28emUyGnTt3snz5chzHiWLdjJ3rwIED9Pb2UiqVKBaLHD58mO9+97u8853v5N///d+pra1lyZIlJBIJfvnLX/LNb34T13XZtWsXq1atYuvWrfzoRz/i4MGD0QOktNRUU1PDBRdcgKOzhrLZLHfeeWd0zObB/kuQmHmIjRRUKBTo7++ntbUVN9Zut1gs0t3dTVG3zzUPrZkOtD32tSCbzZLP5yEWrG0kMDvWqvfJJ59kcHCQkq5CbqQ7g2QySVVVFU4smuCFF16go6ODpO4Caq5zPp/nyJEjdHd3R8eZTCZ54IEH6OnpYWBggIMHDzIwMIDUKrxt2wwNDZHJZHj44Ye56667ovhcI2Wal4shYEc762pra/E8j/nz5x9jghku8cZrCBjEC7cYVFRUcN5550X1U00xmcHBQT7/+c9z5513MjAwgNKmC3Nc9qf+7qab1mzYDE6KAJsAfQAKLW2FCPlPhOqocrGlxFElUhRZtmgaDeU+VqmLlDUA5IESYe8cGylcLCXCCuta5Vbay33UARQ6hMCkWGrVXB1r9wwlyvg8o5LHVfxw2lSND+2b4VkcK8Hqv2HUdf12skL13g+S+FQQUAduM4nysVip5igtkjhPRgevP9+mEEJQUVFBUVeXOfXUU9m5cyd9fX2RPSqZTEbVeHK5XEQO5eXlDA0N8cgjj/D0009z6NAhDh8+TC6Xo6GhgVwux+jRo2lqamL+/Pk89thjbN68Obrpzc0NkMlk+OY3v8lPf/pTMpkMe/fu5ayzzqKurg40uceP+c8BFfPYG6mtWCzy85//nJ///OeRJG7p6kpKd5U0rSeIxSsagjHE8IeOsVAokE6nI2IxZPjMM8/wi1/8goMHD+LqAP9isUgqlaK6ujpKQ5WxjBrP89i6dSvr1q3D1k69/v7+KKbRtm3279/Pli1b+PWvf80tt9zCmjVropCvUqlEa2srd911Fz/4wQ/43ve+R2NjI/Pnz4+uS2dnJ/feey99fX28/PLLdHd3U1tbG52r2dbg4CDPPPMMt99+O+3t7eRyOS655BKuuuqqKETNbNPW9Qt6enq49dZb2blzJ0J7/T3Po7GxkbFjx5LP50nqTDFzv40bN47Dhw+ze/duKisryefzZDIZnn/+eY4cOUIqlYokU6UU9me/9JWbNrZuI+8LAmXjSysiF0MgkYVRKJBO2JlRBtiqREoUOHnxdOrLfSyvm6Q1CBRAeKE3WThAAgFY+FFokIicOproIsLSqrIhONAqsnHqaHLV60V/M3+PPo+q5eEe9b4ilTz2qcKzBB1OZYfbLvkpPFVJYDVgp8eSqpiASDYA5aDCvJ6jt3GUBhTNeTvCPOBjxozhkUceoaOjg2uvvZb169fT09NDQlffGTNmDKNGjeLIkSPH2CHRQesTJ07Etm3Ky8uxbZu+vj5SqRTLli0DYM2aNVHh4QsvvDAqEyd1pR1X15GsqKiI6msmk0mWLl2K1CplHH+IkF4vjDNiaGiI559/nl/84hfceeed9PX14evsJEOk+/btY/Pmzbz44ots2rSJbdu2UVZWxpgxYyKJLoh5hF8Jrk4ZNCE4HR0d/Od//if33HNPlDigYhEEW7ZsYcuWLbz88su0tbUxevRoqqqqsGPZNk899RQ5nbefy+XYsGEDzzzzDI888ggPPPAA9957Ly+99BLV1dWMGTOGvr6+yCQipYzCwE444QQuu+wyxowZQ0pX4Te53kEQkMvl2LZtGy+88AK7du1i9+7dUcbXr371K+666y527dpFIpHgpJNO4qabbmLSpEkEOq7XvHwGBwe57777ePDBB6M8crNMPp+ntbWVXbt20dbWxuHDhymVSlFtA0OmBw4coLW1NZJ0fd9n27ZtrF+/no0bN/Liiy9y5MgR7E999u9u6hnMsf9QF8XACj3BSoUPvjiGbpAILGVradHDVgUSIs+Jx02jrsJH+D0krCGEKIAIJcwwSMnRkqEfkaGRCsPpuKSnvdd6z6F0GEqmcbI8am+MEWVkoyQmMRpSDOdH+4nWM2d3lDyFBSiB55fjqSpwR5OqnIBbPg7salC62ZO+TOEw23rlG/vtAvNwVlVVkcvluP/++znrrLOYPn06mzZtilTHrq4u+vv7yefzjB07loqKCjKZDLNmzeL9738/H/nIR7jyyis5/vjjmTZtGh0dHezfv599+/bR19fHwYMH6e3tpaamhgsvvJBx48ZF5IFWD8ePH099fT2JRIJt27axe/dulixZwpQpUxCvEPT8h0jptUJo+6gQgtbWVv7xH/+R1atXRznWzc3NNDY20tDQQEtLC+Xl5RSLRQ4ePMjmzZtpbW2loaGBhQsXRlKNkfT+EIxUa2yRzz33HF/+8pfp7e2loqKChoYG6urqaGpqiuJih4aG2Lp1K1u3bmXx4sWMGjUqCtsqLy/Hsiyy2WykspdKpUjSNEV23/ve9/Lxj3+cs88+m97eXjo6OiIiWrRoERdffDGf+MQnmDt3LkKrzuiXYnt7eySxFotFOjo62LhxI6tXr2b16tU8/vjjbN26lWKxyMSJEzn33HP52Mc+xsKFC6NrQkxLWLNmDX/7t3/LY489RkJnRiWTSWpra6mvr8fWdvPt27ezevVqcrkcS5cujcwOEyZMYOLEiaxbt45sNosfcxAODAzQ3t7Ozp07w5fS3u6M2nUkw60/+w0dAyXcigaKniTQpGS6NEogEAI7cHCkjS0L2MEQFaKfv/7gxUxtLmJnd1BlHcalDxjSXnEHJZJh729VOJacYp+RlKm05IleFBk2REOG/GTIMnLUxMlv+La1hDmMRIUK1fWjpEpMekVXYxfk/FoKajR25SwqGhZiV0wDqkHFUusisgx0fOYbH+P3ZoIhLCklvb293HjjjWzatIm///u/Z/Xq1dx6661ks9ljSGDp0qWUl5ezfv16LrvsMj7+8Y8zevRo0uk0uVyO//iP/+COO+5gy5YtWLp48fz585k1axYzZszgsssuo6WlJSJr80BlMhn2799PY2MjN9xwA7W1tXR0dPCFL3yBGTNmIGKqbpws/1TiNPtHvxCee+45stksLS0teJ4XSUXmGI1tLZfLkc/ncV2XefPmMWPGjGib1iukQcYRl4iEEBw4cIDHHnssqtJuwoCMWu7qrCcjeS5dupS6urro97Asi+7ubjZu3Mi6deuiWNry8nLGjx/PxIkTmTRpEqNHj6asrAx09aEXX3yRw4cPM2HCBKZPn87kyZOpqqrC931SqVSU+hgEAXv27Ik6fB45coTDhw9TKBTo7u6OWiyXl5czZcoUZs6cydSpUxk3blykiRiiM8e7fft27rvvPgKd716uq/GnUqlIk0gkEng6u6elpYVFixZF6rnZ1urVq3n++efp7++nqqqK+vr6qDBHKpUK+0915vOqOw//9eBa1mzejSfKKAWKQCoUAUqEdCkBKQRuIHAlCFnAlhnKxCCf+uDFTG32sHIhYaaUJkzQjJIEESBV8VhSi5GlilRzdPzkUSKLS6ZHpUhNmvHccL18tA8ZGhPC+bH9RtJtfB2i9FCkROBQoImi1YJbM5/yhoWQmACyIuLYo9Kl9qpjIfjL5Sm/2aG0g9DcgLZt89hjj/HRj36U008/nQ9+8IP80z/9Ew8//HBEcIcOHSKVSpFKpcjn8xx//PF87nOf48QTT0RqB8jXvvY17rrrLjo6OhDa8bBs2TI++tGPcuKJJ0YFH2zbjlRTYws0Y9u2bVRUVHDjjTcyZ84cPvrRj0b2zD8XaSrtrHB1OmgQC3UytkazXJzkVMy+aM5B6XTFOKm/Esw+DAkbh5EhWUMItg6fsWM59QaGLM1yRsXPx9oVJ5PJ6PiUfjEY26fZdiaToby8nIT2SpdKpWjbZpuO45BMJiPThed5FAoFPM8jowusGKdTeXk5SZ03bkjfnKulHTFCR0gUdX64OUdjn1W6doDjOOTzeRyd6CBjXvlAmwfKy8vJZDKUSiVcXRkrmUwyNDSE67qheejzK1feFNhgp+o5cPAQvX1DIUmh1WZja9S/ma0CbOUhlIdQRVxRZOnxM6grDxBeD0kxiCPyCEqauISWvDjaSjL8dbQqbrzhmuhEKEnqLmThccSkv2MI95jvejqaHUqYobSoSZJ4FzZD0FrdN/sWEj9I4KtKAtGAcppIVE7AqRgHqgqkc1TrjgjTyODiLV8P89VgHm5zIwohGD16ND09Pdx9990sWLCAE088kc2bN+PpKum5XC7ynAbasD5r1ixmzpyJrWMqH3jgAdatWxcRDEBHRwc9PT1MmDAhCn0xsLXNz9UVbhxdGLe5uZkpU6ZEkuq0adOi446fw/B5rxVmnThRosnCkJ8pZmHrYhUiVmyDGHmZeX/sOOLXXGmnV/xaBLFq7cSuTfw84w4ms09bS1UVFRWRmm6IxuxH6HAgQ6IVFRXRecuYh9vMc2KVz80yrrY1J5NJGhoaqKmpobKykpQurmyug60J2Jg8jNrseV5Ewvl8PvLymxeOIchSqRTZhc02RCye09Y23EQiERV3McdvXgC2bWP/zcqVNwkB5WmHyrJyhvq7KGb7sZSHkj6B7yF9HyXBQuBaPrYo4pdyJITCCgosmTeN+goQxU7S1gC2yiDIh6QlQ886gYUILIS0dChmWB1IUgLLx07bgEfRL1IKPHwpUZbAFRYUg7DpeRBKjaH6HBKfCsICGUKqUCv2AV+Ey6oiUERRQgkPiRfmiONBUISgFLXWVVZAYPn4tk82GEuW2dhlUyivmUGibCJY9UDFMWQpzdDd0UFgvY0JU+nQC1+nlhlSmDt3Li+//DKrVq3itNNOI5PJ8PTTT0dhNegbVmr1dMeOHdTV1TF9+nRqamqYNm0a2WyWLVu2UFFREXk/9+3bxz333ENzczPpdJrKysrIjmkeZktX+K6oqCCXy1FXV0dVVRWrV6+mrq6O5uZmlG4pazzthhD+FMQfckNkcZJydZ9sW5OpIS5DSGYdM/3HEF/G7INhJBXfZnw5My9OSuZvw4chDEMkZh1DSOZ7/Bzin/H9mXlmHWJEbvBKxxMnuvgxm+UMIZq/x9eNH1/8GsTPa/j8+PHaRmL//MqVN9lA0oXydDllKYeB3i5ymQEsGZCwBWXJBI6AwCsQlIaw8cKOkCjSjuLUpXNprrGh2EFS9OOQQ2DabVoo5SCioryhtCcIECJACR+lArxiIewthEAIF8tKYVspLOEiAu2JETZYNtJyCIRDYLnYiTKEkwInAU4S7ISeToCVACuFJIWnUvikkKSBMpRMg0ojRBmKcnxRRmCV41tlePZ0VHIWbno0ifQoLLceRAWgPaumyLwOKAhlcIn1NidMc8Obm86oTCaE5b/+679QSnHFFVdgWRZ79+6NbGlm2fr6epYuXYrS9rbm5mbGjBlDqVTiN7/5DblhhXQ93Rrjd7/7Ha2trTQ2NtLY2IjSqpini9Tmcjn27NnDrl27mDFjBs888wzPP/88c+bMiSq1m2M2UtlfAubavJnw5zieP8c2/hheaR/xea/0d4NX+9vrgf3FlStvEtpVkU4JGuvqGd08ivraGkTgUcgMglcgIRRljiDlQjpp4yqFCIqUu4qlC6fRVCWg1EmCkDChEDILFihHq70lHW7kgwhQUUiQwLISWCKFRRpBGUqmCDyXkm9TsKFg2RStBHmRoCCS5EWKImmy0iUvHXLKJi8tCkqEe1cWlhiFDBrJ+zUU/VoKQR1+UI8fNOEHdXhBA55qpKQaKMlGSqqJomoiUTaV8qrxpNN1OKlqcMpC8o0RphD69DTCMw3/jSCUEFQsb3vcuHFkMhl++ctfMnHiRP7qr/6KnTt3Rt7VlM7cyOfztLW1UVlZyYQJE6ivr0cpxdy5c6mtraW1tZXBwUEc3brAeIi7urrYtm0bTzzxBFOmTGH69OkIbd8yywotdY4fP55x48bx0EMP0dvby7hx42hoaEBoFS35KtVqRvD2hsjnh1So7VpIYYUaNJDJw5GuAbp6B8gVShRKPoWiR2ABjkVQCsAr4cgsp584lYZUH97AJsqtNhL0gBrUZOkiSeuUxnwsbtJ435W2cToo5aJUAkhiiRS2lUQ5KUpuggAbpaxQvTdtJNChIUICfuiJF35ExBVUYwVJihI8XUAjlAFtLCmxpI7zFBaBJQgsi8CySJc1kEjXgZUCOwUkQCVBJcJjjZGlLuoUOZfeLlXX/xDi0qKR2IzN7uWXX+YTn/gESiluvPFGBgcH+fSnP82RI0cidcvV4TFBENDU1MTpp5/Oe97zHubMmUM6neYb3/gGt9xyC9OmTWP+/PkcPHiQ/v5+tm/fjq2dK+94xzv4xje+wZgxYyLJwtL2t0A7Y6SUPPLII/zzP/8z73nPe7jqqqsip4I59hGMYDjslV/425sspRCBB4FPQjjYCFI2NFSnGNtczYSWOqaMbWDahGamTWlm8qQmZk5uZs60McyYNJHGShdK3fj5dpJiAJs8UIzkLqnsMMdbZCMJMwxXUlpVtwh8m8B3UNLBpgzHrYZ0LSI1GicxDcuZiOOMx7UnkLAnkLDHhyMxkYQ7nkRiPMnEWNzkONxEC4lEC7bVCMlmnPKxJConkSyfRKp8EonyCbhl43DKJ2CXT8CumIBbPpFE+STc8om4qXotVaZAuDr43tKiJVq8DGG4UzDykBnECUfEvMHl5eVUVVXx9NNPMzg4yLJly1i/fj2HDh3C0vYw48m0tcd306ZNPPvss3R1dZHQhYRN4YbJkydzyimnsGTJEhzHYWhoKApaX7x4MRMnTgRNlp7uRYMm9VKpREtLC/v27eOuu+6ioaEhCpY3pDmCEQyHvfILn7sJY5RFF1aQobdZIEJbpYCEDbYCxwJbz0sKSNvgkEcWupGlDlwGsEVOE2aobitcBH7oCIp5qkM1PdyPZYfSX0hMCksphAxA5vH9TqTXjvAOQakNUTqAKO2D0j4o7kGV9iJLe/BLe/GL+/CLB/BKh8kXfTzlYrll2KkqhF2BssvATiEsF2wXHFfbPVMoJ420UwiRQEgblAtoshSaLCE6LzAppDG8zZ+zV5LO4iQ0duxYurq6WL16NQsWLMCyLNauXYvQ6rATCwcpFos0NTUxduxYnnnmGdasWRN50nfv3s327ds5cuQIdXV1LFmyhAULFtDY2MiMGTM44YQTorJwZtt2zHv70ksv0dnZyQknnMC+ffv42c9+xqxZs5g6dWpk4B/BCIbDXvmFz98UPuUKFQShb8USWEIhvRJIiWvbIZXJMNzItsJoQzuikzyq2I2Xb8e1BrBFXtswCZ0+2JowC1EMpMncMY+W7+vakzrUCOlDUET5AxRye5HF/ah8G6qwH1nYiyzsQxX3orz9SG8fqrQfWWpDlg4SlA4SFLsZytsUVTlWsgInWUVAmoBkqN5rEhRC57tbLoGwQmVeClRgo5QNSmh7pdBkHydF7f3hWA59O0PpWESlPc2GsPK6akwikaC6upoNGzbQ3t7OggUL2LRpE319fZFNUsbqGTqOQ0tLC0VdTcb3fTo6OqiqqmL58uU0NDTw3HPP8eyzz5LNZjnxxBM5/fTTmT59euQpNSElJgQGoK2tjdtuu4358+ezfPlytmzZwqOPPsrMmTMZN27csLMawQhC2F9YufImIezQC22FpdjC3EAby7ZDyU+TQEikYImQAi1AKB8hCqhiD16+A5sBLPKhvVKHRUpp6/RGT1MzUZxk+E3HAwkfS3jaw55HkUPIHElHkfCKuMrHsSW2KmLLAlZCYXlZLMvHtiSO8rF8D0dJEsKhpMrxRYqamgZct5yAhA4st7CExBYBQvgIoRAIlPZwC93LzLw8sKxIGj4KoW20MYYcIcxIwoyrtea7Cc+oqamhubmZhx56iFmzZnHuuefy29/+NkrFIxZmpHRPlsmTJ1NZWYnv++zbt4+cLgihdKGGHTt2sGfPHtavX8/atWvJ5/OMGTMmig00x6B0PGJNTQ1dXV3s2rWLs88+m0WLFvHCCy/w2GOPMX/+fBoaGvB0AQ0T/4eOqTTnNIK3H+zPr/ziTaGcZ4GwdLmLo7a64feFEApL+ZHNLmxhW0SV+vCKHTgiVMlD0gvjMMMMmDCUKITSw6jmEpSvyctDUEKIIhZFhCogAj+UOG0FlgSvQBCUsCxFEBQJ5cKwpJtlBooSlQRWBVXVzVhOJYoyXWXIKP+hsyiUagVgR1MWRy+D+e8Y0hTGfBDDCGFCjDTNNNqOGOhskGQyybRp08jn89x3331cdNFFvPe97+W4447jxRdfjIjKkNVnPvMZbrrpJi677DJOOOEEpk+fTldXF1u2bKG7u5sVK1YwefJkOjs7OffccznnnHP41a9+xZ133kmpVGLKlClUVFRQ0sVybdsmnU4zZswYent7mTp1KuPHj2fq1Kncf//9rFu3jiVLltDQ0IDUwdXGcRUnzxHSfPvB/tzKlTcZGjA0FociRgTCFE0PNGGIkKhECVnqo1TowBaDWCKHRSGWjWNrVTxWti0iSxWSJT5CaClUlEIbqChiCY+gmMeyADf0UGcDKAgHmUgRuEmKwqYkFYEKwPJBeEgV4FGPErVUVrWAU4dQ1Zoqwz7i4Q0fBpyHBUKcsOX40dOPvTBCIg3/aoWeerOkWcZcpxH8HpSuoVhVVRURzYwZMzh06BC33norn/rUp5gzZw6WZfHEE09Enmx0SbDZs2fT3NxMc3Mzp5xyCpdccgnnn38+6XSaI0eO8K53vYuLL76Y1tZWDh8+zLvf/W6mT5/Oyy+/zC9+8Qva2tqYMGEC1dXVkVpeXV3NggULENoxlUwm+dWvfsVTTz3F3r17mTVrFo2NjZFkrHRQfjxGc4Q0316w/07HYcYHw577358OdLtZKyQcq0SgCdPSEqalC20I0A3VlJYEj+aQG3o2pdpMHUyQWLFp3y+CY6OsBAWVwrNqsMrHkKyZQKJiDNKpxJcWfhC2aLMsD2FJPBpQ1FNW1QJOPUJVIES4+/Bchc4DJyR1ZYcvBCNgHz1hfe7iKFmKmBPolS7gCH4PRmo0anE6nWbixImsWrWKtrY2li5dSlVVFdu3b6erq4uKigoCXd3mV7/6FZs2bYrsotlsFsdxGDNmDP/0T//EPffcw8knn8wFF1xAfX09999/P2vWrMGyLA4ePMhdd93F2rVrowo+xhFlpM607hHk606TlmWxbdu2qKqQr3sJvRJZjpDm2wcim88PFyoh9twLhoudKuymKMJ8VaV8hDVEcWgXuf4NJNhPgh5c+rVUKZAqDAQWeMaAGZGmqVBk2kKEdk1DrOF0IAtIu5yiqqYkmrDKJlBWPZFEeVOoWHu9ZPv3UBzYhVVqI2kNknIF2dI8fGZSN3YppCaDqgVL1xXSnIfQjigckInw+GLCY4RhVyluujyG/Ier6SOIYOIgDek5joPv+2zdupUPfvCDXHLJJbznPe/hiSee4Cc/+Ql79uxhYGCAki7iYEZStynI5/N4nkd1dTW+71MoFJg6dSpnnXUW7e3tPP3003R2dkbOo1KpRE1NDVdccQXXXHNNlK9u6xCmgi5C+y//8i8cOnSI7du309zczPXXX8+ZZ55JVVUVhULhmMD2EdJ8e8H+4srP3XRsRfOYsHQsK8SgQNhheqBSCFHC9/rwCh3Y9GOT146fkAyVCkOFhPBBhImEERErK7QOSguhQikPZYO0wzJqSmDZCmSSYqkSJcaRqppHqnIeiClAE8KuJYGDLOWh0IsjcyRd8IIGAupIV40Btw5UGmWF+d/CAiECHf6kpUzhhGcuCOt5osXNYddBoWdHc3SHyhHC/KNQsf42hjTr6+tpaGjgnnvuIZPJcPHFF3PaaadRKBTYvn17pAaXSiUqKiqorq6mv7//GKeQsVH6vh81P+vv749aMqAdSYVCgT179tDd3c348eNpamqKvOlJXf28ubmZF198kQ0bNuA4Dhs3bmTfvn1Mnz79mLayr0SWI8T51oa9cuXf3nSsinxUWjqK+E0Q6rNhWI4WyEQJ39gwGcAmi00uFmepVXcRHC23BkdVXKnVXGWH1X5MRo8MCRM7wPKSlLwasCdTVrkYy52B56XwiikcuwaBi1MaIMgdwZGDOHaAp+rxRR1l1WPAqQ0rpccJE19XVTqaoqmEExI7YQXp8Nw1CZpiSCaX3MwkTPMUvL2rFb0eOLEKOkopJk+ejGVZPPzwwwwNDbFw4ULGjRtHa2sr7e3tkfpcKpWirn7G+z00NBSRolKKjo4OMpkMAwMD5HSDrtraWubOnUtLSwu5XI4tW7bQ3t7OnDlzaGhoQMVK0zU2NjJu3DiCIGBwcJD9+/ezevVquru7aWxsZPz48fAHiHKEMN/asFeuXHkTJqwoGpEIprkyfhOEBGLmCARBkMcP+pFBL0HQg+sUcEUe/BIEPggLYVsIFejYS6NuhySKCJDCR4mAQEikkEgrlNssUUBYfVDK4asEdqqBRPloRKISRArLAcsqgH8Ild+NKu7CkkdwVIZBexaycj7lNaPBKQfLQeHo0ChD5I7OEXe1c8o4d2w9jO4enno0Gdk5zb+w9IZZewS/DzGsEo8Ztq5qNGHCBHzf5xe/+AV79+5l0aJFLF26lE2bNtHT0xOp8uYTLaUaL7YQgpkzZ7JixYqo/NvkyZPJZrMkEglWrlzJpZdeiud5tLa2sn37doIgYObMmVFfnFKpRDqdprm5mTlz5pBKpejq6qKtrY1t27axZcsWstksDQ0NUdGOeFC8kT6N08qco5ln/j4c8b+Z9E3jnAq1uHAb8QiCEbzxsFeu/NJNoQRlRkgDx4z4V44KoEITh5RFlMog5SCe14sjitgUsHwfgpAkUZofIXLwICSoAEVIlqauZFj7R6EEWBSx1AAIC4s0JZmmJF1sJ4FTlsSyS+B3UBzcRSG7E+G3k7AGsGwYShyHqpxHqrweiwRKmKpCptGbCElRmDB8dA1Q6yhZmpOOX45hl+QoYZoLNILXguFkkkqlmDRpEmVlZTz00EOsW7eOyy+/nEsvvZQDBw5E0mJRNxMz2wiCgAsvvJALL7yQZ599lkmTJnH11VdTW1tLe3t71ERr0qRJnH322Xiex9q1a+np6WH79u1s2rSJE088kdraWlxdodvW7XrnzJnDsmXLorCljRs3smbNGtasWUMymWTSpEmkUqkohtSsT4zojORqXhRx+LpNscmhL+nitWZZI/lauiFZWVlZZAs2hDqCNw6hhPk6oJQMvcyhiAaAENqjHZTwiwXwfZQvI8pB+uDL0FGkjD4rQu+4AkuBLcFSClsqLKmw9bStLPCSIGoQpCl6Hr43hGP34SR7QBxEDrWSG9hOUOrEsjwsO4UnagjKFuKWTSKdrETgorBDWynuseQWTRpzRIwoR/CGQOjGYK7rMn/+fMrKyvjd737HSy+9xCmnnMI111zDihUr6OrqYvv27RERBUFAWVkZ+/fvZ82aNZG6vXHjRoQQ7Nixg76+PqSUtLa2MjQ0xLhx4zj55JM5++yzWbx4MccddxyzZ8+mqqoKK1aI19LFeOvr61m0aBEnnngiCxYsIJfLRT1o9u/fT0tLCy0tLVHokZEQzTaM5Ojp1rGGQNFmBeOxz2QylJWVUSwW8XWBXICenh42bNhAOp2muro6WsfTjcf+kNQ6gj8/RP4PeMn/EGTgg5JYtntUP8UHmSUodpAd3Iuf24cqHiJl9ZGyhxBBBoIAy0ppj7QZvrYfmoLAmrAiQyHalplEKvCVQgkbHAflOCjLxXKSlHxJ4IdEJywXgYUvkzhNK7DLZ1GWrELgIpVNENgIEthWLChfoPdtPPRGHR/BG4V8Pn9MCwelFE888QRf/vKXaWpqYuXKlYwdOxbf9/n2t7/Nj3/8Y3K5XCR9mXUN6RgV2XGcqIuhUZEBmpubmTBhAo2NjUyaNIl8Ps+VV17J4sWLo2VNQVpzTGgTQKlUorOzk+eee45Vq1axatUq3vve93LdddcxZcqUqFq4kRBFrMxcfHvm2IUQ5HI5UqkUQ0NDlJeXo5TiyJEj/OxnP+NHP/oR+/fvZ8WKFVx11VVccsklURjUCN5YvG4Jk6j4L5owlWacBJZIYqkUgS8IfH3jW6DsAITAluH6R8kyPnQldKXrZaqSnlbgllMMSgRqEMcaIuH0YQVdyOJBStkjiCCPwCGgEk81It1xiPQ00tXTcRIN2CKsZalwovJwUVgRcWHSHJsxT4zgjYKRxJTORZdSMnXqVI477jiee+45/uu//oumpiZqamoYO3YsO3fu5NChQ9i2zdSpU7nyyivp7OxkcHCQYrFIRUUFF1xwAQ0NDRw+fJipU6eSSCTIZrMI7Sg6ePAgBw4cYOPGjezZs4dLLrkk6j4ZV62DIKBQKCB1lpDneZSVlTFr1iwWLFjAunXrWLVqFatXr6a/vx+lm4YZSTJuizTDnLOZ7+h+NKlUCqUUW7Zs4dZbb+XHP/5x1B87l8vxrne9iylTplAsFiOyHSHONw6vmzCFsghzz0WsPw6RLdAWaSxLO1GEpldLhIHu0o/kOKntieESxvmjPyPiCsCSBA5Iqwgij5JFVFDCwsa108igDKwGpBhFIMagkpNIVEylrHo6bqoJy0pHjh2BjSWs0OEjYkQZSZhxlXyEMN9IGGnLEIxlWfi+T1NTEyeeeCKZTIZbbrmFX/7yl2zfvp3t27dH5FRVVcXevXvZvn175H3P5XJ0dnayb98+HMfhpJNOIpVK0dbWdoxkN3nyZJYvX06hUOB973sfzc3NkWRohglWN+FHQNQQrKGhgdmzZzMwMMDWrVt57LHHeOGFF9ixY0fUcdHTHSMTupVtoCsuESNRI/0WCgUOHDjAj370I37yk5+QyWSic7ryyiu5+uqrSSQSJJPJ6BxG8MbhdRNmyCnG86GLZqBbSCgHSGA7FSSccgIhKAUST1lhB0pVIBCaCoXQPXEkUqgw51JIlNDVigjnSSsgJzLglMJKbLaNLZJAFYoGEC1IMQ7cyTjlM0jVzCJVMQUrOQbLTiNwUEEY22np3PhjyBIzHTMJjBDmG45XUlmNRzidTrN06VIaGxtZs2YNzzzzTOT4EUJQWVlJZ2dnlO9tSC6Xy0XOmH379tHR0UGgi3sYdb2yspKGhgba2tpYvHhxlD/uxepnWrHeNUrbNw3hCSEYNWoUM2bMoKamhra2Njo7O2ltbeXxxx/nhRdeYMuWLSjdN0jouqCJRAIZq8okdJbRgQMH+I//+A/WrVtHZ2dnZAJYuHAhN910E42NjZF9c0S6fOPxum2Yx2qtUpdxk6GEqdwwdhJAllBeNyW/C6l6EEEnpcE9oIooWULJElIWQBYQlHDsQHdwDCVOS3eKVELi2x7CcrBJhsHnQRm+X0kQVFBRMwkp6iDRgJNuwk43gluOxI682KZ77iveW7+njutzGbFh/o8hTkZoMlXamfLkk0/yox/9iLVr10ZZQFVVVVGYz4EDB+js7KSmpoa6ujoOHjwYNVozRCq0w6iuro5EIsHg4CBDQ0OccsopTJkyBdd1qa6u5uKLL2bhwoW4rkuxWOTgwYM0NjYSBEFE0FVVVdTU1JBMJslmszzzzDNs2rSJXbt20dfXh23bbNq0CSEEU6ZMoba2lsmTJzNr1ixaWloYPXo0zc3NlJeXs2fPHv71X/+VBx54gJJuc+t5HieeeCI33ngjJ5544jHk6uquk0LbSF3de9yYDsy1c3SNURnrTx53SqHNDnGnlZGqR3AsXj9hGo3ZCGEip+2PAkigVEp3hURXV8+BlQfZC8VDSD9PqZSlWByiVMzgFTMoWcC2AixC0gxrJkndaVdiOwHCcrHsCiynHuHUI+ywsEYi1YwSYWFgy0ki7CTCEqEQjD6OV0NEmJGxIBZSNII3C4waGwQBe/fu5eGHH+aee+5h8+bNzJs3j7FjxzJv3jxs2+b+++9nYGCAU089laeeeoo9e/ZEqrCt0yR936eyshI0qRR1X2tPN01Lp9O8733v42/+5m9oampix44drF+/nqqqKn7zm9+wd+9eCoUCjuMwadIkFixYwFlnncXEiROjFMt8Po/v+/zkJz/hlltuwbZtfN3Stq6ujvr6ekaNGsWoUaMYO3Ysu3fv5re//S2ZTAYAV3eY/MxnPsNf//VfUywWyefzka0znU6T0C11+/v7qampIZPJsGHDBurr65k0aRJSSlKpFOgQprhkaojXkKuRnI0UPYLfx5+BMIuaMGXYlwcXoVMalUKXdPPC5UQhdOT4BYJSDs/PEfh5kCUsS0uXsX7lAJayUEUVNklzyyBZCYkqSFSAlUaK0PsNYZFjk+YZEvYfaWZ1jMRp1HGjkr+SODqC/wnEpSeDnp4etmzZws9//nNeeuklTj311KiaUUVFBU899VQU9lMoFCK12khmUockGdshQDKZpFAoIHRvodraWj71qU8xe/ZsfvjDH1JeXs4LL7zA4OBg5KU+66yzmDdvHv/wD/9Ac3MzZ599NldeeSVz5syJwqQGBwd58MEHeeqpp3j88cc5dOgQaAna5KWbY8rlctE5mqLHjY2NUTO4uA10/vz5rFixImrH0dvby3333cftt99ORUUF73znO5k+fXqUBWUkTRPraV40cdssMXvyCH4fr58wI+nRDBkjTKHJxjQs06RpSqZJHXRpSc28xkMed/YQBrpH+7PBT2onkhWm6FgWvmXhi6PRlJauhmSbIh5SgUjrMnR/DMMvwQhZvplQLBYjydBImWiJqFgscvfdd/PQQw+xe/duLrjgAqqrq2lqasKyLFpbW7nvvvvYvXs3aHuhUT2HE6WRLhOJBMViMSJFQyBKKUaNGkWhUGDBggVcfvnlnHPOOQwODvKBD3yAqVOnUldXx6OPPsro0aO58sorWbZsGVVVVZEpoL+/n+7ubrZu3coDDzzAo48+ysDAAAB/8zd/w/Lly6mqqkIpRXd3N/39/Rw4cICOjg66u7vp7Ozk4MGDdHZ2Ul1dDUCpVKK6upqBgYGI6AcGBshkMrS0tFBdXU15eTkNDQ0MDQ2xY8cOhoaGuPbaa/nYxz5GTU1NJLWiTRdxAh3BUbxup48ynKivZ0hZOr1QGLufQoiQ/ISwIjoSkcfFCtcRCSAVdmQkBZQdHaocqAjzv2UyXN6ywbaRtoXSP2hYnlhqstR7UiFpH/XwDIeRJIfDvAVG8GZC3OGiYl70YrFIIpFg0aJFnHfeeSiluP3228nlcowbN46+vj6mTJnC+973PioqKqJYxlGjRrF3714AErqxmpE8bduOCNr3fdLpNPl8npIuAyelZGhoiBUrVrB8+XJqa2sZGhqitbWVr3/966xfv55f/epXHDhwgIcffpjvf//7rFmzhr179+L7Pi0tLcfYPDdu3Egmk2H+/PlccsklTJo0iUBnDI0dO5YFCxZw0kknsXz5ci644AIWLVrE/v372bFjBzNnzsTzPDo6OvB9n1wuh+/7AAwMDDBv3jyuvvpqLrroIpYtW8a4cePI5XIcOHCAAwcO0NDQEDnTXNc95kU0glfG65YwFaWwnS2pMB3QSJwYvlEgTEC6CPvi4By7nBYilQKpKwU5rv3KHEaYjh4namGZjYXDJDUezSLSP7gldcVjAzN9jIg8QpT/C2BUZ6NKG1ucpcOPTOjOzp07+cUvfsEDDzzAiSeeSE1NDS0tLVx44YUUCgV27tzJPffcw9NPP41SiurqaorFIplMJuo6KbUH3fM8FixYQHd3N5lMBt/3GRwcpKysjHHjxjEwMMBpp53GkSNHOHz4MOeeey79/f20trZy8skns23bNtavX49S6hhbY0tLC4ODg/T09ETqv9JN3wxZKaVIJpP4usdRKpWK1GljmjAvj2QyST6fB/0CiF8f3/ejF41Zxyz33ve+l5UrVzJmzBjUsED6EQnzlfEnEOYgkiyCKgTlx2jSkUZuhW0rQlihXVPaEIij+rmIkZkQSKkiRlTG4aJ0ISORQRFEZtNIwJXam62c0EMf50N0PQ1hqg4N/2OMgeMis+HSEbypUNI1MY06bYgg7sSxdXZPLpdj//79rFq1itbWVjzPY9q0aSxcuJDjjjuOIAh4+eWXefnllyPCEkJEHvaOjg4GBwc5fPgwtm3T1dX1/7d39j7JLFEY/ykCC8tghI0oYAJ+4FdjpCGxMvwN/pWWFiY2ViZGE2otIAZlw2qyKAFXYMFbODN3vXlv4Vvd+2afhsDODoeCZ59z5nwQj8c1WUWjUTzPwzAMptMpvmwufHx8zGg04ubmhp2dHcrlMq1Wi2KxyP7+Pq1Wi9PT028xQ6Vwg6Q3F5hyqQh0PB5rMlT3qgeI2iMSiejrKgSgwgxIslxeXsayLDY3Nzk5OaFer5NMJvV9yraQMH+N3yDMD0mGCSD2C4VJID+TvylOS8SvXeSsC/n+281qhX6d8QG6fRqyV5Lc73Puq3qH+a/FwS0jyhaFf34f38kyxH8WShkFoQhhQXYZisVi+o8+m83wfZ9Op8Pt7a2uwqnValiWRbFYJJ/P43keDw8PDIdDXdKocjevrq64uLjAtm0dP/XljHVFzipUMDc3R7lcxnEchsMh0WiUeDzO+/s7uVyOWq3G5eUl/X6fiawBj8kpmYrw1KGM+q0zmR6kPlN15kptq4MiZUc0GuVdDoebn59HCEE+n6dQKGBZFouLi+zt7bG9vU2pVCKXyxENVDTNZF5o6JL/O35MmCFC/F+g3Ezf9xkMBjw9PdFsNmm32wwGA11Fs7W1RSaTodvtMhqNSCaTpFIpnp+fOTs704PZIrIsUim4aaANW0xW8Si3WbnFivCUglNrlOs7C7j/6nqQ9Geypn0ymeg9lNL0fZ+1tTUqlYrO5Xx9feX+/p5EIkG9XqdarVIqlcjn8/qBsrCwoBVoiJ8hJMwQfyyU2x4kovF4zNvbG67r8vLygm3b9Ho9HMfh7u4Ox3EQQrC+vk6pVCKdTjOdThmNRvT7fVzX1Sfqn5+fWJZFoVBgMpnQbrdpNBp0u108z8M0TVKpFPF4HMMwME2TZrNJt9vFD6Q3eZ6nyTMIZTcyD1WRbSaToVqtcnR0xOHhIblcDsMwEELgeR7tdhvDMNjY2NAn9AAfHx98ytioctND/AwhYYb4Y6GUXTA+p1xopOvp+z7D4RDXdXFdF9u2sW2bTqeD4zj0ej0GgwFCCFZXV0mlUmSzWZaWlhBCkMlkKBQKJJNJncOpSjBN09R2GIaB67o8Pj5yfn7O9fU1lmUhhKDRaOiDK2VXIpEgnU4jhGBlZYWYbDO3u7vLwcEBlUqFbDaLaZrflK0ixJks71SKdF7mbyKzDkL8Hv4CbGCZdAuHW4IAAAAASUVORK5CYII=;" parent="1" vertex="1">
          <mxGeometry x="34" y="556" width="124.11" height="40" as="geometry" />
        </mxCell>
        <mxCell id="kOmin4emKqyUBwTHQekN-5" value="AI agents" style="shape=image;verticalLabelPosition=bottom;labelBackgroundColor=default;verticalAlign=top;aspect=fixed;imageAspect=0;image=data:image/png,iVBORw0KGgoAAAANSUhEUgAAACYAAAAlCAYAAAAuqZsAAAAAAXNSR0IArs4c6QAAAARnQU1BAACxjwv8YQUAAAAJcEhZcwAADsMAAA7DAcdvqGQAAANuSURBVFhH7ZZdaFNnHMZ/qVpTTWir6cfW4RYUaanUblY7Bm4X2xjthWOCul5Mh4gIKmFs66w36kQLKsyWkbmL0QuxjHVtWTcrKn7UBJpou8X5VWPtamnWdlisFRFbkncXMW/OeaNpT4jQi/zghfc8z/+c8+T9OjFZ7fWCGUiaKswUUsGMkgpmFFOiuzIrM11RTMp1mLGHT1VpWiQcrHBJFu2NFfLaZrPpfIDt35zjeNNNVZ4WM3YqU8GMMmODzZqbXbFXFbXUOFax+u0CAAYCj9j6WRErludQVppLSdECQiFBevpc0tJmEwwKXZuYDFLwipWVb+ZzxTesPjouU+7K8b6dAFRWteD2BnC3fcyr+fOkb7FYMJvNmjtieToRJKfQqcpxMRwszRRUS8A0W1ViCIXiviYGw2ssJGbFtpCYshkl5qeWleax5qPF5NjmceZCv2qTnWXmw/de5/MNxXT9PcKTJ5PSq627TI1jFQCt7b18UrkEgBPNPQwMjsOzNRvh6o37LC+2UVt3WWoSq71eRFrV1j/Ei6j4tFkUlBwTf10b0ektJ+8IIYRwdQ4Kq71e6rf8o5oqIb7e2yGs9nrh6hwUQghx8KhHetoMkaabyq+2lwHg6R5i045TnGi+pbWp3rGS0mW5AOza72LXfpccFZXJyRCVVS38+rsfgEN73iU7K7pJahzl7D7gYssXZzR3RZHBigsX8lZJHgDfHeumtb2X3Qfc2lqKli4EoKnNj7PBh7PBR1Nb+MUqVdtO4vYG+HJPh9QWv5Ep+01tfr7/yccvv92WmhYZ7EbPKMP/PQagdFkOKA8CGBoJ++vWLMW2IAOAivftupoIq8vDZ9+2TSVSezAW/afR+88D2X8euqk8+uOf8GyY/Z7NnG9Zr7X5ubVH9vu6tjDetxPL/Dm6mgg/HP6A9sa11DjKATjbcY+7/WNq2QvRBXM2+Kjed4ku3wgTE0GcDT7cngBuTwAAtzfAZsdpufY83UPU1nmlr6W2zsui16xcu3mfb490Ur3vkvSeV68y5QFrBPuiTK5e3AjAO5WNXO8ZVUumjeEDNh4Z5uixmJ9n0XlGeXnBcqPf00RIbrCMaLB/h8M7OFGSG0wzYtp+IiQ12N3+Mc523OO8e4A7ffHPqalI6q5MJkkdsWSSCmaUVDCjpIIZ5X+X55igIxQMWwAAAABJRU5ErkJggg==;" parent="1" vertex="1">
          <mxGeometry x="282.90999999999997" y="349" width="38" height="37" as="geometry" />
        </mxCell>
        <mxCell id="kOmin4emKqyUBwTHQekN-6" value="Databases&lt;div&gt;Datalake&lt;/div&gt;&lt;div&gt;Brokers like Kafka&lt;/div&gt;" style="image;html=1;image=img/lib/clip_art/computers/Database_128x128.png" parent="1" vertex="1">
          <mxGeometry x="457" y="536" width="80" height="80" as="geometry" />
        </mxCell>
        <mxCell id="kOmin4emKqyUBwTHQekN-7" value="Docs &amp;amp;&lt;br&gt;&lt;div&gt;Log&lt;/div&gt;" style="sketch=0;html=1;aspect=fixed;strokeColor=none;shadow=0;fillColor=#3B8DF1;verticalAlign=top;labelPosition=center;verticalLabelPosition=bottom;shape=mxgraph.gcp2.files" parent="1" vertex="1">
          <mxGeometry x="574" y="536" width="100" height="97" as="geometry" />
        </mxCell>
        <mxCell id="kOmin4emKqyUBwTHQekN-8" value="OpenTelemetry" style="sketch=0;points=[[0,0,0],[0.25,0,0],[0.5,0,0],[0.75,0,0],[1,0,0],[0,1,0],[0.25,1,0],[0.5,1,0],[0.75,1,0],[1,1,0],[0,0.25,0],[0,0.5,0],[0,0.75,0],[1,0.25,0],[1,0.5,0],[1,0.75,0]];points=[[0,0,0],[0.25,0,0],[0.5,0,0],[0.75,0,0],[1,0,0],[0,1,0],[0.25,1,0],[0.5,1,0],[0.75,1,0],[1,1,0],[0,0.25,0],[0,0.5,0],[0,0.75,0],[1,0.25,0],[1,0.5,0],[1,0.75,0]];outlineConnect=0;fontColor=#232F3E;fillColor=#E7157B;strokeColor=#ffffff;dashed=0;verticalLabelPosition=bottom;verticalAlign=top;align=center;html=1;fontSize=12;fontStyle=0;aspect=fixed;shape=mxgraph.aws4.resourceIcon;resIcon=mxgraph.aws4.distro_for_opentelemetry;" parent="1" vertex="1">
          <mxGeometry x="212" y="538" width="78" height="78" as="geometry" />
        </mxCell>
        <mxCell id="kOmin4emKqyUBwTHQekN-13" value="Agent" style="sketch=0;outlineConnect=0;fontColor=#232F3E;gradientColor=none;strokeColor=#232F3E;fillColor=#ffffff;dashed=0;verticalLabelPosition=bottom;verticalAlign=top;align=center;html=1;fontSize=12;fontStyle=0;aspect=fixed;shape=mxgraph.aws4.resourceIcon;resIcon=mxgraph.aws4.agent;" parent="1" vertex="1">
          <mxGeometry x="279.90999999999997" y="284" width="36" height="36" as="geometry" />
        </mxCell>
        <mxCell id="kOmin4emKqyUBwTHQekN-14" value="Agent" style="sketch=0;outlineConnect=0;fontColor=#232F3E;gradientColor=none;strokeColor=#232F3E;fillColor=#ffffff;dashed=0;verticalLabelPosition=bottom;verticalAlign=top;align=center;html=1;fontSize=12;fontStyle=0;aspect=fixed;shape=mxgraph.aws4.resourceIcon;resIcon=mxgraph.aws4.agent;" parent="1" vertex="1">
          <mxGeometry x="279.90999999999997" y="409" width="36" height="36" as="geometry" />
        </mxCell>
        <mxCell id="kOmin4emKqyUBwTHQekN-15" value="Agent" style="sketch=0;outlineConnect=0;fontColor=#232F3E;gradientColor=none;strokeColor=#232F3E;fillColor=#ffffff;dashed=0;verticalLabelPosition=bottom;verticalAlign=top;align=center;html=1;fontSize=12;fontStyle=0;aspect=fixed;shape=mxgraph.aws4.resourceIcon;resIcon=mxgraph.aws4.agent;" parent="1" vertex="1">
          <mxGeometry x="329.90999999999997" y="350" width="36" height="36" as="geometry" />
        </mxCell>
        <mxCell id="kOmin4emKqyUBwTHQekN-16" value="Agent" style="sketch=0;outlineConnect=0;fontColor=#232F3E;gradientColor=none;strokeColor=#232F3E;fillColor=#ffffff;dashed=0;verticalLabelPosition=bottom;verticalAlign=top;align=center;html=1;fontSize=12;fontStyle=0;aspect=fixed;shape=mxgraph.aws4.resourceIcon;resIcon=mxgraph.aws4.agent;" parent="1" vertex="1">
          <mxGeometry x="235.91" y="349" width="36" height="36" as="geometry" />
        </mxCell>
        <mxCell id="kOmin4emKqyUBwTHQekN-20" value="" style="endArrow=classic;startArrow=classic;html=1;rounded=0;entryX=0.5;entryY=0;entryDx=0;entryDy=0;entryPerimeter=0;" parent="1" source="kOmin4emKqyUBwTHQekN-4" target="kOmin4emKqyUBwTHQekN-8" edge="1">
          <mxGeometry width="50" height="50" relative="1" as="geometry">
            <mxPoint x="390" y="440" as="sourcePoint" />
            <mxPoint x="440" y="390" as="targetPoint" />
            <Array as="points">
              <mxPoint x="280" y="470" />
            </Array>
          </mxGeometry>
        </mxCell>
        <mxCell id="kOmin4emKqyUBwTHQekN-21" value="" style="endArrow=classic;startArrow=classic;html=1;rounded=0;exitX=0.5;exitY=0;exitDx=0;exitDy=0;entryX=0.32;entryY=0.144;entryDx=0;entryDy=0;entryPerimeter=0;" parent="1" source="kOmin4emKqyUBwTHQekN-6" target="kOmin4emKqyUBwTHQekN-7" edge="1">
          <mxGeometry width="50" height="50" relative="1" as="geometry">
            <mxPoint x="390" y="440" as="sourcePoint" />
            <mxPoint x="440" y="390" as="targetPoint" />
            <Array as="points">
              <mxPoint x="310" y="470" />
              <mxPoint x="430" y="500" />
            </Array>
          </mxGeometry>
        </mxCell>
        <mxCell id="kOmin4emKqyUBwTHQekN-22" value="" style="endArrow=classic;startArrow=classic;html=1;rounded=0;exitX=1;exitY=0.5;exitDx=0;exitDy=0;" parent="1" source="kOmin4emKqyUBwTHQekN-17" target="kOmin4emKqyUBwTHQekN-1" edge="1">
          <mxGeometry width="50" height="50" relative="1" as="geometry">
            <mxPoint x="390" y="440" as="sourcePoint" />
            <mxPoint x="440" y="390" as="targetPoint" />
          </mxGeometry>
        </mxCell>
        <mxCell id="kOmin4emKqyUBwTHQekN-27" value="" style="rounded=0;whiteSpace=wrap;html=1;" parent="1" vertex="1">
          <mxGeometry x="120.06" y="685.85" width="261.89" height="161.1" as="geometry" />
        </mxCell>
        <mxCell id="kOmin4emKqyUBwTHQekN-23" value="Grafana" style="image;aspect=fixed;html=1;points=[];align=center;fontSize=12;image=img/lib/azure2/other/Grafana.svg;" parent="1" vertex="1">
          <mxGeometry x="216.99999999999997" y="770" width="68" height="52.800000000000004" as="geometry" />
        </mxCell>
        <mxCell id="kOmin4emKqyUBwTHQekN-24" value="" style="points=[];aspect=fixed;html=1;align=center;shadow=0;dashed=0;fillColor=#FF6A00;strokeColor=none;shape=mxgraph.alibaba_cloud.prometheus;" parent="1" vertex="1">
          <mxGeometry x="134.11" y="697" width="48.9" height="48.9" as="geometry" />
        </mxCell>
        <mxCell id="kOmin4emKqyUBwTHQekN-25" value="" style="shape=image;verticalLabelPosition=bottom;labelBackgroundColor=default;verticalAlign=top;aspect=fixed;imageAspect=0;image=data:image/png,iVBORw0KGgoAAAANSUhEUgAAAP4AAACICAYAAADH7VaNAAAAAXNSR0IArs4c6QAAAARnQU1BAACxjwv8YQUAAAAJcEhZcwAADsMAAA7DAcdvqGQAAGglSURBVHhe7b13vGVVfff/Xmu308+5vUxlmKEpSNGAYiEiipWQx/oQE2uK0WjML5r42KJiVEw0xoBGjBpUIkEjguijBmvAKKLA0Aamlzu3nl52W+v3x1l7e+YyNB3m9fLJ+bxel3s5s8/ea6+1vr0sUa1WNUMMMcT/KMjVHwwxxBD/72NI+EMM8T8QQ8IfYoj/gRDdbndo4z9MaP3gUyXELvYxS6Xnkc20seohvXIJB0Ur3E/16isp/Pg/sMRuvNHzmX/+y/Eu/2tm3R3sXD6Gqb96L7njz6fRhZIXoeUyXatChEcpAjoxFCyaOkJbNhqIux1G3RwEQHb1iIYY4vAYSvwjibiI7ytkBjrYkHPoIAGbshyhNDJGW0mk5RBGHYqeA7k8aIFtS3ori6DBsvq3E9JGI7ABBFCKQIZ4UUhJacoaRrMZsEK00141mCGGeGAMCf9IIi5TkFk8IKIJcY8uICJAlRidPYaW9LCkQxA0GMlmkZUJetrFy1jU924H3cV2AEuAsNE6RgCgCfDRBLiOAz7QVaAUmoDQjlePZoghHhBDwj+SkA5u6GO16ow098PKQcYAKcxMr92AXxjHwiZUdSwBcnoDvszjedDZfy/EHSwbtAAQiKj/Va18YkDhgrRRUuCrGIUkwgaMmjDEEA8DQ8I/gujoLtXdd3DXP72P29//Vu58/ztg/w4iHwLLh/w49swGVCxRtKBRw127iVAWkFaMtbwXVvajAIUGbSGVQACx1GR0CYlDAAQe6IJDJCU2HlFnSPhDPHwMCf8IohMHjGYgO38Px7T3MlXfT8aJsV1FW7dBZihvOpHIj3HsgM6BvWTWbSKyC6Bj8n4N/8B2AEKtAIndt/BBaoIuCAVu3CATLZCJF3F1C6FAKO/QwQwxxINgSPhHECOZMpXRUVyaaF2lHVUJasuAxFV9dXzkmOPweyGOG7G0fx/ezFq0U0TFPhUrpDq3ixifSGhA4lh2f5EEtKUC3aVz649of+dqql//Aks/+iboLhT6noAhhng4GBL+EYTVBZQNjiQqO4SjWRZ6XdCQDTOEQUxpYoowjLEcQWN5GVGogJUhViEFAc3aMhrVDx2Guu/Nh769n5Hg19jx3a+z88ufY/4b/0711hshqNM6dChDDPGgGBL+I0Az6hIIgdAaES3T85eoCUEsBKK7BPpe4pG1VNa9DLuZ49juMo3OXmIHmkEdJy9hfBPzG59M2c4yM/d/Yfd2djzjaYzWl7jbzrFh913kYh9LZsCxOWgp/GWwoywj8X6IJxFug+n2AifEEdbyMjjT2OxEa/2QuQZDDMGQ8B8Z7DgmCAAhQThkMwVcwGrVYdtPqP/3jbR27sTaUCESgsiVsGcOS4ObyaTTXRibwO8G2FLSqS4yOlLGlxk8v0a3to/ugd2EHUD7VOiQj2qw/Sbq37+W1v7trD3+NMJCGaImUX0vVOvYjK4e7hBDPCCGhP8IkPNcsi5EMaA8glDTrdfZ89Pv8PMvfpzaf36DpZu/izxpjI7l0MxZeHdtR7VqOG4GEGhgYuMxLHQibMujuW8Ha2an6OQmGJMBVtxA1BfIWIAKyUQrLN/5Pf7rU+9i8T+vonH3f1N+zOlUCxVwemT8/YS7bkdTXj3cIYZ4QAwJ/5FARwgNMYCdwXFyZC2o6Cb2yn1k792Kv+0W5MYCfqZAJ5ujtG8fur4fRd9LrxCMbNzMClksy6K97x5KIxW6oxtxhUDbCsf3sTzAtsFyKRUE+sAdFPfdSfee/4bRGar5USg5VOwW4X03M1Twh3gkGBL+I4EfEEUQxn0vuwJyGZfy5DhrRitMyg52Yz9axqjxNSinQC6so5Z3AxEo2Wcas+sICuNILOTSHlABrH0MscgQWhbd5SoR4GsPKOCsO4Z1s+uZsCLspW0oLNzJtWgng0NItOun/Uy+IYZ4mBgS/iOBJbGdfjYtQM/v0Y0iyJXoeQUoWiDaqIUGhfUnYoUeMhvh778PCFHKJOYUK3izxyI0ZDsrBEvzuMecQqQctCvQ1UWEgka3Sxy4NKwCYXYKnSmQ95cI2y3WbtxMM/TohgKW7sMKqqtHO8QQD4gh4T8SuP2KOCEAHZLxLKxMESaPoVteB1ZIT/QQ21cY2fRYrI6gWwjpHdhO5LeNjWCB41FecyxKQRGfuQP7yKw/gTgOsOiSqe7Do81IzsNyXOT4OkqzJ1L1KjiqSXthLzMzG2iFGWKvgu0vott7V492iCEeEEPCf0SQKCDodenXwUZEALHN7oaiEXbxdYQ6WMObXIfsCLpuQHdlnjgK0apvHmgkhbEJlFZkRUR1aZHM2Awl18EVPmp5L7TmIG6CgkA4WIUxGlYGoXrUF+YgXyQkg12YwBMhvdqB1YMdYogHxJDwHwE6ocLV4FkuscwT6Cw5epBzKD32bLLjo0wtL9K+/WoobEKtKzPZzTFZv5tm4yCxbOMhUdYU5fHTmc+AcOfI3fpf2BMuuwonEYZlusGd0N5DzxqnYUOpMUfmzDPJ9CIyuWncW34IY6M0Np/ASNCiK7PIhfuIhaAXxYRxRJ/FKNCgNYTB0P03xC8xJPxHAMsUyltCIDUgNJGKQVoUy6P4EWRsiyDw0XEHKiNEliCOIqiuoIxvXwN2LoeTK4LlYYURurXC5LqNRJp+5t7cPqRWCMD2XLKFEjqTRwNRpwNakcnmAEmsFXG3gwBcW6Y+CHR/eYUAKYcpvUP8EkPCfwSQ0gEBQoj+bwRxrAGLqdl1dCObrANB2KXdmSezYQO+0ERhCPt2IKRC6bBv6hfKWMURkDYZFdHYvpXyCY/FFzZSK/bedxdO3MMB8DxkeQwqkwRaE7eWoVOjNDmJjwBpEdQXsYiwhEJKidb9MSYpv0lzjyGGYEj4jwz9Atn+pAndr4CPlAJhUZldR+CW8aTCIqJ28F5KW06gI2IsLNh9L5aMgQAF4GbR+RFibHI6pLtrK6zfgm97CAuq+7bjRG0cVN8hmCkiZjbiRyGZuEV78QCj69ZS1zbCcQiX5iHqge5X7SulfhnbH2r5Q6zCkPAfAZSZLpG0xgKEZYGwoTROPLEWqQJyEhp770Ss3UQgNcK2YeE+hN/BIybWIZG0iPMj9KRHRkSwsB3yo4h8EduCuLkI3RUswr46Lzy8Y46jF4WU8Fnaex/OzCwdL4flZoirC4StFdARoFFapGZF/z9q8FWG+B+OIeE/AvxScPYlvwBsO9PnBMJBr9+ElhEZYuL990F2FDvjgmMhWwf7PfXiEB1HhNKG8hQ9aWOJAKu9j0i5ZEYnkSLGi3volTnQIRpBT7h4645DS0lBhNTndkOugBidRFgWsl2lubxgCL/fGFQbcte67+QbYogEQ8J/BEhpR+gkYR+BQGODEoj168GKsUOfTH0ZOopiqUQoBTYNGvv3gwqwtALpkR2fInIyKN2D3gpLvqI4NQVxRFbG1Ob2gIqJlSYSEndmPU7GA+3jt2qgFMXpdUQa3LBHfWUBen3HnzKZhQBKKWMCDDFEH0PC/5UgUHFo/pZEGsIoRo6NIS2B9gOyUY9uJ6SQLxALjRQBjeVliCJsKVBYOMUKsW0TqwDCBq0wIl8soZTCEYrmylLfXhf9ZbILFRzXgbiHjgKCICA/OoaKY1xieq0WREF/hIk9YqQ/aqjqD/FLDAn/ESCT/GGDzGSwkLiAI8DJuZSOexqN4pOpFjVrhaD2o8vZselYlFeg4hYob70OZdXpqix5Dd7mY9ETm8mrcdxsRHHr5+HkZ7FSWUO2IJi+73O0Yw8pHMqErDCCPTNKQxY5oXUvzV98h8Zjn0JQlExaEN19HThdtPCILbA1WMrHdsG3hq25hvglhoR/BGHHEjk2jhfZhDpEVGvkRkeQsQQpEDokbDawZd9skMIhU6j0nYZK4LfroEIwPfiiKCKoL/Q9Ckr1++hmiri5ErYtaVYXKbgOPS0h66HCDnTrqVofRcYRMZT2Q6zCkPCPILI42OuPwfMdVmQL9+AihakZdOyCbaF1B//gPrIyJBYgRZ7syBralg1aE1TnIQqQhTEEmjD06c7di0QZ0yJATmxE5LJ4jqAxv4esI4gyo+B6iF4VqguI2EcCURRCFKGVwlgLQwwBQ8I/shAig15/DFacpef4ePUamcIIoZ0Hz0boJv6BnUjdIwIkeXLjG2hncqBBNhfA72BX1uJIjdAQHLwbQd+fYBOTXf846mGEtGJoLELUITt7HG0d44YNwuX9oPqEL4QgiiK0GGbtDXEohoR/JKEs1PR64kwRnBBLdxGhTTgygZICS3RQ83vAbxICQudgdB1BoYyFRTaoQnMFObIezxLYjkQs3gPKBwuyWmCvfxzLfgQiIqfasLJAZdPJ1OKYgm7RXd4LUQsJ2LZESokcpu0NsQpDwj+SEDZqZBY1PkWOiDgTEy+H6LXr6EUhtuhirRyEznI/1KYcyE+hRsexpUNRdegtLyBL0zgCPNvCru0iaNeQEmwUjB6LyuWIoy4V0aOzfxfZNcfjuw5F0aKzsh+CBgKwLImwhks8xP0x3BVHEhKkM4ZaO0suDOnkFfFSB2fTRprdNkIGOJ06ul3tH4elALsIlRFsYRJzFuaI3DJEPpZlYbX202nU+vcPFW2RYWx2LVEc4Cq/H+svjONVKng6oLV8kLhZRxCjBQgpAUWokvDjEEMMCf+IohtqYhwYH8ENAnoZBc0Qe2qCTq+LFCF2FBL12kT0y2WRLlYu3y/8IaJZrxIJr+/MkxrpN2h36v26PhXT1jA+PUsch8i4R7O6TCBcCuUSlvLxOzVCv0ts4vkJonBI+EP8EkPCP4LIUu0fenXGy5nzJ1nXrnPf3dczIcdpb/ldlLWZfHmJxduvpRSt0LQUvewE645/Ds1wCcYkQW+eWbnI3OhpkHMhJ4ju+Cqy1wC3zKjvs7z5JeQLeeJsgYnePdhLO2DtM7ALU0zKJRZv/wo6auMDquVAaFFyc6uHO8T/YAwJ/0hCy75t7bjY+QoxAkkIcY9iqUwc9+Prym8j4y5uUjjv5lHZEQgjbKmBGC9fRGERqxAZ9foNOQVYliCTzRA5ZWJTfNNrLuJkHMJIY0uLuNvCFkHfs2/1y3PjoWN/iAEMCf+IQhvCz+KMrMHHxVU+dGuMTk33O+OIGNWtIXo1skR9J192iriygSBQZG0FQZPCxCz1yEKpCN1ZhrDZ7wHg2BQLRTr5WSKlkSjaCzvIZD26sYNnOUTNKjJs9xfXscDCBASHGKKPIeEfUUgswPLyuJOb8C0PR7ehMUd5coJQShAK3a2imnMI+mfea3cUa/wEWoGi6CqC5hK5NZtYjh0cx0a1FqG12G/RjUIWCvhjxxEJFyEU3fltSM8lEHls24bOEvQWcABhaxCacFiWO8QAhoR/RNEnfJws3sxmIqdATvZoLe2BcgWyJUCgwya9lX0QdwDo4uDMnEBPWmRlSGdlDqbX0pRFMlkPq7eEXtmD1j4xGqQmnj4V4Xg4QkFtJ7GIUfkRkAInbhIv70GoNv0eYQo9lPlDDGBI+EcU/USZCHAnjiHKFMnJHo35HWC7WOUpkDa2Dukt7IWwgW2uL0xtQXs5RNym01gAp4AYncVxBFndoD63nSjupaXBcu1pWJk8tqXJBkt0wx5ydBpfCHJWSPPgDgjaoGJAY/Ubfg0xBAwJ/whDCkTcb58vR2bRTo6sjGksH0ArhV2ZJBA2toB29SB0aynhi7FZ3FyJoFNFB20iP6Y0ewxaa4puTHV+Nyrq4uv+kTnu9PG4XgFHQl606PhtrPFJAh2T9TTVhV0QtkEpdBiQGTbiGGIAQ8I/opCopNlNtoiwPRwR47caBLHCylaItIWUkqDThKCHjTlnw8vjZLNEvQ6SiFbHpzg6RawiPEfQqq8Qq7AfGVAhIlfBcj2ElGRkRC8IsAplfBSuJ2k3VvqVfiqCUGENW/AMMYAh4R9BxI4P1PH9Hjo/gTj2VNpukZmsTXTbT7Ce+AT2NkaZVIuUMvcR5yYQQCWYoytniU/431Qqk+jgVsRdN+FtOZUw2EQ18lnv7SS3/R6wJUvWOOW4S3jMC2hmInROYx9chhPOwclM4kY1nGA79cVtoPMIUaY90JhjiCGGhH9EYWFLGyFswCFbKBPEMdKKCXtVXMvGzZbAyRF0fSwVge6H/7QSZPIVolDgeR7tTpWcI1COh5amiUZrEQtFP1sA3GKJIHSItYVWXTwbtOVAbGFLRdBaBhGB6PfnH2KIBEPCP4LQONjSxZE2CofS+Fo6sca2Nd3GPjwpKIysAatI3Gui21VQCik8pIbc6FrqZMk4GdrNA9hEiNIIysohUNSX7sMmwsYGFZMfm6Gr8ygl0P4KrogQmSIBGVwR01reAaKDFonbcYgh+hgS/hGEoi/pbQkxEjG+pn9Ahh0StPdDr0dlehMdMjgioLO4E7QixsHWIErr6eUmkLEk9pegsYy3Zj2hKCAlNKvbsKK+X0CjEOMzhM4kceygg4MI1UQWJuiIAhkrxl++F0QHITT26sEO8T8aQ8I/glAAWmFr4+DLT6BzZRAaGa7Qrc7jzGykpR1KXkxj3x0gY2JsLAl4EziTm8BXuFYLDu4mt3YjoV1ASkHY3YnoNbEBJS3Ij+CVN6G0h4wX8NuLZCbW0rNHcEWI1d4NrQMgxVDiD3EIhoR/BCHon5QjEk+9yOMWJ1FxTBaf2vxeGJ3Et13yTkRn8V6IOij659vFlMiuPR5CQcZq05nbjZxeg/TGsITGEStEnXqfiC2JJkN5+kQ0Lna0THN5P/nJ9YRuBU+E5MQy3aVdYIHoJ/YPMQQMCf/IQqAg9sEchw05suUpolCTtSQr83sgm4FcHik60Jkj7lbTZFofyE1swBU2gibhyiIUiriFEbSOyXkdok4TEQNIAjzy01tAuFjUqa7MwdgM2qtgE1CyO6ws7zVcZejeG+KXGBL+EYQmAh0Yu73v7HOzFWKlydgWneYKCImd8SAOkKpDz2+hUUCEr8AqlLGkhVY9tN8hxsHL9nvtu25EHHTBmBIREsoTCCQWPt1WHQojaCeDQJN1IlrNZTO4ocQf4pcYEv4RhMBDOwWQASWt0RpKW57KAkUsFlnTOADhfnKbnsGifxIzIzXqd3+CPDWCwMaTIbCeleknMGlnaHM3/r134U0fRy+/jjCYpbT0f5ERLOHh+vshczIH159Azo1Zs3grHKgRbTmWeS+L3RhlqrUd1I/pRtnVwx3ifzCGhP9oQIj+MdUItOXgeDmQDrYF1BYp5Asoy0ULC9VrAQFamsWQDpZbIBYSoTVRt0UmlyPERksN3UY/9g9Y0gWl8bJjBMpGCE2vs0IlVyTS/TP7oqgDfm94TPYQh2BI+EcUsn9clUmX0UiEnSNTmSKwcniOpja3B2u0gvJKxMJCtZegu4SUIOmfqeeUp4i0jUOI31iCcoGelUPLGL+9APE+HEA6BSAmP7qJQI0gLUWntpuxyiihGEFnHCK/Cu0GtrN6rEP8T8aQ8I8whNJ9ia9ACRvh5MmPr6NrlbGtkOribshlkYUJYuEiO4vQ2IewwCJAWxnc8iyh9HBFQNhcgIyHyo6gpcZvLULvblwA7aFlRG5sM6GcRkhFp7odcgWUO0PoSIhrRNUV5FDiDzGAIeEfURiJr/u+NAXgFSlMrKNnF3GsAL8xB3GMrMwQaItcVCVe2o4CLKWIZQbKMyjLw9EBslcFFSPHZtHSQYUNdP02XELQEt+NcUc2ILJrEFaE6u4BLXDLx9K1IlzRxK8umxrAIYboY0j4RxASQJmwWRKjs/NkjcSXuosVt6BRJTu2AV9JirJDZ+m+fsKPjlGWjchPEts5PB3hRC1o1MlNbuxHCYSitbIVEQSgIfZiZGEStziLkApHLUKjQ3HsOFoqJJfxCWsrDJtvDTGIIeEfYfRt/P7vfttMB8qTBFYWoboUnJj68iKZsWlCLXFchb+yzxC+CQN6ZaSTxRIxrvCprqyQG18DIkPWsWmv3Ivw+4SsgFjmcEsTQETWasJylfL4sTQjn0xGEbWbqCHhDzGAIeEfYQwSvgI0NmTyKBy0inAdQaNex8uWiJUAG4J23XxbEAtQloeW/Up9R2ia7RaZ4ghoB2E5+J0ViENUDIqYCBsvVwShsa2IVrOFVZygF4fgClTgE6uhqj/ELzEk/CMIOwQlbWLLgqwk7oTYWkFUIn/sObiFUeoyItP8BZE1wUQmQ8MdxYvvIbPwfbBKWAG4ThFn4mya7hSBuoeofhuWHIX8sVTzkiwBcuX7aAGSUTzmaWePp9QBK5QcaP4XFJcpj59HqzVCqO7FWdlOlDT3BKIgROs20AYUq87fOCxiImIik3BkbqQTtQOIA/MTgernMSgNkfmh1T8+KKJFRASqAewHlkxxwxBHC0PCP5KQ/RNq7wfHw8sViUJwpIK4B2ED4XjoOMaSGr9+oN8+WwLCxc2NECkLiUDGPqqxQLZSIYg0UkpUb4WkLb/Gws1k0ZZNjEaqCPyQcr6C1jGO1UI37kagkIDQ0HfzP7Lll9hI7L4TE4UWEYgQLXtoqwexi45dVCSI4gCtegjRwRJtLNGCXEgkG/Rw6AQ2nU4JginQ4wRDwj+qeGQrP8RDwjKZMgKwhOg34JQu+fIE7TCDJxQ6bKCbB7AzFVQUIy1Bb3FbP5HHBi0cshPrCPtBO+y4jr+8g+LUNL0IHGnTaewB0cAyqcFevkDPKxCLGBF1oN1kdHQGLSSuXaW5+EO0ChDGuy+EQPXP8AJAHoZfrUbQg9DXBIEiiiNCHREQEBESExBZPXBDpKexHQtp2QhcwCGOLdphnQ4xMR6uDRkHc65fb1hKcJQxJPwjCUH/WGoUWvUlM9iAR748Rc8awRURxG1EYzdWcQqlBLYtCZfvRMf9460DgJH1KHcEKSVO1CJYuhsmJwgiF9uSdBs7IDzYr7PXGWSuQJCfRAlwdRO/vgIjU2gnj2V16C7/FPxmvwefIXwtfrn8QhiH5IP8eB64nsBzJbblYokMkjyaIooSsRUREtHWAU0/pNWFILARsYtNlrw9RokMZbpkiJDOAeBGpP4FrmikYxni0ceQ8I8kRJ+CBBpLaGyZTK8LmVEoHoMkRooecWMv9shahMigLQvZ3knYngM0PoA7gVOaRQkXhw5RbRcUiuAUsATE/l7wd/VLdHUBvDxxfiOxkHjU6TUPQKYI2QmUFKhwHhW0+tWDum9SKAQaCSgOZ6HcD6Jragj7LcOI+1FCEYDyAQposngiR8HzKGRjXLcNsg7UoLUNmj/FP3AVrXs/jL/tA9Tvu5zGnpuQndbqpw3xKGJI+EcSA3aqJeRAfrwH5HCnTkLrGNtRqNY81sg6pJMnEhZZtUxQ3YVUHcIYoEBhfAOxdLFkRNxbAsDNjvX5izqI39jZJ3wJSBtZPhYtJVlRp9PcD8JCldYSigoZN48Oun3nW5JqoAVx8j8PQ+IHUY8w6vTz/+M2lvaxhcIBMhK8Dni+xg4biGgndH6KWv4qnX2XU9v599Tv+jCNbR9j5b5L6ez6HOH81/AP3oy/WEe0RpLJGuIoYEj4RxC/pHvVl6L0HdxBKIhxyUxuQSuFsCXar0FxBuEWCbQk6/n41T3IqE2sISaDN7EeZXnYtgWqTa8XkMmPIFSMLZv06ntSr3qkNDK3AXBwrTbd3jxBGCGK6+iJMfKFdaig2x+QVv0RConSAx76h4Bj53BsF9vWCKsN4iDobcBtEP8cGtcSH/hXGnd8nIM3XsLeH32Ygz/7Z7rbrkIeuJ6w+l2szlby4QLjTkyhYDOSt8lmgVJm9eOGeBQxJPwjCHWY4+liBUGsiBB4lWliBZZjo2IfMmWEkyXCAlcRdZYQykcriLEhP4bGRkiJIKITBLheDqUUtgzo9er9eBkQxhrLG0Ng4UifKGzSCQPIjBJQws1NIeIQEkL/leABNoHfplnfw/LcLRzY+R123f1ltt/1RQ7e/TZqez+CbF3NmLyZde5eZllhpFMjv1yjkMmQs4q4YQXdLUJH0Oku0Yx2grx79cOGeBRhvf3tb3/36g+H+NXQN+kFYPf7XgiQUuNYEktbyOxO5nbey5TcycFqj8rxT2PBbxJXb6Fcr9DOdChuPo2WWAsSMv4Sjf1bycQdHCGpexZTpQla83NEsoUqZslU1mB5OYRdJaMddq/k8XO/xdqNZ5IvH0tm8rcpH/ca2rMvJFfcSKw8om4HR0mkEgjHpYukCnhCIBD9EKLyEVEVER9ERPsR0X5aez6NP/dNgn3Xovdch3XwO+SX/5tScyujnXvJYuHFYMcxxBGKkFhERK5CZQRRpYUl84Q9iKSPlXVo9Uawg43kc+tR+XVordC6n/oE2vgekoSBh+OIGOLhQHS73Yeh5A3xSKEHMvgSSA5S+8HnyNWvpBXA6G+9jcDusHzbPzMTdGlkjqd0xhtZcs8mV4JcdB/+1o/gL99Et7PIgZGXcsLoLJ25n4K7SFA4neLUm8nkpvplt/kFou5Kv8NP5BF0sojsCL4NWkJWxQS+AgQZ10aKAEQbVBVaSyAWIeoRdWv0Osv4rUW67UV6vSoq8qmUFhAqQEQdrLiDlBGWI7BsC8uyEL08QlgIIdHKItYSFUviWKOUJlTL5Jwx8DVepo0c6VLvBARiExObnomafFc6V0k+xKF5EUMF9UhhSPiPEg5H+Ep0sO+5gfbdb8crdOiWX07xuCdy748vZjK8GyXXUn7sa9FrXo4WeWzdRe/5BrXFnyEdn8b4GaybPQN6Djg2xGMgc0YQ9mi6miiMyToF0BAG4HkALSTL2Cb0FuAhADeqEy3eSGfvd7HaO9BiAa0VggClfbTq9oOLOgQdYasZLKH6h3RYAm1JtOOiLIfYkhTDOlEUEcQRURQBAmFbOI6DtG0yNqDzqGaPWNbQ2TbL3R6BWMf02rNwjvlUOldDwn90MST8RwmHI/xALpGZu4UDN/0xI+NLHOz+L4554h+y7fZLGXF/QVzfSGbduZSPezGBWIungahJWJ/HGR2lHY2SczFJOG0CHRL6NvlMFujhU0YDEr/f7Tfq4agaqredODxAdzkkN3kKsvI4euRw4hrh/mtpbv00pegupFXuE5oFlq0RlkBa5jQOqem1bSyhkcQICRGaUECIJEKQDzW2I3G8vs8CERKpLr2oSxz1iHUJSYmw5yHsDHa+TE+PIr3jmJg8HT31vHSuhoT/6GJI+I8SDkf4XbmAu7CdAz99F6PjTarBhaw/47XUV35AuTgH0XmEWqDHJ2kqyMosFhCqAFd69GIbbflEyicvs9hE9MI2WadCrGzcCHCqxO2bCTr3EDb2E60s9Hvxq4CgtYgzew65Y19CN/cYMk4MtW+zfNvHGIlvxXXWoEzoLtKKWCuU1ij6n1mFLBYKlwhbB/0yYqWIVVKN2CPuZzGgsVHCRQsHLAchLJruBjLOCI4zRbawFqewDsQMiLWQmUJZvywkGhL+o4sh4T9KODzhKzLVNsH8N8lOSJR6GrIySRS1sLUFmSxK+CjRo60joIgnXKIYMhbYCpBtgjjGpQS6Ra91J15lgqaepNTJozo/Zd99l6PbN1GRTUSgyJAHbCy9n6DyNLKPeSNB4aloKXCCn3Pg1r8n69+MpXoA/dP5hAApEVjoJNSfKyFUjIwDZBRhxRqtLLSWaCRRoU4cO0SqiNDjSGeWXGY9mdwMwqvA2CkgbLAyYOeADOChcVCAGKggHBL+o4sh4T9KOBzhB1KSCYCoAZ4kFgV8CZI6Vq1MLTuHrbuUMzmELqOCbP+EHXxwlqA5RbByPbXWf6Pbi0h/keVeg/Vn/DGUX0ROAPFdLNzyD+jl7zJV9On39MrSandw7Tmq6nSmTn07YenZaBtc9rJy9z+hGz/CDQ+kYxVYSA1i4JTdjlNDKQWRhVYumjzCKSOcCkLmULnj8LJlSuW1iOJ6sCaBCqgCxBKlc0QKlIhRQplkJo0lfcK4gSdmf/n8IeE/qhgS/qOEwxF+JLu4Kk8ctIndHEthiOXdTRlFJjyVpgNZFHYMhLKfB9Rbptm8jmr1W7jLu1kJbqFU0IzpGTzf4mA3ZPZJb4OxP2QlhlF7L3rP1YR7v4MbLqB0m9CzWOzVmSw3OdA4iTWnvB2VfxYKSdY9wPKd/0Rv+QbGVBOhQQiJhUBo+ifzGuKLnDIaBy2KaGccK7seu7wRiuv7Kcn2Y0FrojgiAJQU4NkIk9KUjUBJsKRKg3MSH02NVusghdzJ6VwNCf/RxZDwjwIS4u8hUAIcwPXrIBqw/zaQdXzRobfwEzpWlcLYBRTX/h6+BCfoIns/4cCtf0FJH+wn6MQlXJ0BUWNJxcQTL2Zy81/RyVXIRhq9fAPz9/09Gf1zPOXh2iNUm8uMl1yWfJfMmmdSmn0lqFP69fi9f2Pn7ssYXekQWw6hl0FlRpDZaVxvBs+ZxpNFuvktWFYBzxtHemMgMvRdff20/cCQpgC0irHjuG/tC/rFAdF2iNsQLKN7Bwh6+4h6B4iDJVTcpuqVOOakfyRQ44SyhUMd0V2DY4F2mwiKq6d2iF8RQ8I/CkgIX4iIUHcIentY2fFfZNt30V2+A9vr4MuYEXc9bbFMfvxCyhv/kK5wkVEXz7+dA1vfxqzbRRERdARWoInFAjUZYU1fyMTxf05gbcL1I2j+kOWdH8WNf4qjLDJemUZvhZInmavnkBPnMbr+FTjZJ4ANOvgp2+/7ChvdCXBzWIVJRGYS3HGQY6BzoBzILKLx0Moljj3QXj+vRvaVAltGfbNENoEqhAfQnf20O3OEfoNObReSCKl9JF0kLWztG5YY0fDWsHbLR9D2Kfiyi00beuPYFiinjqS8emqH+BUxJPyjgJTwlQCrgercwYG7r8Je+S5OeC+5vCDQGkc8nq6oYleeT/nY1xN6Y+jIxg3vY3H7B3HnbkF6MVpZ2Aq0tUidFvHY0xnf8Eqc0nOwwxi6P6e6859Qvf8m9gOy2QpBVMeKNY1oHbmZ55ObfTY6sxnPy2AR0modpFjoAlk0JWLyKOxUgksNEQohBDbaNO/0QbUhbvbL81a2oYIavc4BgmAfUbgPIZYQsoZl+VgqQAhjQkhJ33Uo0s/mkUxv+FvI/i8CN8bCB7+E5UAsq1gMC3mOFIaEfxSQEH7YELhZIN5JfdeV6PlrKbEHmXEJ2grXGaXJIqL0HApb3gT5Y1Aqi1R1Wvv/GWfbZVh5hZYOUucQoklTtQkLp1OY/F/o6d8jqzIQ7qVx4EuE7TsIOhG53BhKdhiZPhGt1yNKZ4AzQ09rpJA42oUQOq6Pxu1X7MV9YrftEJcOki4iLJoa3GUI51DBbvzuboLOPsKwgWzeZyR/jCXifj6BClBxD1RErlwmPcMv7psHKu5/FKPp2gcoT7wVq/hqosxUP76gXYQDIVXcIeEfMQwJ/yggIfx6W5DLgkOd7txXaW7/PCNiL67IU6/ZlMtN2mqeOPd0Sse9CSqPJdRlHAVB/SrcO9+Ezkd0Iou4W8ZCEFlA4VTyY8+hs/YCPEp4KIL2zxFqgbCbI1ecBS8GuQ50nlD1nf2CLhYhhB6qJQkrDpYGS5v2XKoN0QHieD+xqqO6u4iDJpG/RNSdQ4WLiGgFSRtJgJX1sbGQ0sXCwdYuWklU3Nd2QtPmRwuNFgol+lWMWoBCgdiDnX8VmYk3oLzjAbBtgZYRIT1cCofM6xC/OoaEfxSQEH5X9ACHLE1U/T+Z23opFWsXWatIp1OioFeox/vw7bMYP+HPYPIJdMNJ8hKCzn/S+OEbsMYgsPOg1pJ3K9i2A9kTyRafRGvyJGyK2Bq0qmNbIUG3gOdl0BI6UV/CCg227OJZAcIyLncNqCUI2xAuQ+8AYWc3XX8vQXCQSDWR8VbTC0BjI7CFgyczOFYOhIcvQ6I4Igp9VBT0VXlb4rkOtmXTihRCaLTQCAnC6v8/EoTUqDAgsM6nOPN6ROYUlALH9VHEhDh4DM8BO1IYEv5RQEL4gagRkcWJfNzOj9n98w9StO4k52WI9Ci5wKEW7aSjT2HihDcgpx9PJ1hDXgLxT2je+j2cKVCFHJZcT94dA0eDHAf7BGLRIPZLOBL8qImXjWi3HFyvQCybZHUR7JV+V1sEqLF+9x4rRNNkZdu7IWogwnkID2KpGkJESAlCWmRE3D/cU/Rr+DQu6CyxdtHKptX2sV0Lz7NwbYmwIrQOCaMuKo7oyX6BkOgf+YmFbf7uW/syV6Aen8bo+j9CZE5Gx+DYdSJA6TLuYGRviF8LQ8I/Ckhj+SJGRTaWAtjO8s3vwFH/hWVHKMoU5Rpq4Tba8WMZP/6PcaYeTyuaIW+BJW6D+jFQbhOh6UQFPOlhyx4hRUIExbhO3CpjSVCyisz7qNBCODYxK6i5g/hiO91oP9KepVj4bURmPR07IGAB/8evxpUdslaDvNXCIgLlQZxHKw8hy2jVJojrBKKFkj7Cs5Cug+14WN0YpUAp1U/xRSKlxLIspJA0dB2BjYWHTR5JDos8gizg4Jcilv1jGdv4SizvJOIYPGuJGJsoruANz/87YhgS/lGEj6ldUSE0bmdu7/fRosbI6EZsa5xo9HSy9ghYEdCA2INwAi1B2/sJwgLSi4nIEnazlPuCEyyfTmCTE7tQ4bHoLFh6HrVwC+2Fz9DrXEs+M9rPwutoRCyphSOMHfPHOGOvIhAubh4O7PozPPU9RuJdyNYY3c4MsgBOvk4UVvHDEkBfPUcj0QipTZKNIhPn+jaDiIlFTChiIhGhpEKh6XpPR4oitjOL7a5Huptw3GOw7CksaQ0P9jyKGBL+UUQ17uGJTD+1VjfA3wtWDO4kxGUCK0vkg45DpL2MFFmEKmN5oFnB7o32m+CINviyn/prbyfw97FS7zI2thFhP5XYFnjyACzfQ2v/v6Cib+PJMjpTxw08pHZoMoac+F3ys68moAgsIRd/gl/7d+zOfyHakm6vgigossUYSUQc9nPp+465viajhU6PC+yqBkLksOQ00lqLZR+DY61HyAmELOHOPL6fyKMt4110AAstbDQCObThjxqGhH8U0cFH4BkLF3SsieMYadlEIYgMiBjiELKZOmCjVJ5YgqJNpqdZWf4mOtqKFbfpNXejrV1Iu0O7rRjb9DbKIxfQiAQluw31PTR3fZKM/D4i8mjpBXKUkUjC7ChV60xmj3sjPhOELFOYW6K2+Cmkfx1FLyIUOSI3xnVtbJUjCOdAO8Q6S0yOWBfQcZ6YLBqH/IbHY4kCwhpBWpNY1izY00C537YrOa0nybwVENNDE6FFjGMNE3SOFoaEfxQR0+0foqnttItUkiADYFFFR5rQP4htLyO9aVBbiGJo6wZl92b23vMprN5NlKyYTr2Jsnwq+RJRL4+//s2MTb2cum9R9kLozFG/76PkvO8StiJ0nCMv3X4tf85hR2sTJ/zW3xFyHF0fStxGc+/HiDpfppDt4QubThCjohyWPwG5ACkLWPY0trcBx96E421AWtMgClA4HYQCKUwPUG2O7Orn5uu4i2Ucg5Z0kFjm7RNOMMzFP1oYEv7RhPLRUUyoBY7nIegCi+hwB8JqENV3ogNNp3GQbm+JbPYkyuP/C7xjaIQNSvk55u/8CEX/e+TyGegIQqVw3Ao0S6xsOIfRda+hExbxHB8rWKB23yXY8mtEnR5le6Zfb6PniTJt7q2u5cQz/xl6TyEOwCptZWXn5XTr3yDjQWzlCYRHRq/Di47Bmz0GKXIIq4K0JhHOFNgT/X76GuKwfyKvFv0y3X7f/v7J4Rpw7YOAROIgcJB4CJxfttQb0v1Rw5Dwjya6CgiIrRjLBajSOHAD9YVv4sodOLFP1ikQRQ3a3SbZ4pMor/tTyJ1JqCIcL6Z+9wfIrvw7ruujtUVbBnjSxe5mqY2ey8jxf0GkZlGWxo2aNPf9I0HvC+ggIAo7FGUB12rRsxssxRs55rEXQ3QekCeMD1Jb/A52tINCYQy8CaxMFinXQ7ABnEpfQAvQAiJB/3RfYjSKvDK6vLSMHe8wuLn8gQN7pehnBiJMshBg2b/89yEeXQx57FFEjCSyMyjX6x+fjcAKWni9fRTVdqzOfrx4kaJcpphrkPHaYLXA8VGeTURMfjSD43YhXkZ7bVSxTS9/kLiyj6h3GwQ7sKwmUaRAlPEKxxOzCTvzGJqZY/C9JyKyLwXn5YxO/h6xOIYeEdrx0Zlpxtb8NiPHvAJn9FU4xRcj3GeC9TjQFdot6LSh24Ug7KfaOqYjj0cE5IEcaKev4OsumiaaBkrXcRS4uu+fdGSf0C0LpA3S/nXafg/xSDEk/KMInYHIgRCbAA/IEIcCWylyrqRcmEDKLGhBFPo0Oss06ot0Y58eimYsCeMsglHQM8jMCUj3RHrhBlr+FJF/N/S2I2j1m11qcDPrQazHcY9nasuLGD3mNdjr/w/FibdTnvwzYh5HKy7iExECsSwBU2iVpd6DFh6BUIQ25Eeq5Mp1soUWntfFlSGWltixhx1liWUdJVso0e1n5wkHQRFBCSnKWG4d6TQQdgsh2sbUCVGE/ZTdIY4aHpGq3+12yWaz/T5rcYzj9MMvcRxjWRZRFCGEQErTuulhII5jwjAkk/nNP0lFKWUOyuz/LUS/8iz9NyVpd1vkixDhYWERLP6Q5n2XMJ7/ES3/dIRo4mabhHabRlRA5J9OafIPsLO/hdNuE7S+Srf+L8jeLXh42NZ6fCuPLxRd64nk8qdQLD4Jmd9o1PIWKu7Xu9vuY1aN+DcbvV4v3Te+7+P1Wwo/qgjDEMuyCIIgfXYcx/R6PTzPw7ZtwjBMaeORII7jdM8IIfrhUq3ThKhf5Z4PhEck8bPZLJ1Op3+Cq+PQ6/XSiWg0GgRBkA5+NZLstWq1SmicQFEUYVkWmUyGdru96hu/eZBSEscxQdC3dQfnQUoJAjJZ1wTz+ufMu14WJ5cDyyGXP4DrLmHLbj+ZVbk42sFVAkcBuRxhdpLAPYGefRY95+nEufOxKr+DO/5CxiefQLl8PDI7MTCqDNIaw3bXDnz2m4l2u43WmiiKiOP4EGFxuD33aCARbIOdlSzLIp/Pp2MYJFCt+yHbZE88GBLBkdwneZZlWf2WZ0cQj0jiNxoNSqV+9la9XsfzvHTytU4yuPqIoijlVAkHi+MY13VTqZgg0Rh+0xEE/XrzwYUPwxCtNa7rojRIAhCCMHSwbRD+HdT3fAS3dz2RaKMjG9suoajQicdxS0+iPPZ8RPZx+K4D7EL17sSNfSxrBpx1YOWJiLDxQVVA50HQ728nNY7s17unccPfUCSEobWmXq9TqVRWX3LU0Ov1sG2bXq9HofDLqsFkjM1mEyEEruviuu4h330oJBqE1hrP846opE/wiAg/QcLFbNum0WjQbreZnJwkCAIsy8K27UOIO1FZks+Sl8pms2itabfbh0zebypWq/cYZpCoaZ2wTdaWWNpFawcsEGontb2fImp+E2VJdJwj563FcacJxChe8Xi8yhkg19DBQ+gOFg1cYYMYJdaSSICvoUTUzxGgT/SB7gIKx8ojBVi/4YTv+z6u6yKEOESdbjabBEHA2NjY6q8cUbTbbYQQ5HK59LMoirDt/pwP7vPVf/d6PbLZ7MDd7o/VwnPwc6XUERWOvxLhJ6jX65TL/WyrQfs24VhKKRzHOUQlW1lZoVwupy+RvGy73Safz6fX/SZDG3XUsqxDGGCPLhkkUUdj2xmwIYoP0mt8BxncQuRsQqgKxfw6yIz0LTGrAJSJKWApBwSEkY9SEiH6zENZoPGRocCSLrYETUwsWsQoJCUEFv8vRMsG91mCo6kxJqZt4uNSStFsNlM66Ha7OI5DHMdorR9QI34grH6/RGs+0u/3iAlfa00QBERRRC6XQwjB3NwcN998M7feeiv1ep3FxUWWl5fp9XpYlkUul8PzPNavX89JJ53Ek5/8ZI499liCIKDX66Xmw286Vi9aGIbYtp2aOZGl8QA6Yb+nfFbQixpk7DkQS8AWdJRFWEWTzuqjiVC4dENNWbhpopsWfeJWuu8ZR4d0Qg/PzuNZtmmN1TH5cxlisr/xhJ8QT6PRoFqtopRCKcX8/DxPetKTVl/+qCCx1QfV9x//+MesX78e27ap1Wr0ej1OPvnkQ6T0wyX8o4VHTPhhGNJut6lUKtTrdS677DKuvvrqVN1JVP3EIREEQcooHMdJ7aJTTjmFN7zhDTz+8Y+/H9f8TUYURSwuLtJoNIiiKGWUvV6PLaeeykQuA34IGpTr4euYrKVB+yCyxJFEiP4hl5FSSCtC4BJ0wKGJsDMI1+m3rcJHRD1ECDIWhAWFRxGprH5zDcvvn3OHjTbn5f2mo9ls8rd/+7dce+21RFFEsVgkCAI++9nPcuqpp66+/IhiNfH2ej127NjBeeedh+u6lEolLMtidnaWT37yk6xZs+aQ7z8UgiBIGUq320VrnZoVgxGMI4FHRPidTicdyF133cUnPvEJvv/972PbNuVyObVFEvVECIFl9U9StSwr/X4cx+zfvx/btnnxi1/Ma1/7Wqanp1c/7jcON954I9deey3XXXcdi4uLTExMkM/nWVlZ4eDBg3zvJ7dw2vGb+2W5QoF06MQSV0LQhFzJJ+iB0i5SarTo4rkexHa/QZ3bJcYjNC2tIcbD6vfhjyDyGlgUEKHsp8DGgOyibBtpHXkH0dFGsvnf/e53841vfINSqUQURdxzzz389Kc/fcSE9qti0L/g+z6Pe9zjmJqaIpvNUq/XcRyHb3zjG+TzeXzfT5nFQzn5tIkU3Hfffdxyyy0AnHbaaRx77LForVPheiRwiLGUhNmSAURRRLfbBUP0ruuiteaGG27gwgsv5J577mF0dBTbtvF9nzAMUy92Ygc1m00ajUZ6n0ajwcjICKVSibVr1/LVr36Vl7zkJdx+++0oE7JQStFqtdJxYey45B4Jkuu11vi+n34exzFx3CeNQfRPcH1oaOOYORwG7zsYgnz/+9/PK17xCn7yk59QLBY56aSTWLNmTSqVNm/ejOg2USomRhLGEpA4KkSomFwJwMPxXBxXIS2FbWXQ2upH/1zQOoOFxFUKNwzJG7tdy346nE0JgSQSEb728aVPbLsp0ScMOXm3hFHHcfyw5yZBcq/VUEqlEZ3D4XDf4WGuTRKnT8ypMAyJ45jR0dFD1v/BoI1j+sEwOMYwDA95l0RzTa5TSqXX9Ho9pJRks9l0PI7jIKXsR3UG7tNoNGBgPzWbTbTWrKys8JrXvIb/7//7//iHf/gHnv/85/PJT37yYYUDHwkOIfyEMwmTPGBZVhq7z+Vy2LbNJz7xCd7znvdQLpdptVrEcYyUEqUUvu8TBAGO43DsscfyzGc+k+c+97ls2rQpfbFOp8Pu3buxbTt19Cml+IM/+AO2b9+O7/tIKQ9Ra5JN4XneIZsq2QBiVQjNsqzUrh5cxIfalAmE8cx3u91DJjxx7GDGlMzXVVddxX/8x3+wefNmms1meo/l5WWKxSJr1qyh2WwSmxwHy7LScSVjTQgp+ffEXEqekWwsZfwIg+8bBEHKhCLjZXYcB9d1U5MLM1/JuyVjXP3ZgyGZj+R+h2OwUspUMsVx/1DNhNk80NwnBPRoY3B+k/FExhzDSO9EcCVI5nm10PlVIKWkZ3JfBpN/lFLkcjmklLztbW9Da83mzZuxLIuRkRG+/vWvH5HnD+IQwrdt+5ANmExAoqJ8+ctf5pprrmFxcZGRkRHCMKTb7ZLP56nVarzwhS/kAx/4ANdccw2f/vSnede73sU73/lO/u3f/o2f//znvPvd7+b8889HKUWhUMCyLHzfTzdKkvk0OJbkb8t4yFerOwm3lSZ5ZnCjKSPNEriui70q1BhFEa1Wi2q1ShzHdDqd9N+y2Wz67u12Ox1Pp9PBtm1yuRwHDhzgK1/5CtpoHVJKPM9Dm9h9r9dj165dKBPhGHw2ZjNIKYmiKNWYBjfj4HWDWZOxSQpRSuF5XhoRSd43ud/gZ7HJkvR9H9/308+lSRJ5KCTzMfgOgwyj3W7j+z7ahLGSNUsYS7KOWmu63S6dTodOp0MYhg+pBh8JDI7V932UUtjG+ZrsmWSN9IBmcLh996vCcRwcx0mfl8xnoiHfe++9NBoNPM/D8zzK5TJRFLGysrL6Vr8WDt2FAzF2DIdcWVnBtm2+/e1v8+53v5ter8fMzEzKpWzbZuPGjfzHf/wHb3nLWzj33HMpFn951FHyQs1mk2c84xm8613v4k1vehOtVgvL2P733Xcfr3rVq1i/fv0hG3A1kWitDyGO1dJmcKMl906+l/xOCGKQqRQKBSqVCpbRcBIkmxggn8/jOA6RCdMl+NrXvsZdd92Vmjztdptut8vk5CQXXHABf/RHf8Qf/MEf8Od//ueMjo6m31u9uRLpnDhABzdpEAQpQ0qIx7Ks+xFhspmS+yXElHyWfD/ZVIPzs3ouHwjKqLaYew0+P5/P43neIVrKICOLjOYmhCCbzZLL5Y6ow+qhMGgOZDKZQ+an2+0eIuySPXSkkax7Mk/JnNRqNSwj4XO5HLVa/4DSWq1GrVY74v6LB3TuDTry7r77bl7zmtfQ6XTIZrMIIahWq2zYsIGPf/zjbNq0iZ7JZEokGANqzKBaCtBqtSgUCnzxi1/kgx/8IO973/t4znOeg2Xy/QfvMSjRBz8/nGrabDZTokgYgDhM7cDgJkzumfx7PBATTtT2RNImkilhAM1mk9///d9nbm4Oz/Po9XqceOKJvOUtb+GUU04hGkjuYMA5FRvzCEPUie06iOS9VzOxBIPEahkpKo0q6XkenU4HYZJNBr3Fg9/XA1mVDwfhQHhyEIkGMviMZO3lgDaRxLiTd5fGRNQPM06djPc973kPX//619N1WVlZ4Wtf+xqbNm1a/ZVDkMxX8s6JEEnMIsw7drtdpDGnkv2RjG9wTbVJzHnsYx/L7OwslmURhiGFQoErr7yS0dFRlHF2D+6DwfyXQToDmJ+f56Mf/SjXX389SilmZmZ429vexjnnnJNecyRwP4nPKkkH8OEPf5harUY+nyefz6NNmOF973sfGzZsoF6vk8lksI16PrghGYh9Yogpyc1/6Utfyo9+9COe9axnpd9JNnDytzbqkGOSJZJFSwiv0+mk0r9YLKY5A4nktIydnFzvGy9r8u/JcxIki5ncr1gsYts2tm0fkmCUXHf77benZks+n+dpT3saxxxzDNGAYxSzwIN2XfIeh5O0yXsmDClhVIPzKIzqnBBiMmeZTAYhBPl8Pt1QyaZWA3b04P0TpvZQcBwHMUD0idlgGe1DD0R1LKO9SCnpdrvUajWy2ewhwiFZ64ThP9pIGGgyv67rks/nU4Lt9XoAlEolCoVCKpWTuf11kay1lDI10waJHqBQKPA3f/M3fOUrX+FLX/oS//qv/8ppp512yDVHAvd7oyAICMMw3eS7d+/m+9//Pps3b8a27ZQbPulJT+L444/HsizK5fL9VNEEg9yUgTh/cn/P8w5RSwe1A6UUrknRXG3j2LadEvrg87SxtQeJmYHc6kHpmqj9ycIm17BKLUzeLZHUscna6vV6BCZPQRnn5uMe9ziKxSJCiNTkieOYXC53iKo7CGUcd4nkZMCuTObTsqyUkQw68zAShIFxDjKcZDP3jMf5cJCrnIUPhtj4CZI5SPwZgalTkMZfkcy/MGp9Mu8rKyupo3eQkSXjPBpIBNTKygq33nor1113Hf/6r//KFVdcwde//nV+8YtfsLKykkrq1ev1q8IyxWwHDx5kx44d7N69m927d3PjjTfSaDTodDrk83l27NiBHtCCGo1GGgU4UjhE1T+cavrzn/+cP/3TP00lSTIJP/rRj+5XqJMgseuS72AcP2EYUqlUiI06nailyTWByfUfJGTMxv7xj39MtVpN8/pPOukkjjvuOKIo4q677mLbtm0II0EzmQxr1qxh8+bNTEz0K9WSd2u1Wmzfvp2f/OQn3HLLLczPz2ObPIQnPvGJPP3pT2fjxo3pc2+++WZ27NjByMgIQRDw9Kc/nbGxMRzH4bbbbkvnptFo4Ps+F154IRs3bkwZWfJOtVqNl7/85eRNFVfyjglBVqtV/vM//5N9+/Zxzz33sLy8TKVS4fTTT+cpT3kKJ554IplMBqUUP/jBD9i6dWtqD5bLZU499VRGR0dpNBp8+9vfplarIYRgZGSE8847j0KhwNe+9jV27drFHXfcwfz8POVymTPOOINzzjmHk0466ZC1fyD0ej1836dUKiGMuvyLX/yCO+64gx/84Ae0Wi201qxdu5YzzjiDxz/+8WzatAnXdalWq9x4440sLS2le+mMM87gpJNOWv2Yw0L/mqp+u93Gtm327t3Lt771Lb7+9a9z33334TgOIyMjuK7L0tISzWaTjRs38rznPY/nPOc5HHvssQijYf06qn4Yhrzzne/khhtuSO/TNHUG//7v/85pp51Gs9nkhS98YZoBaNs2ExMTfOlLXzqiCW4PaONjJNF73/veNBkhDEP27t3LP//zP3PeeecdYp/4ph7aN176wY1tGZt7NUE/EIIgSNVQKSWNRoOXvvSl7Nmzh1wux/LyMpdddhk333wzV1xxBblcjlwuRxiGLCws4DgO73//+3nuc5+bOuu01tx44428//3vT++jTVJEHMcUCgXm5+cJgoDnPOc5/Omf/ilbtmzhec97HgsLC0RRRL1e5wc/+EHqaNm2bRsveMELmJmZITShvl6vd4han6jX+/fv59/+7d8455xzUCasqLXmzjvv5NJLL+Wmm25Cm8KlREJGUUSj0UApRbFY5BWveAWvetWr+Ku/+iu+8pWvpIVNxx9/PJdffjmFQoGf/exnPPe5z2V2dhalFCeffDIXXngh//zP/8z+/fspFos4jkOr1aJYLBIbx+uJJ57I+973PtavX59uykQLqNVqVCqV1FegjZP1+uuv50Mf+lAquRMGnslkUubf6/V43OMexzve8Q4mJye58MILabfbZLNZtm/fzj/90z9x4YUX3k/oHA4Ph/BDY7N3Te8IzBp0u10sy+LKK6/kQx/6EGNjY3S7XUqlUqptFAoFlpaWWLduHfPz86mW9U//9E9pSnAyzuS37/ts2bKFE044ITV5M5kMX/3qV8maeL7necRxzKWXXspll11GpVIhl8vRNBV8H/nIR3jiE58IRmhedNFFHDhwAGX8Y/l8niuvvPKIEv79dL9wwNZrt9up2iGNI2bdunVs3rw5VfUSeJ6HGnDCJapeYm9bxrv/YD/Js10TdrOMfZ48f9OmTWQyGUZHR3n729/O17/+dcrlMq7rppvy1FNPTdXxrMmkqtfrvPrVr+aiiy4iDEPGx8eJjQ3vmNCKEILZ2Vlc1+X222/nNa95TZqKLIRINYcHg2Xs/MRGTPwepVKJDRs2pPdImODnP/95Xvayl/HDH/6QyclJxsbGsIyjLggCfN+nUqkwOjpKvV7nox/9KJ/61KeIooiZmRksy8LzPLLZLIVCgTiO8TyPiYkJSqUSWmsWFxf5x3/8R9rtNtPT0wgh8DyPXC6XEkOhUODgwYNceOGFXH311SnBJElUlUqFXq+XajFLS0u87GUv4+Mf/zi1Wg3HcSgWi4yMjKQFWFJKJicnGR8f56c//Sl/9Ed/xLe//W1c16VSqVAsFpmZmcE25mN8GF/Hr4JkTyZrj5nvfD7P9ddfzzve8Q7WrFmD67qMj4/TarXIZrMpo56cnKTZbGIbc6BUKvHyl7+cz3zmM9TrdWyjNSZMzbbt9FmTk5PUajWkCb0m6wHwhS98gY985COsXbs2ZZ6dToc///M/56yzzkrp5WjhEMLXA95uTNOMe+65JyU+pRSnn3566rxKJjkZdPKZWOW0SmxSayB993A/ofFkBya3PbFjXRO2Spx55XKZQqFAuVxmbGyMKIqYnJwkm82yb98+bBNjD8OQer3Oi1/8YrZu3crJJ5/MvffeS6fTYWpqKmUolkknbjQaTE9PE5iGIu9973uxLItisXg/H8PhkMSGu90u9XqdVqtFo9FgZWWFWq2W5gsAfOc73+GSSy5hdHSU8fFxtHGYJn8nTrOlpSVWVlY47rjj0FrzxS9+kZtuugkpJePj4xSLxdQfkaxRJpPBMVWRvV6Pffv2paG2KIrwfR/HxJMTjSQyzsMPfvCDXHHFFTiOQ6FQSCMbmUyGIAhoNBr8xV/8Bffddx/z8/OsX7+eycnJQ+zQTCaTzmlo/EWe5/GpT32KlZUVuiaGn8lkDhEQvy6SvZsIkHK5nKrSn//853nrW9/K9PR06gNJtFPbtpmfn+f2228nNF79IAgYHR1FCMH4+DiXXHIJn/vc56hWq4cwdWUchY7jsLi4yNq1a1FKsXv3bizLol6v841vfINPfOITrFu3jjiOqVar1Ot1/uzP/oyXvOQlCCGOqo8D0wbm0A/My0gp0w07MTGREsNv/dZvrf5KquIlEuG2227jmmuuSRlAouo8FBJJ32q1EEJw7LHH8qIXvQhhbMkoihgdHSUwNe69Xo+eqXO+/fbbmZ2dZXp6mp07d6KU4sYbb+Qv/uIviOOYfD7PgQMH2LhxI1JK7rjjDqampjj99NNZXl5maWmJarWaqpsJYc3NzWEZh+RDwbZtnvCEJzA6Okomk0nfO1nYY489lpGREd785jdz3XXXsX79epaXl1Pn6NLSElJKNm/eTLlcZseOHTiOQy6XY//+/ammkmzWdrtNtVpNnYjShPMi47QsFAoEQcCxxx5Lq9VCSkmn02F0dJTJyUnm5+fTaE02myWfz1OtVrn88supVCo8//nPp1gssry8zNjYGAcPHuRP/uRPWFpaSnM5FhYWUv9HNptlenqaOI45ePAg3W6XmZkZxsfHaZrMxSRTU5lIQrvdPkRz/HUQBAG20dASVdy2bT7/+c+nRTPSOB+DIODAgQM897nP5XGPexy//du/TRRFfPe732Xr1q3ccMMNTE9Po405uGbNGq688krq9TrveMc7wKx3p9Oh2+1SLBZpNBrEcZwKEIC///u/52tf+1rK/BqNBkIIPvaxjx1SUZhoWUcLh+zmhHMltnur1UpV9U6nQxzHbNmyBXWYpgC9geqh3bt38+UvfzndpMkGXP2d1Wg2mxQKBdqm4cGTnvQknve855HJZJDGfFheXqZQKJA1qcRaa/76r/+as88+GyklYRgyOjpKr9fjZS97GVJKZmZmCIznPVmkz3/+8zz5yU9ON3WtVmPr1q1cfPHF1Ov1lJklC1qpVFhYWFg95EPQbrd56lOfyrOe9ayUCfomm0+buPtXvvIVfvCDH5A1oa2pqalUCv7pn/4pL3jBC5idnaVroif33nsvV1xxBf/3//5f4jhObdNGo0GxWGR6eprJyUnaA/0MlPEhWCYzMhnDWWedxVve8hbGx8fpdrtkMhk++tGP8vGPf5w1a9ZQLpdxTC35jTfeyDnnnEOxWGRsbIx6vc573/teqtUqvV4vHZ+Uklwux4c//GHOPfdcWq0WOZPY9e1vf5vPfOYz7Nixg2KxmGpYoYmkdLvdVF0+Ukhsaoxztl6v88lPfjLds2IgHfurX/1q6tRstVrYts0f//EfA7B3715e+MIX4pqoUkKw3/rWtzjrrLN4+tOfjjWQdxIEAblcLiV6IQSf+tSnuPbaa+l2u6xbt45qtcri4uIhPoPVYz5auJ+NPwg90EhAGHU/mSRrIN8cE+ZJwkmJ7Tw6Opo6MgYn/YF+HMdJ1fd8Po+UkkKhgGNCgp7nMT09jVKKffv2EYYhl156Kc9+9rMpl8tIKdPsuJWVFX7wgx8wMjJCo9GgZ7zn69ev58tf/jJPfvKTqVarjI2NobWmUqlw5pln8o1vfIPR0VFiEx1YWVnBNVl1D4Vut0ulUkmJHiMVkvfLZrP84z/+I1JKKpUKUso0Y+t73/sef/RHf8Ts7CyY+Q6CgMc+9rG8973v5W//9m8RQtAxSVRJZdri4iJKqZTok82YSLVsNku1WuX3fu/3+OhHP5oSfblcxvM83vrWt3LppZcShiG1Wi2dvx/96EcpsbbbbXbt2sX3vvc9LMtienoayzi+zj//fP7t3/6NZz3rWdi2nb6/lJJnPetZXHbZZbzuda9jbm6OMAxT1TtBMq+Jmv7rIGucosm+LJfLfOITnyAIAgqFArlcjqWlJYIg4Ic//CFjY2PpWAombo9hnOVymRtuuIF8Po8ytn4iwD73uc+lGmw8EKpNtE8pJZdddlnqyDv11FM5ePAgSinOP/98zj//fHbt2pU+a3A+jhbuZ+NjbLTkdxzH+L6fvtDi4mL674lNDpAbSERoNpupZEjscuswNv3qH8dkxCXaQeIvCExuQdfYzrZts3nzZl70ohdx+umnpyqWHnCKXXHFFTz1qU+lWq3SNc6jTZs28dnPfjaVOiMjI1SrVYQQqb23vLzMZz7zGdauXcvevXsZGRmh3W4/rMUpFAq4pgorsXctYyY4jsNVV13F3r172bJlC7FxZtq2zRe/+MVUsmC0J2U8+Rjm8exnP5t3vetd9Ho9du7cmW6yXC53iH0Ymxz+hPnYts1ZZ53Fq1/9ajDOr8Q7nIzx7LPPTmsolpeXUUoxNzfHjTfeiDDJQO95z3vImeSohLGceeaZvO9970uJtjuQP5D4G0ZGRjj//PN58YtfjG1yL0ZHR/FMfUHiZDwSGJy/BF/5yleYmZlJ904mk+FjH/sYAGvWrCGXy6VOQGGSmaSUlEolbNvmkksuoWciNd1uF9d12bZtWxrpSfaSZZyk3W6XHTt2cM0112CbZKWDBw9iGyfgxRdfzMLCQhoyXllZSdf5aOIQwo+M40caD75nUj/DMDyE8BOvZGSqrZRxcCSMo1QqsW7dOrZs2cLU1BSVSoWxsTEqlcqD/oyNjRGb8FIURenm1QMFFHVT73zbbbfxzGc+EwxnV6bwJxn3tddey4EDB1JHYKfT4fWvfz25XI5CoZCONW8KjDyTTzA2NsbIyAivf/3rU9vbNvHWh0K32003w6DqFphGJEko8JZbbqFcLjM/P8+b3/xmjjnmGDzPSxlcJpNJnZOx8RGEYchznvMcxsfHmZycRAjB0tLSIVoXRoJIKVO1vVqtcs4555DNZlPfSYKk81Emk+G3f/u30+9qrZmenk6lUqPR4JZbbmF0dJROp0OtVmNhYYEPfehDqVDQq5pUhGGYOjKnp6d5xjOewf79+2m32/R6ParVarqm+gjVmmuTc5/Yy9dddx3FYpGlpSUqlQrNZpOzzjqLJzzhCeRyuVRDHVyryIRQO50OnuexefNmpqenCU26dqK93X777SmDTd4lMn6FqakpWq0WpVKJrjHLLMvisssuI5vNMjk5CYZBjYyMpNrD0cQhhD+4YaUJiRVMAcv8/Dxaa+66665UbfZMNd3S0hIY6eL7fqoyX3755Vx99dVcddVVXHnllVx99dV87nOf44tf/CJXX301l19+OZ/85Cf56le/yu///u+zuLhIp9NhzZo1KKU444wzYJWdnHjxHcdJuaYaqAeI45gDBw6wc+fOQ1TV448/nt/6rd8iMum9tm2jTTpwpVJJpVZicz71qU9NFzwxBxwTlkyeqYy2Iwby6ROmOajua605ePAgW7dupdPp4DgO7XabjRs38sxnPjNlcq5JTU4w+LyEMM455xy6A15nBrLpMEScMEhl0qcnJyfRA91cVm+0XC7Hxo0b6ZpKy4QJJpLznnvuQRmVNFGJX/rSl6ZMNiGIRBvAOGrHBppfPv7xj2ft2rWExsufyWTScOFq5vVASK5L5p2BOoVkDFLKNMqxvLxMt9ulUChQrVZxHIeLLroodTQm8zEYXXAch1KplP5bNptNIypa69Sk+tnPfoaU/VyTvEnKik2Ie9BHJI3D9eKLL2bLli3YJm8kYejJvhl8p6OBQwg/2WSxaXpx2mmnkcvlmJubY9RUn914441gOGMy6ZOTkyiTnWQbtdYxufDJb9u03BoZGUlV4nw+z8zMDK1WiwMHDuD7PkUTOouiKCVs27YPIaQHg+d5zM/PUyqVaLfbqVby9Kc/HQZSipOFSoggIazEjAF4ylOekmogCWE9GAY3cPK3NpIw2QCO47BmzRra7TZbtmxJpdMDYfCeYRhy4oknIgfKOBNCT9bu10Fs/DRSykO87bt27WJ0dDQl6iiKOPfcc1NiSCCMqtwz0ZZB88jzPLZs2YIwplvCXMSqrrUPhoQ4HGMCJj/aSPpkLT1j5ydmXPK9KIoYGxujWCxiWRbNZvMQ5o0JYTOQw6BMElRs0rUbjQbSqO/J/hfGWeg4DrVaDdu2yZjqv16vx+zsLFdeeSW+CdEq42hMhGy9Xkc+QDr1o4XDPi3ZqADPeMYzKBaL1Go1Mqa45rLLLsM2iRfChE4OF6dfzQiSBW6bgxHypjVRu93ms5/9LJVKhbZJyXVdl1NOOQXMgj3cibGNnZ5wZsz3TznllPtt0mThkg2dbJzkuuOOO45Op4Pv+xQeRvvv5HvJJko+kybvfn5+nmKxSMfEsDdu3IgeyB5cjcHxYjb8hg0bqFarqbQJTXHJw52fB4Nt26l/xTfJQ5gojTJalTJ+gBNPPDGVsgzY965xhArjrFUDzU82bNhwCANMxjw4Xw+GZI6S65PvO8ZckKtMrCRKlBDnILTWFItF2g9wkEuy3tKEdZO1iIw63zVRjcS+t0zWZrLvEvU/n88TBAE333wzb3/729N7MMBcyuUytVrNPPno4H42fvKCnolBn3feeWijSkVRRKFQ4NOf/jT79+9PpVW73X5YDgrbmAI50523Wq3ieR4f+tCHcEz2l2VZtFotfud3fie9fyaTeVg2diJhEnu2PJBFtmvXrvT91ECzEdt43ZWxb3smDh5FEXNzc2RMCubDkUoPRviJVO52u+kcJE6fRBIMYpDo9YBkbbVaZEx48+E4HB8JkjmwjRmUPLNgqg/lQL/4Xbt2pddh1mhQXR1UvRMtK9Ei4gHH5uEY3gMhkeSYOUm0CwyBJvPe6/UQpkjKNRGGhAn1jKNOCEGz2Ux9AAkS84mB1mq33347rvFrZbNZgiBg7dq1aBOidUxabWxqUCzLYnx8nIZpqNHtdsnlclxzzTV8/OMfT7VXz6S4s8o5fjRwPzEhBrLuLMtiamqKubk5ZmZmcEwOdD6f55JLLiGO44dN9JjF8k1ZbBRFjIyM8P3vf59vfetblEolms0mnudRr9d53eteh29aIbmu+4Cc+XCYmZlJw3AYRvD1r389VRFXE02yqYVRQx1TeXfTTTcxNjaWLt5DYXDjJxgk/ERaT01N0Ww2+cUvfgEDVXWD3znc341GgzvuuIO1a9emDCOTyaQhp18XieaQPLNqWlifdNJJCBP5AJiYmOCb3/wmDIQdxarss9iYUT3T2KXRaHDnnXema5BEeqJV5csPheQ9lfFfJGM6HI477ri0IMgzacrf+973yJkclYRRjI+Ppw5YDHPtmRqTIAi46aabyJq8i0wmw9LSEieffDIMaBuxSVRbWVnBcRxe8YpXsGXLFubn59PoxfT0NJ/5zGdSJp9oPWqVT+ho4BDCt02M3nGclDAmJiZ48pOfzPbt28mZDrmjo6PcdNNN/Ou//it5E29fraokkkEZJ1iyYDkT87Rtm1tvvZX3vOc9jIyMsLKyQhAE7Nmzh5e97GUUi0VCU3ChBkJbD4Zk8iYmJpiYmKBhzvPL5XLcfvvt7N+/P702NJmAq5Goavv37+e2224jMuHFw127GoNEuvqzhPATVb/VatFqtfjud7/LyMhIOl+HI/rk81KpxE9+8pNURUzmMnF+/rrImGrKrknuSTSL6elp5ufnUy3Qtu20Eo8BYZH4R8SA7Z3cc8+ePezatQvLmICJ9pUwiIeLjknaio3N7ZjU4kTVbrfbZEyR0GMe85h0nW1TM3HllVdy4MABCoUChULhkFTsZL6zptlMJpNh3759qd1vGRNICMGWLVuQJic/Mu3bOp0OBVMzccEFF/CGN7wBz/MITcOPhHlcdtllYPZgQvxHWnt7KNxvtyQb3DGOnXw+z1ve8hacgVBaq9ViZGSEa665hnvvvZdWq5XagwkSbppsgsHP4jjmrrvu4s/+7M/odDq0223WrVuHEIKNGzfypje9iWq1mhJhs9lMQ08PhSiKyOfzvOAFL0g928o4Hq+44gq2b98OA6nJg0hU7nvvvZf/+I//SO3nZIEeCqsJf5CQbdvm7LPPJpvNsrKykhLAFVdcwcGDB++3+QeJPsHWrVvZunUrLVP6mhDQkdo0g45GZ8AnMzExwYknnohlfCJxHLO0tMTnP/95Go0GjuPgm0ar2qRSJ++H2eDf+973wEjq5N9C4zDNmiq7h0LLJI6VSqVUQ0tU+eXlZayB5qSYMOLZZ59N14RZgyCg1Wrx3ve+F9/UVYyOjtJsNnEHIiqWcbwtLy9z7bXXpowkMLUKp59+OuvWrUOayFfCDOM4TtOqPc/jjDPO4OUvfzmYOQjDkFwux4c+9CF+8pOf4AycuDM47qOBQwg/CAIqlcohA2k0Gpxyyim8/OUvp1arERk7v91us7CwwO/8zu/wne9857CbLyF6MeAsDMOQa6+9Ng1j2bbN5OQky8vLdDod/uRP/oRyuczIyAjCSJKcKaF9OEik3wte8IJUBe12u4yPj/OZz3yGn/3sZygThko2pjI2v2cqDK+99lquuOIKxsfHyZtee6sJ83BYPcZBwpdScuGFFzI/P8/Y2FiqXd1999187GMfO0Rir75Pgne9610sLy+zZs0aLOOVzufzjIyMHKJm/6roDhziEJoCp56JxPzhH/4hzWYzZQi5XI5PfOIT3HTTTWC0j0S6J6osZk/9+Mc/5tJLL6VUKqFMzkcmk0mFjGUKtB4KWZOwNDU1lWqCkYm7b9u2LR1bbOxu13V5/vOfT2+gYcrExAQ33ngjb3vb21I1e9ARjJn/VqvFlVdeyec///l0HbsmxfjJT35y6gtIzJSRkZE0S9R1XVqtFt1ulz/+4z9m/fr1KWME2LBhA2984xup1+sps3o4++tI4hDCT1TlQe6TSNrXv/71nHfeeVim4qhoyjAty+Jv//ZveclLXsLNN9/Mtm3bWF5exjddXANTmddsNrnzzjv5m7/5Gz7wgQ8wOzuLNAUTPdN95lWvehUXXHBBuom16UKSXJNcn0jwZLOsVnO11pxxxhmMjo5SKpUITTrqzMwMH/7wh/nrv/5rtm3bBgO2aLPZZG5ujre+9a1cc801TE5O0jVVZIlEymQy6UJrI3HzphVZIn0GCV0P9MVTJg30da97HSumgen4+DhKKa6//npe9apXcfvtt9MyxTQJEUZRxDXXXMOFF15IrVZjfHw8zQVQSrG4uAgDYUjP85Am7JSopcnvZEyrmXQyftt49dvtdnptct8XvOAFaeJQp9OhUqlg2zZve9vb+Lu/+zt2796dmnu+71MzjSQ+/vGP89rXvpaxsTFCk6Nfr9fpmHoQx2RrPhyNyjLO0XXr1qV7xDIZnh/5yEd4z3vew7Zt21KtTinF8573PE455RRapu4kGfsPfvADzjvvPK666irCMKTRaKSVkF/72td49atfzac//el0DYrFIkopHvvYx6ZZkGEYpg7khYUFAlMP4ppis+TnkksuSenGM7kOsan+THwUyfs3Td9IYfIDEg324WhEjwQP2ojjcPjqV7/KX/3VX+GaxJdKpZJmkDUaDXK5HCMjI4yNjVEoFPB9P53QlimEKJfL2CbMl3hUn/Oc5/C2t72NjEnsKJgsvNDYaK985StZWFggNGnCSRllwq2TzZt8N45j7rjjDn73d3+Xk046iVqtRrFYZG5uDsdxGB8fx3VdiqauYGVlhT179hAZp2MS6knUf9/3abVafOMb32D9+vXEcczevXu58MILqVQq+L5Pp9Phk5/8JGeeeSYYs6PdbqcpspgUzcsvv5yrrroKYTrkNE2mYmyq12ZnZymVSiwvL7N7926CIKBojooaGRlBKcWBAwcYHR0ln89TKBT40pe+RBRFbNu2jYsuuohcLkc2m6VWq/HXf/3XXHDBBenm8lcVhSil2LlzJxdeeCEFUxvR6/V44xvfyP/+3/87vS7R8ORAC/FMJkO1WiUMQ4477jg808F3bm6OHTt2kM1mKZfLNBoNCoUCvV6PSqWCUort27dz8cUX86IXvYjgMA1BVyO5pt1uc8EFF6RrUyqVmJ+fJ2OiP+12m1tuuSWV+svLy1xyySV861vfomj6KHY6nZRplszRV2VTEWmZbreR6SIFsG/fPp7+9Kfzhje8gZNOOomeSfTqdrupCTc6OkrNdMe9/vrrD0lguueee/jLv/xL9u/ffwhTPffcc3nrW9+amlWNRoPXvOY17N27N3Uqj42NPfqNOB4My8vLPPGJT+Sqq67i+OOPR5mYrmuytGZmZiibPuAHDhzgzjvvTDUArTWFQoGRkRF80xNvx44dtNttXve61/GOd7zjEOcQRmomUj2xsbKm6YQwziPf5AEMaikYFeyUU07hX/7lX9ixYwexqYO2Td+9ZrPJnj172L59O/v27WNxcZFyuZzaaCsrK6kq6JtWUy3TtYYB6TM/P0/HVC622+1UmmHs+pJpiIGZv9HRUd70pjdx9tlnMzMzQ71eZ2JigqxJ5ex2u9xzzz3cc889tNttSqUSxWIx1WqEEOnxXIVCgeXl5dQrLY3NmUhWBhKtBrWiw2lIicRPzJ1Es/J9n65JjqlUKmn318RbXavViE3Z8/bt27nzzjvZunUrvV6P9evXp1qNNO3FIqPe1+v1lNB9c/z1QyHRnvL5PK985Svxff+QLM3YqPgzMzPk8/lUOxsbG+PNb34zJ598MkKItMBr3bp1TE1NpfdeWVlhbGwsNcW0qQYNgoAnPOEJXHzxxWmbsESqY7SsMAxpmcrEvMlMHMTxxx/PG9/4xnRPzMzM4Ps+3/ve9/iXf/kXMI5Ly5hJWdMcxDH+k9X7+9fFIyL8sbExpqamOOWUU7j88ss5+eSTWVxcxLZtDhw4QMt0JnFdN7X5PNOTL28606ysrKSOk9NOO40rr7ySV73qVak0Ck1KZyLpC4UCeRM58I2dpAayBO2BrL5er0ehUKBWq1EwCRiPecxj+OxnP0vO5A4kjKRUKqWbo2b607VarXSz12o1jjvuOB7zmMcwNjZGxzQAUaYAp9vtEoYhpVKJSqVCPp9ndnaWiqlOSzbd4IIlEsC2bd75znem6tvCwgJdU0SSNZV3PZPPrkziTGgq22zb5owzzsC27dTZuri4mKr4YRgijA3tDuSWJxuKgQxNBojJGmickfxO1GjP9OB3XRff93nPe96TqrcJYyuY1O5Em1taWmJubo62KXCq1Wo861nPSgWDECKdq4cbqs0OdNU5++yzCYKAsbExNm3aRMMUak1OTqYaWMKkq9Uqk5OTfOhDH6JoktHK5TLLy8vs378fz5SeJ7+TdUmEy5Oe9CQuu+yy1BGIYZ6+KXnet29f2hEpGjhDILlPbI4oO/fcc3ne855Hy5xAlWhXV1xxRVqqnUj+RIgkjDKhjyOFR0T4HdPKOgxDPM/jIx/5CB/5yEeomSKXbDZLaIozarUagfHyBsYbum/fPiYmJhgbG+Piiy/mS1/6EieddFI6QQy8YLKBMapovV4nbzL9WiaJJdmciYRKCK5iCjIwbaOOO+44Pv3pT3PiiScyas5Z65ksq3K5TMZ0UxkfH2fnzp3k83le97rX8d73vpdyucz+/fvJmaKORqNBqVRKPeCe59E2h2jUajXapqGjY2zXrnEIMUBkUkrGxsa47rrruOiii5AmcUgY+zkIgpQxNZtNlpaW8H2f2dlZrrjiCs4991xWVlZSJjY2Nsbi4iLC2PORaSWeMI7V0mJwXvVAnkHCJFgVY2agWerU1BRnnnkmV1xxBWvWrEmrNefn52m1WriuS92koK5fv579+/dTq9X4y7/8Sy6++OKUMWtzWEto+ic8XAjjCJuenuaGG27giU98InfeeSfahI537drFfffdR2zCfb4pIkrG/rWvfY13vvOdqWNtZmYm9Wkk2psyHXR83+dNb3oTH/jABygWi6kZiWEmnudRKBQITTGVa5p1MpAbkvxtG5/Ua1/7WizLSk3fjolqvf/97wej/QiTG9ExiUaJaXIk8Yht/GSCQ1NF1jMNOH784x/zzW9+k2q1yoEDB1hcXExV84qpyT/xxBM588wzOffccwnNGWUJsTompz86TNPFer3OBz/4QXbv3k3HOIVc1+UDH/hAWoCSTHLHVFVZq47nSqTcnXfeyfXXX8/3v/99du/ejTZebNccc/zsZz+b3//936dknJp/93d/x89//nNcU4X1gQ98gOOPPx6An//85/z93/890hyKGAQBf/Inf8JZZ52FMuqtMsUtifTsdrupdG40Gti2zcGDB7nlllv4whe+QNc4FHsm3318fJxzzjmHc845h6c85Sn4vs/VV1/Nddddl27oUqnEpZdeSrfb5Re/+AX/8A//kGonvu/zspe9jHPPPTfVjJKxxSaUZJs051e+8pVUTBdkz/O46KKLeNrTnpauSxAEZExsP8ENN9zATTfdxK233sq8aVaazWZTDeGpT30qF154IZs3b0ZKyf/5P/+HgwcPkslk6HQ6XHDBBZx//vmp9vZgUCbzLmeiDol0XllZ4d57703NyqmpKS666KLUJ+AbU2KQAS4tLfHf//3fbN26lZ07d7Jz5860487mzZt56lOfyqmnnkplVZiagbLpRDq/733vQ2ud+mvGx8d57Wtfe8hzE6nveR5f+tKXWFhYSDU213WZm5vjL//yLykUCnzhC19ImZEwqc8vfelLj6iN/4gJP9msOdMltGg61CQqX2yytZLN65hqp8QJN4iOKQjJZDLUTCfXBIm6lHDOpaWlQ+zF5NkYSZoQv5QydSJmTMgoeU6iymHs7cQ3kHxvZmYGzAZTxpwITPJOslETjp8wqISBJWMaGRkB42NIJH+CpumqWigUaJlEKaUUWZMGmqi9iV1ZLBapVCqp9iBN+mu9XqdgctATYknmB+DgwYPpJk40peQetok3J2qpMGbA4Hwy0Fk3gW8cgsk4gdTXkEi8qukwg4mhJ2p/soExsXjbmGfSMMZEg3y4SCRvsj86ph89AyfT+CZOn81mU+GE2SvSONcGNZxqtZra1YGJeiTvuby8TMk4AHvGqZcwlIRJDq5FMler55RVJ+cMzj8DJ+y0Wi3yAxV/nU7nfvf5dfGICD8hOgZe7nASOlFB7Qc4jCAy2WbJYiX3Srh4uOqopsjYObapi08mITDptcl1oTEPkvGsrKxQMZ1uWDX+hEklGyEhDG1Mk8T+z5rMrIRgEonWMSE1x8T4k8VL7jf43mrVMVHtgTZZrDpSaRDJPCVSgYHcgOQ9BpHcd3A8CXwTNnJdl9gknAxuvJ5JumHA3FJKsbS0xMjIyCEMjAGH4AP9Tr4/OM5knROmPnjPZK4fDIPvlQib3sDZDAnBBqZ8WGtN0yR/DTJzBhg3A+8SGNM0YUKDTC55XnJ9PBCmTa7pmozHZEzJuzdMm7TknZN5YICJDc6VWuVjkKZa8nDC81fFIyL8IYYY4v8N3F9sDDHEEP/PY0j4QwzxPxBDwh9iiP+B+P8Bl1AJ+v5cC9cAAAAASUVORK5CYII=;" parent="1" vertex="1">
          <mxGeometry x="205.05" y="699.78" width="93.91" height="50.28" as="geometry" />
        </mxCell>
        <mxCell id="kOmin4emKqyUBwTHQekN-26" value="Jaeger" style="shape=image;verticalLabelPosition=bottom;labelBackgroundColor=default;verticalAlign=top;aspect=fixed;imageAspect=0;image=data:image/png,iVBORw0KGgoAAAANSUhEUgAAANcAAAD2CAYAAABFjRImAAAAAXNSR0IArs4c6QAAAARnQU1BAACxjwv8YQUAAAAJcEhZcwAADsMAAA7DAcdvqGQAAHazSURBVHhe7Z13nGRVmb+fc0Plqq7O0z09OTFkhiRZUcEVXVFcUQyY3VVZ/em6uq66rDlgwAQIBtZF1wgCIkiQIDkOMwNMDp1T5XjT+f1xq2q6azpWdw89Qz9+ymbqVp++99b53vec97znfYWUUgIkEgmmSjQarX5rTBbanBoLbU7OodimMurIAgtMiKx+Y4EJWBDXApMjJdI2sI0cjmVUH11gHBbEtcDESAfbSJPr30jPc7czvPdRHMeq/tQCY7AgrgXGRzpYxQTZnscws/3YZp5sbB/F9ED1JxcYgwVxLTAOEtvIkOt7GscqjHrfyMZG/HuB8VgQ1wJj4lhF8oNbqoTlYtsL866psCCuBQ5AOjZGshO7kAB3pWYUQojqtxYYAxGPxyXT8OMzjfWBhTanxvxqU1LMDDGw435sM191zMXftB5v/arqtysc2Ob41H6e4zNf2lywXAuMwrYMkn3P4VjF6kMVFM1f/VaNHGgVDycWxLXAfqSkkOqnkB5ASqf6aAmB4glWv1kTjm0iHbP67cOGBXG9xLGtApaRQ0oH2yqQHtw24UKxUDTELFguKR2K6UHkYewcWRDXSxwjFyfe+SRWIU0h1V9ys48/XFP0AIqiV789TSRWMU2id/OYDpPDhQVxvdSRDoX0ANnYHjJDO3DsiYdpqi8KU/EWSjmucCwjT6J7I5aRAaFWHz5sWBDXSxzHsZGORTa2l2J2eEKrBQLN31D95oFIiWVkscdaIzPzJHs3k0v0IIQ6NaEeoiyI6yWNxLGKSMfGLKQmtVpCUackLscxyQzvwsjFR71vm3mSfc+RGd6FdCxUPYAQh28XPHyvbIFJkdLBKmYn8AyORvGEUVRv9dujkQ5mPkl6YDuF9EDJEkosI0eiZzPpge1I2w389QYbQFkYFi5wOOLYmPnR1mUi9EDTJMM4iWMViHU+6XohC2mkY2MVsyS6N5IZ2oEsRdQLRcUXWbRguRY4PHGsAkZ+apEHQlHRgq3A+OKStklheJvrcZQS2ypg5BLE9j1BdngP0rErn1U1H7q/bsL2DnXEwjb/l2abUjpkh/cwtOcRmMKwUPXW0XH0PyAUrfoQAI5lkOzbTKr/BaTjtqdoPoSqYxuZAzyHnvBi/C3HUN/QNOr98ZjNay8z120uWK6XKI5lkEt0TUlYAHqoFcYZwjm2SarveVJ9WyvComQZ7WL6AGEJRUcPL0YcxvMtFsT1UkViFlIU0v3VB8ZEqB5XDELBcUzkCK+iY5skezeT7NuClPuHfROheiNovsN7SMiCuF6aOJZJdnj3hGFOI9H8jSiaD4BcbB9GIQUlYSW6N5Lqe37KHkeh6HijyxGqp/rQYceCuF5iSCkx8nGy8b2TLBi7CEXFG12BQKGQ7ife9QzSMXEsg+G9j5Me2DplYYFADzajBZoOe6vFgrheejhWgWTvlilbLdXfiKJ5KcR3Mlja4+XYFoM7HyA7vIuSP2xKKJ4g3vpViBnHJh4avITFJZHSwXFsbMfCdkxsx8SyjdJ/WziOhSNtHOkgpYOcwpN+viAd+wCLIh2LXKKTQqpv1PvjIgQCQbb7UQrDW7GtIghBbN8T5FO91Z+eEKF68DWsRvVGqg8dtrzkXPGOtLFti6KZJZ0bpj++iz29z5HKDWCYeUCiqR783jrC/iYi/ibCgWYC3ihe3U9TQyua6kFRVIRQUIRS2vY+epgz0/Mci+m0qRR7cWyLcNMqVN2PRGLkEgxsu2fMmL+5RCg63vqVeOtXuvGEI5iLa58vbb5ExCWxHZuimSWR6eep7bfxxNZbGE51YZh5nAm8XEIoqIqGqnrwan6ioUW0N65hRdsGOprXEw0twu8JoWs+VFVHFSpCqCSTyeqmxmUurl0zBxna8xieQJSmFacjVJ3BHfcdEO83twiEquONLMPbsGrMNbK5uPb50uZhLy7bsSgYafpju/nrk1fz3J77KZiZac0VxkagKhoe3UddsJUVi05g/bKz6Gg6gqC/nmLeQlM8qIqGUFTEBBP4ubh2j0wxsON+EAKPP4qi+UrDwZle9xQRCorqwRtdgSe6/ACLVWYurn2+tHnYJqiR0qF/sIeh1F4e2PxLntv3N4pmdk7nTUIoaKqHkK+Ble0ncPTyV9DRfCSRYBM+Txhd9aKqOkrVYuxsXzvAYPdWsj2PV799EBAoqobmDRNdfBz+urYJ4wfn4trnS5uHobgkpmWQyPRy/zO/4cHnfkWmEDtgcn8wEELBo/tpCLWxdslpHLH0TBbVryIcaMKnB9A0L6qikkhMbQg5+bXvZ6DrBXK9T1S/PYcIhFAQqodgQwd1bUeXtpSMb7GZ1e99P/OlzcNKXFI65IopdvU+yZ8f+T57+jZiz6MEKKqiE/BFWNpyNEctfznLWo+lMbIYowAe1YeiaBN2xomuvZqBzi3k+p6ufnuOcOdWqrcOb91S6hrboBScq+ru4vN4zMb3Xs18afOwEZdtm8QzvTy85Xf8beP1ZPKxWZhXzR2KUPHoARY1rGRl6yksbzmBprrlBH1RPJofVdUPmKeNd+1j0b/nGfKDm6vfnhOEoqP661GEhmMXENhonhBNy09F9QSqPz6KmX7vYzFf2jzkxSWRGGae7sEX+POjV/L8vgcwJ8i5Nx8RQkFXfTSEO1jVfgqrFp1Ea/1qQr4GvFoARdUQiAOufSL6dj1OYXhr9dsHAYHmDdG04mX4wq3VBw+g1u99IuZLm4e0uKSU5Isptuy9j5sf+jYD8d0TutUPBYRQ8Giu0FYuOolVbafQVr+WoL+elqZ21DHc2Qci6d3+EMXE7uoDc45QvTQsOYFQ08oJHRllavneJ2O+tHnIisuRDuncEH/f9Gvueuo6Mvn4wXMzHyQUoeDRAzRFlrFy0UmcsPbVtDW6Fk3X/Qd4Hfcj6X7hb5jpnuoD00cIdy6o6kiU/UllpO1GgTgWOBZSOghFw1O3lEUrTxlzTWsspvu9T4X50uYhKS7HsYmle7jl4e/w5LZbKZq56o8ddqiKht8bob1xDeuXnc1Ry86hMdJBwFeHdkCEuaRryx1YuaGq96eOECqq7kX31+GPtKMH6skVrNIeLFdcjm3gGBms3CBWMYnqCRNoOZb6xpbq5sZlOt/7VJkvbR5y4gpHQvTHdvKbey9nW9fDWJNkLDrcEEKgKjqRQBNLW4/lpLUXsKJtA3XBFjya3/U2Ssm+Z2/GMdLVvz45QqBqPryhZiIta9ED9SiqjhDKON+RRDoWdjGNovtRNP+cfO+HYpuHlLgcxyJZ7OSGuz9L58CWQ35+NVOEUPDqAZrrlnLcqvM4ad3raW9cB9Jh3zN/RDpGJTJCSmfSXcdCUdC8EaJtR+Gva0fRPIBASjCkZDCewJQAElUIPAI8ijgg+nu2v3cO0TYPGXE5jsWuvie56ZEvM5DY86IsCs9fBLrqobVhFZ9+643oik7PljtQvRFUfz0Adj6GVYjjWPkDtt2DmwPeG2qmYckGdH+du+tYQsa26S9YbEkX2J7MkXUkUoJXEbTqgqODGh0elYC6f+FgNr/3Modim4dEbKHtWGzZcy833PUfxNO9cxrCdCgjhMKH/uFnrGw9gZBfR/UEEYprV9zEn0mG9zxWCt7dfw+FoqEHWvA1ry/tOBYUHUmv6XBPwqCr6GBIiS33/5YAFAFeReHIsI9/bIvQ7NUQs/i9j+RQbLPaos87bMfimR13cP0dnyS2IKwJEUIQS3e6YvHXoahaZVinqDqeQANNy09F8+4vAeSmTGvB13IUiuZDIkjZDg+mTH45UGBH3ibnSKwRwqIkTVtCznZ4Jpnnhs44CfOlPUyvZl6Ly3ZMntx2Kzfc9R+kckOHnat9tlnT9jKOXv5qKK0B9vb28tvf/pabb76ZZDLpLlb7o4Sb17hxgEJF8zfibzoSRfUgEcQth9tiBvcmDXK2ZCqDb0tKdmUN/jaYwRpjyPlSZd6Ky3Ysntz6Z359z+dJ54erDy9QRSTQzAWn/Bt+TwiAffv2cemll/KBD3yA97///fzqV7/CcRyEohKILkb1BPAEoviajkTRvEgEMcvh1pjB5pyFUWWpJsOUkkdiOYaKbkbdBeapuGzH4ukdt/N/936B7DTSLb9UEUJwytqLaI2uBAS5XI7LLruMe+65h3Q6TSwW47vf/S7Dw+5DStX9+OsWE118PKonCAhSluSvcYNteQtrOqoaQd5xeDqZn5YoD2fmnbgcabNlz7383z2fd4NvF76qSYkEmjn1iH9CKUVF/OY3v+H222/Htt05kJSSoaEhdu92w6EU1UO07Sh8ETc9dd6R/D1l8lxufGE5pomZz2EVCqMSf47EciQbk4Vx23ipMa/EJaVke9djpTnW4LyOap9PrGk/nZDPLe2TTqf5wQ9+gGmOXlw3TZMdO3a4/xAC1eOW77EkbMpaPJ4xS2tYI5EUEjF23v4nHvjKf3DnJz/I3Z/5CE9cdQWDWzYiS+Ld/2lImq4DZIF5JC6JpHNwC9f/9d+IZ3oXhDVFFEXlhFUXVAJ677zzTvbs2VP9MRzHYXBwcNR7Eugu2tyXNClUCUI6Nv3PPsUdn/gAf/uvT7L1lt/R9cj97L3/Lp7++Y+57SPv5IUbf33AmpkpJRlrbMv2UmPeiGsosZdf3P4JhpL7FoQ1DUK+BhY3rq9EoP/hD3+Y8v1LmTb3p0xiVWKQ0qH3iYe569Mfpv+Zx7GNItJxSgN0ibRtCsk4j/3om2T6ukf9riMhvWC5YL6IK50f4pd3fobuoRcWIi+mSUO4A61UkC6TyfD442PnzVBVlebm5sq/LSl5NlVga946YFab2LWd+7/6WTL9bm5CTzDEilecz9n/8RVOvezT1C1ZDoCRSTO87flRv+tISc6ubvGlyYse/pQvpvjNvZfzyHN/nFdb8g8Vzjj6Yt7+yq+iaz62bNnCcccdV3FkjKShoYHf/va3nHjiiUhgwHD438ECg+boh5mRSfO3z/8/9j5wFziScPtizv7c12k78TQU3c2U+8zPfsSjP/g6iqZx1n9+jSMufGvl9z1CcNHiOs5pcpcEJmM2+1KZ+dLmi2q5TKvAfc/+kie23bogrBppKFUfAejs7BxzSKiqKsuXL2f9+vUAGI7kqYzJUJWwkJKex/5O79OPIh2HUFs75337WtpPObMiLAChltKkCUG4bfH+368wfh6QlxIvmrhsx2Jr50Pc9eR1FI1s9eEFpkjIX19JajPe0zUUCvGf//mfBAIBJDBoOjyZPXA4aGTSPP/HX2OkU/jqopzzhW9Sv3pdJT6xTG7QTYetef3Ur1w76pgQ4Jm1XiVHvA49Zu02TAcpJYPJvdz492+Syo32YC0wNdwEN348un9CS6GqKuvWreO0004DoOBIHkmbZMeYF8V3bWd4+/Mouoej3vIuWo87qRSfOAIpie3cBkLQvuEUAk2jN0YKwKtOpVuVcvVLu5Sjv4hh5SmaWfLFFNlCnHQ+RjofI1OIkysmKZo5bNs8ZMT2osy5csUUf7j/Kzy4+TcLw8FpIHC33Ht1P/Xhdo5b9WrOPeG9RALNCCH461//yj/8wz/gjFjkDYfDXHvttZx//vk4Jdf7z/oL5Ktd77bNU9deyTPXX03TuqN49RVXE2g6MMGMmc/xmzecTSEZ5/wrfsKSs1456nhAEXxwRRNHhF0ni4vEkRLHsXEcC8sxMa0CRTPHwFA36fwQiUwfsXQ3sUwXmfwwBTODaRWRUqKqOnXBRjqa13PcqvNY3X5y6aEyNjPtn2NRS5sHXVwSyXN77udnf/nYgtWaIuVMvkFfHW0NazjliAs5bvV5BH1RlBFponfu3MkxxxxDPp8HQFEUjjnmGG699VZCoRB5R3JrrMiTmQPj/4x0inv+818Z2LKRV37l+7SffPr+udUIYtuf5w+XvJbWY0/kgh/fgOodKSIIqYL/t7qFxX4dKR2KZp58MUWmECOR7qMvvpPOgS30DG8lnumnUMxgOwaOtMecL45EIKgLtvDJt/yORQ2rqg9XmEn/HI9a2pyK/Z5VpGOzq/dJsoWFmMGJcXPR+z0RWupWsGHV63j/a3/Ih9/wU844+q2E/Y0oKG6CmFKnXLJkCccdd1ylBZ/Pxwc/+EFCoZAbPWFJns8d6EkEKCbjZAf7Wf7y82g++rgxhQXQ/+xT6P4AJ37o4wcIC0AFAprbrQpmlrueupYf3HQp3/ndW7nq5g/wu/u+xMPP/Z69/ZtIZQcwrBy2Y00qLEoL5g2RxUSC+5cU5jMHXVyOdCgYGZyF9awxcVOr+akLtrCq7RRefcK/8O5X/4ALT/tP1i05HZ8n5A6zLAMjnyA9sAPLyAASj8fDJz/5Sdrb22lsbOTUU0/l/PPPB8B04ImMNW5oUm5oAD0Q4Mg3vwM9GK4+DKW5ct8zj7P29W+m/UR3DleNpgh8ijsHzBWSPLPjdjoHtpDJxzDtYs3rmKqi0RJdwVvP/RJ+79jnN9846OKSSDepzBSeVC8VBKI07KunvWEdp657Mxef9RXe8YorOOOod9AUWYamepCOjW3mKab6SXRvZGD7vcS7niLZ9wLScS3ShRdeyDXXXMMXv/hFrrrqKhobG5FA1pE8mx1/fmtk0qx61QVEV6weN6W2XciDhA3v/9cxLZsAIqrAUxJXwciQys18u5Cq6LQ3ruXtr/oay1uPPSAT8XzloM+5TKvIb++7nHuf+Z/qQy85VEXD6wkS9NbT0XQ0R3ScyYrWDYQDzWiq7nZXKZHSwrGKeMiTS3RSzA7j2EblAaVoXppXnoEvsqiy5hWPxysisSQ8lja5NVYcd/Pj8PPP4m9sIdCyqPpQhWIqSX54gOiKNdWHANAEnBjSeM+qRYBka+fD/OhP7yVfrCELVQmP5mdZy/G89dz/YknLUYdUotHJz3S2EXBgvqCXDm7+wTDNdcs4ZuUreeOZn+Fd536Xi874L05YdQH14cVoqo50HBwrj5UfojC8jVzvk8Q6nySf7MGxiqMsv2MVGd77OPlEN7ZVQDo2I42P4Ugez5jjCgugYe2R+Kvc6tV4wpFxhQWgCsFyn+u6tx27UlywFoQQBH31nLz2Tbzl7C+ztPXoKQlrPnHQE9RYtsGfH/82D2654SWzV0tRNDyan6A3Smv9KtYtPoNlLcfTEOnAqwdpqG8E3IBZxzawjRz5VB/5ZDdmLoljG1OaqwjVg+ZvRPVFaV5yNKrmxZGwM1vk+7uGMMeZb80WIU3hk6ub8ReyFM0cf33qh9y/+frqj02KpnpY1LCK80/6F05Y/Rq8nuCYfWk8ZtI/x6OWNl+UR4Fwzddhi8BN3BnwRmmuW8FRS1/BBSd/kne98nu89eyv8rIjLmZx05H4PREUFBzbwCykyMX2EtvzGAM77ifRvZFCqt+1RFMQFoC0DcxML0Zy34ghoeTvw9k5Fxa4OQzrdHcuZpg5uoa2VH9kQoRQiASaOHX9G/nABT/mlCMuxOvZn0znUKNmy2VJSd6WFB0HKcteIgWvIijNZ8ds03ZM/vLEldy/+fopd5pDAUWo6JoXvzdCJNDEovojOKLjTBbVryHsb8SjBVCUshNAunnWbQPbSCOMGMXMILaZxxnhWq8Vb90y2taehSxtK/natoE5z8ykCFgf9vGRFU2kkgn6Ezv5yV/eTyo3UP3RMfHqAdoa1/KaUz7MkUvPPsAjOFZfGo9arMxk1NLmtMVlS7ADIZ5LF3gmmSdu2NgSfKpgid/DyfV+lvg9hDSF5Bht2o7FX5/6Efc+e90h7Y53F3Z1fHqQoL+e5rqlrFtyBmuXvIz6UDtG3kbTvCMWeUcKKoOZ7cPKx5BW0S1qMGv3QhDqeBlNbatwJDwez3J9Z5y5NlweRfDm9ihnNwWJxYfZ1v0Q/3PXxzDtics5qYpOQ7iNU464kHOOexeRYPOYlVym2j+pUQiTUUub0xJXwZFsK9jck7SImTamM3rWpAp3jWNl0MvrFoUJFnNoVcM/R9rc9fTV3L3xGpyS+/hQoBwl4fMECfnqqQ+3s6LtBNZ1nEZr/Up83jAezYeq6Agh3Ps5wtPnGBnMbD9Wfhhpm0hpT5peuhYUPUh42dnU1zdiOJKrdw/zXLpQ/bFZJ6gqfGpNM4t8OgNDPdz9zE/428brxp1XC6EQ8jWwdsmpvP60T9AcXYanlJB0LKbSP8vUIoTJqKXNKYur4EgeSps8UNoSPvYtc1EF1Gkqr4nqHOFXK+selCbtD7/wW+555hqyxSS2bYz7BbxYlIsd6KoXnydMyN9IQ7iDxY3rOWrl6TTVLcWnh9A1X1UBcel6+WyDxHA/VjGFlRvALiSRTllQc3etQih4oivwN60nGo0SMyy+sm2A7BxvuxdAu0/n02tb8CiCfT3b+cWdH6Vz6MDKlkIIfJ4wHY1Hcc4x7+aYNWfj94Qm9QRO1j9HUosQJqOWNqckLlvC42mT2xPGAbkWxkOUgjjPq/dwQlAbJbC8kaY/voNdfY+zb3ATw6l9ZAtxCmYW2zYO2nBRCAVFqKiKjkf34/OECfsbqA+20xxdQVvDWpoiywn56tFUjzuEaWgaVRdLSgdpW9hmHrOQopgdopDqxyykkdKtWzWXggI3a66ih9BDi/BGliI0L5G6KA/GsvyqMz7njy5dCF7TGua1iyIgJc/tfIRr/vIe8iOqrAgEHt1PW/1aXnbEWzhiydn4PWEaGppGtTUeE/XPamoRwmTU0uaUxNVnOPx8IE/Kmp6NKQvsNQ1eTghqo4aIUjrYjoVlGxTNLAZJugafo3d4O0OpTpLZAbL5OEUzh2UXsR0Lx3FKwnOdKAduPRCl9R3h/k8pi6ckIM2H1xMk4I0SDjRQF2ylIbyYgN5EY6SDsL8Jrx5EVXRURUNRVIRQRkUE1NVF3JI5ZgGzkMLIxSlmhjALCRzLcOdVUo5xbrPN/iLfnnAbWqAFRfVASfjhujp+vHuYLanxh4SKEAgkSmlI7/50XciqcO+lGHGfFVVFlrbyO9J96DpIPIrCv65qYpFXw7Dy3PbwVdz2+Hcr80hd89EaXcWG1a/nuBXnE/TVl+ZVUy9FO1H/rGa+tDmpuBzgz7Eij6bNmvLRiVJIzIWNXtb5tYonsZq6ukhpb09pf49lkC+mSnt6hsnkhskVk8STgxhWHtMu4Dg2tmO5371wA1111YOm+fBqfqKRJvzeCEF/PSFflIC3Dp83jFcPVMSjCJVUMo0Q4sChiXT3HCEtHKuAbWTRRREjF8PMpyrrTwfDOlUQCorqRQs0oYfb0bxRtyBd1bmroQiXP99H1nYQJbF4VUFIVajTVep1laiuolsGQVUQUAQ+xbVCmnADcBVRWjYpEamLVITlSIkpwXQcJILlAQ+qgGR2gG//9mJ6Y9vQVA9NkeVsWP06jl/5D4T9TQcUUq+l007GfGlzUnFlHcm1fXn6jNqHagJY5FF4S5OPttI2VSkdHCODUDSE6qG+vtHdxjoCiXQ7ONK1BlIST7gVOtwH6hgdWrhWCwT19dGSNdv/XtmyjSSRKDsfSqVI7QKOmcc20tjFNI6ZcaMiHKv0t91zOWgI4VpRPYQebEUPLULRAqUdwmM/rcxAiF93JsjbDssDHpYGdNp8OlFdxasI11IJSCaS7p2pamasVssdbKwrF4Blm2zafTc/u+1jRIItbFj1Ok5YdQGRQMsBoipTS6edjPnS5qSxhT0Fk+/vHBp3nURaFoXhAaxsBm+0Eb0uOmZQpyoEx9f5eGtHPWFNASlJ9b9Aemgnqu5DKn5UbwRFD6FoXoSig6KUrMn0n3RU37zSUM21Mg7SsVzLY+bxaA5WMYNVTGMZOde757jePFdIjNOl5hghEIobdeEJt9HQugJF85QWiN17UjSzZPJx6kNtI9bRIJ5IYDhuIQW9NOQTY6zdVwQj3SF32RI7I+9XCbeYQ/khpZTmnu5/CwTp/CC/f/By1i89jZOPuJBoaBGqoo0bCEz1dzQBNX/vEzDXbU4qrhfSRa7bOzxmokcrm2HnDdfS/8h92MU83roGFp19HksuuAg9HKn+OD5F8Ib2Os5uDKIKgW3mGdz5AMXMUMkWlb4oRUMoHoTmRdG8KKoXoXkRqodQOOoWwFY0t/ON+OLKwnFstxB2Jp1w3d62gWMXkbbheu1sA+lY7ku6w6YXVURVCEVD8QTRQ+3ogRYU3bVS0ahbyM6RDtlCguf3PcCmXfdw7gnvcaPFRwwNx+oMjnSw7CJFM0e2ECeVG8SUKeKZPjK5IXLFFAUjQ9HKY9kGjmNVht0ScGwbpTR/1RQdXfPh1QMEfPUsblxPR+OR+L0RFi9a6VpahFtAz7IRQhDSlAPEPdZ5jsV4/XMs5kubk4prU6rAL/bGyNqjxSWlZPtPr2TfX27cn9ZYCBRNo+mEU1n/kU/jqXM7w0gW+TTet6yRJX4dkGRj+xje+5g77BqTEV9HeQ5QEVT1VzWyNEd5+FZ1fN6ioGhe9GALeqgd1RupPEDKhMIBhpKdPPrCjTy57VZS2UEufvnlnLL+QlTFzc4Ui8Xo7u7G7/fT1OR64iSSeLqHuzf+hP74dlK5AfJGBssuuqVvZenhUvr0KMa7ZQIUodFct4zTj7yEY5a9mqC/HlFyUjgSUpbNo7EcD8eyRHSVizuitPn0UTF3tXTayZgvbU4qrufSBX62N3aA5TLiwzz40bdjZTMIRUH1+bFyOUAiVI3WU8/iyMs+i+ofnetAEYIzG4O8qS2CT1VwHIvBnQ+QT/Yc3HnMPEAIgdA8KJ46vJGlaP56hOrWIS4jpUPBzLC3fyNP7rqRHd2PkS0kURWN15z8YV576mXomg+AzZs3c/HFF7Nnzx5aW1u55pprOPnkkwFIZPu48qZ/IlOIVdquFUXRaK1byTnHvJv1S19OwBupnLMDqMEwj8bzPDCcYdiwcKR7dIlf551L6+nweypXWEunnYz50ubEK3ellXd1jDFzcXgAp+ham6YTTuVl3/k5LS87C6EoSNti8MmH6bnrlgMqYjhS8lQix86sgSx9UXWLjkIonlGfO1wRQqBoXnzhVhqWv4zFR15AqO1k9NAihOoFBFI6GFaBgeRu7nz6Kn5w8yX84q7LeGbHHWTy7j6tE9dewHkn/XNFWD09PVxyySU899xz5HI59u7dyze+8Y3K39VVHwHf1DtTNUIIdM3H0uZjede53+Ejr7+BE9e8gYC3DkrDv5QtuT9p8I1tA9zYk2Cw6AqLkgHszJvc0JlgoHhgWrfDkUnFFdFV9DHENTKXXWTtkfgXtXP0xz5HyylnIhQVu1hg942/ItfTOer3ALKWwwPD2Yo19Iaa0Pz1B7iTDwuEcBd5S4JqXP4yFh91Aa3rXkm4aRWqJwDCtVCWXSSVG2Dj7tv52V//hR/c/FbueuYqBpO7K1myFKGyZvGpXPzyyyvBrYlEgve///1s2TI6Cj2fz4/KTTHdfXQC10vp90ZYv/Qs3n/e1fzLBb/gqGWvxKu7ORBtCQnL4Z6kwQ97ctwRN4iZ9pjikcDenMH/dbklXsf6zOHEpHc7oCoEx5iIehpbUDxugpLyRFr1+1n/4X8nsmotQlEwUgl2//YXOMbo+ZQEtmaK7MwW3SGDUPDVr3Y9hIc8orQWpaN5ggTqFtO04nQWH/16Wte9klBJUEIIHMfGtAqk8zF29T7Bbx/4PN+58SJ+fe9n2Nn7GAUjM0ocilBob1rHu8//NiG/uwcsk8nwuc99jrvuumtUSrVQKMRHP/rR/VtP7OKUkwKV4yjDwSY2rHktn7r4D1z2xutZ2XYymupFAqaEmOnw10SRH/TkuTthkLInDzIof/e396fJV83jDzcmFZdHEXT4tAOGhp5wHXVrjgAhsDKp0rsCPRzhqH/9LN6GJqRtE9/8NNmuvaN+F6BgOzw4nCVTcoYo3jCqN3Lggsu8xxWTUFR3cdcbwRtZSsvqc2g/6gKaV59DsGEZqu4DIbAdC8PMk8wOsqPncX5//1f4wc1v5do7PsTTO/9MthBznQzVf0UoNEeX8+7zv0NDpAMhBPl8nquvvpqf/exno+px+f1+Pv7xj1eS01i2wa6+x8kZE88bFKHi1QM01S3h5cdfyqffehPvf+0PWdJ8JJrqwQGKDvQaNrfGivywN8f9SZPsJLGm1TgSHo5l2ZQqjFET7PBB/cxnPnM5pTRcYyFK4233Roy4E0IgVJWhx/+OFgqz6Gy30DVCoAXD+KINxDY+jlXIIRA0HH+SG0kwgrTlsCropcmjYRQNFN2Hme2fk2jxWUOMFJOOogfQ/A14oyvwNa7FE12BHmwlFG0uXa90BWXlSWeH2Nu/ifue/SV//PvXuPeZX7Cz5wkKRtoN6h0HIRSiwUW847yvs7JtA6qiUiwWufHGG/n0pz9NJpOpfNbj8fDOd76Tz3zmM2iahiMdYulOfvfA5eSKB4pLIFBVHb83THvTWl654X285ZwvsGH1PxDyNyCEgl2qXLIjlePOhMEdCZO9RbumiJ0ytoQ9OYN1PpWAOtby8mjG659jUSiMH/I1krluc1JvIaVqgd/aPsiQMTqZpJXP8cR//At2scDpP7wBMSL1sZ3PsfW679F7350E2jo44QtX4GsencFVABuift7WUY+VSblrU92PYBeSE/iADyLlyA6huHGKqg7Cg+IJonrr0fxRFC0AoxZKJY50CIWDGFaeTG6Y7qEX2LLnfl7Y93cSmb5J9ziNRAhB2N/E6075N846/i1oqgfDMLjvvvt4xzveweDg/gqcmqZx3nnn8atf/Qop3aiWdH6Q/7vvs2zveWTUPRVCQVN0gv4oS1uO4bQj38z6ZWcS8NYhhIIslWHN2g67swb3D2fYmSlizOLXIoAj/Cr/1OwjMF5cXImJ+mc1tXj2JqOWNqckLkfCL/bFeCqRx6pylw889Deeu/oKTv/e9XhGRjhLSWF4kI1f/Qz5wT7Wf/ATtJ75ygOGfSFN4cMrmqg3cwjASHWSH9xcSRV2UKiIqBRfWJozqZoXzRNE89fhDTSg++vI5Iru+lOVu9wNQi5SMLPE0z3Ecrt5ft+D7OvfSDofw7KNUX9yKggEQV+UVx7/z5yy7iJamtowTZMnn3ySSy65hL1791bmWaqqctJJJ/G73/2OJUuWkEgkyBdT3PrYFTyx/cbKTgN3x7SPSKCZVW2ncPbxb2Vp89F49NI8UIIhJUnT5oV0gYdiOXoK5pylCdAF/FOTj6MCGuoE+pqof1ZTixAmo5Y2J40tLLO7YPPLgcIBSSWlZfL8VVfQ/srXEj1yf7ZXcPOPxzc/zZbvf5WGY09k/Yc/haKPdrkL4IyIzpuXNeNTFWwzT98Ld2KZOXfdqxRb6D50a/mC3Zif/YvPpagO4YZWCUVF4s6XhO5H0QOonhCKHkBRvVCKjC+LKRqNlgKMLSzLjXZIZPrpGd7G7t6n2dX7JEPJfRSM7Jhzp6kiEAR8dbxyw/t59YkfwOcJMTw8zNatW/nnf/5nnnvuuUodLiEEa9as4brrruOYY44BwB/08NcnruG2R7+PZZvurmlPiNb6FRy36jxOWP0amuqWkEm72ZlsCUUpGTYdnsvZbMpZxC2HMeo1zDrtPp2PrWoioqvjDg8n658jmapo5rrNKYurWArg7TGcA1J0GfFh8v091B3hfrEjsQt5Om/5LcMbn+CYT16Op5TpaCT1muD/rWml2ashpCSX6MbIx7HNHLZZwLGKbiygY2Nb5YSi433r+0Wkaro7N1I0FM2DonpQdR+q7kPRfGieAKruI50pIMoiqloOkFKOqsTh9WskMn30Dm+nc3AL+wY2M5jYS66YxLKNKaVlnhyB3xvmrGPexmtP/VeCvii2bfPMM8/w8Y9/nEcffbTiwBBCsHjxYr7//e9zzjnnoCgKtmPyfPdd/Pbe/8aWFiFfPSvaNnDimteydsnphP0NKIq7fWQoniDvSHoMh01Zi+15i6wjD4qoyiiCSooAbRyH1mT9cyS1CGEyamlzyuICeDpjclOsSLFaXYC0rVFzrpEY8WH2/OGXtL/qdYSWr64+jCrgHUvqObk+sP/mViyWU9oj5f5MJuOuw6NyfEQvqGwbcX9G6tztGOUtGaJitVzxlSlfu1MqaeM4JqZtYJoFcsUEsUwX/fGd9CV2EM90Ekv3UjAyJTGNcTNmiM8T4pQjLuQNZ3yKSKAJx3Ho7Ozkwx/+MHfffTfF0uI9QEtLC1/+8pe58MIL0XUdR9ps636IWx/7Frrm4egV53LcqlfT0bQerx7cP/RzJCnL5umBOJuzFt2GQ6EU6Pti0OrV+MTq5nGt11T6Z5lahDAZtbQ5LXFlbclP+vIMmOXi01NDOg7FoQGsXJbQ8gOrUwjczEHvX95AoFTbqbLhsLJdxGUq51mm+oa4Ed+uJXL3gplYtslwbICilSOTHyaW7mYotZfh1D7imR5S+SHyxVQlDm92LNP4ePUgJ6x+DRed/Z9EQy04jqSvr4//+I//4He/+12lgglAfX09n/70p7n00ksrXqpYuot7N/2ctUtPYl3HaUTDbeilmsl2KWPXkGHxTDLP5lSBgYKFKafnSp8LFAEXL45yZimou5qZfO/jMddtTktcEngyY3JzzMCY7gRXOkhHjtqOogBeRRBRBac0hnhlS7iSxD+ZHWAwsRevJ4hXD6ApOoqikUln3LmSUEZ46FzKgixvnQiFQ25kt21i2AUKRoZcIUEqO0gs3UM800cyM0Ai3U/OSFIwMphWAdsxcRx7RDDrwcGrBzh6xSu4+OX/TTS8CCQMDAzwpS99if/5n/8hnd6/bT4SifChD32If/3XfyUU2l9/OJOPIYRCW+sSFOEO/SxHkrEdOvMGj8Vy7MoZpEznAOfUi80Sv84nVjfjH6N43lT6Z5lahDAZtbQ5qbikdDBtA03VUYRKzpH8tL9AT7H28BVVuNtPWnSFE0IaK70qSxvr0RXXRknpsHdgE1f96QMAeHQfHs2HrvkRaOiqF1XVK5HgZcrWyLYNt6KGsDGtovuyC1hWEcs2sEtbKRzHLnnRar2S2cOj+Tli6Rm8/VVfoz7UBsDw8DBXXHEFV199NclksvLZUCjExRdfzOc+9znq6uoOeMgA1EWjFGyHpOmwOV3gqUSe/oJJ3nHmPM1arWhC8C8rGjky4jtgaDhe/xyLWoQwGbW0Oa643GjsLMOpvTyx/WbOOeY9RIOtCKGwKV3k93GL4jS/JVW4OTU6PAqnhHU6vCoBRaAK9+Qt2yBbSDCY2MPDz/2eh7b81q2IMorSIHGMDuXiehYPttWZCR7Nx9qOl/Gu875FtCSseDzOD3/4Q773ve8Rj+8PWwoEAlxwwQV89atfpbGx8QBh2RJyjiTvDfBIPMf2TJHkGGnw5isbogHet6z+gKFhdf+ciFqEMBm1tDmmuAwrz3Cqk4ee/zXPd95LrpjilHUX8Q8nfhyvHsAXjvDTfXE2J/NT+sJUAUFFsNSrckZEp9Wj4CttMy8TjoR4Yd+D3P3UdXQOPkemxrWhQw1d87Juyelcet4V1AXdRfZEIsF1113H17/+deLxeGWe5/P5OPfcc/n2t79NS0sLSil4WpZi/VKWw66CzZMZi2HbnV/Z82zoNxkhTeFz61qJltJil5lrIUxGLW2ql19++eWUwjscaZPMDfDE9j9xy2PfZHf/U+SLaRzHIpbu5MilLyfoqyccCLLIp/N0Mj/h3EsREFQFq30ar2vwcnJYp1FX8JQyC43E5/Pi8wSJhlpRhOo6HUqLszNZL5rP6JqP9UvO4dLzv0VdyBVWMpnk+uuv52tf+9ooYXm9Xs466yy+9a1v0dbW5rrcS1aqy3B4KG1yV8Jgc84mbjkYh4ilqsZ0JK0+naWB/Xu+mEb4EdMIa5rrNiuWa2h4gJ7YC/z1yR+yZ+AZDCs3eruCEKzrOJNLzvkmba1LcSTc1p/itv50Kd/CfgTgVxU6PIKzIjqLveooSyVLoTlixDZ998ngFqU2bYOCkWEwsZfNu+9hW9cj9MV3kSsk3G3nhwTuA2Q876JHD7Bh5QWcd+JldLStBOkK6xe/+AVf+tKXRgnL4/Fwzjnn8PWvf51ly5ahqipFR7I5Z/FExmLAdN3oB3Ntai45MuzjoysbUUY8gefaykxGLW2KeDwuTbtIb3ITv7vviwwm9lX2DlXj1QO86/wrWNV8Oqqik3Ukv+gv0Fncb1k04WZ6Oj2sc8qiRvyqm2kIwLZturq6ePjhh0kmk9TX19PW1sbixYvRNI1AIICm7V8rc/c4GRStHAOJ3Ty372/sHXyK/vju0naMF2tVZnw8mp+GcAftTWvwe8OkczF6h7cRS3dXHgwhfyOv3PA+zj3+3QR8EeLxREVYV155JclkcpSwTjvtNL75zW+yYcMGNE2j6EjuH85we196XjsoasWvCD6x2E94hNdwqp2baYhmrtsUw8ODcnf/0/z+wc8TS/VMOgRrrV/J+867hmiwDSEEuws2/zNQoOBIwqrgpJDOKWGNsKrQWD/65Ds7O7nsssu47777sCwLRVHwer3U19ezatUqTjrpJE488UTWrl1LQ0MD3hEFrcteS49PsLv3aZ7ZeTvbux6bdiDs3CGIhhZx+vq3cfyKf2BRSwdCqDiORTI7wAObfsWT225lUcMazj3hPaxfeiYe3Y+Ukj179vDDH/6Q6667jnQ6fYCwvvGNb7Bq1SqampowHMmDsSy39qbI2dNbbzyUeFuzl+OC+73Bcy2EyailTbGve5v89X3/wc7eR6eURloRKieufj1vPP3z6JoPR8IDKYMdBZtX1nlY7FXQhEAgCUdC2I6FR3PzaNxxxx1ccsklxGKj8zgIIVBVFV3X8fl8LF68mJe97GWcc845bNiwgebmZnTdvdHRaBTbsTCtAvFMH5t3/41ndtxB1+AW8i+iNYsEWtyi4B1noKs+6uv3J+eRUrpOomQndcEWfN4wqqLhOA59fX185jOf4Y9//CPZbLbyOx6PhzPOOIOvfe1rrF69GlVVCUTqeCSW5ea+FFnr8BUWwIaQxlua9s9z5loIk1FLm+pl/+9Dlz+27Y9k8sOjPjQeEslQai/NdctprV+FIgTtHoUjAxpNHldYUtrE0l3cv+l/KBhZ2pvWAtDX18dNN900ajG0jOM4WJZFoVBgaGiITZs2cccdd/CXv/yFbdu2oSgK0WiUuro6VEVFUz2EfPUsaz2G41efz+rFJ+PR/OQKCUzLdc4cLFRF5+xjLuXE1f9YeZAYhkEsFkPTNPelegj5G/HofhShYFkWmzdv5sMf/jB/+ctfRkVeeL1ezjnnHL7xjW+wcuVKVFXFlPBs3uGWvhSZw1xYlDZlviysV+bpU3UoMA1HxVy3qX7+c5df3hJdSSrfR6YQw57CVg/bsegafo4jlpxN0BdFFW4Fd4GkaOZ4euefuemhL/N85wOoqsaxK1+FIhTq6+srwyBFUVBVFcdxQ5JGIqXEtm0Mw2B4eJhNmzZx2223ceedd9LT00NDQwORSASPx4OiqHh1P02RJaxfdiYnrH4NbU1rcRybXCGB5ZgHtD/b1AVaOe+EjxANLQIEzz33HB/96Ef57ne/y+OPP85pp51GOBxGCIFpmvT19fHzn/+cT3ziEzz77LOjdhH7fD7OP/98vvGNb7B06dKKsJ7KmNw+lCf9EhAWuBH6xwY1QqV9KHMthMmopU0Rj8elI210L2zvfpQntt7Czp4nSnuQiuN2TCEEq9tfxqWvvBKvHkRKyXBqH7c98V22dv8d0yogpaSpbikfu+h/WVS/CiklxWKRwcFBMpkMw8PDbNu2jQcffJAHH3yQ7u5ucrncqFwQI1EUBU3TiEajnHTSSbz97W/n1a9+NQ0NDailsCpZih00rQK7ujazo+dRtuy9h774dgpGZk4s2orWE3nHud8mEmjGMAze/va3c//992OaJpqmcdppp3HZZZexc+dONm7cyOOPP05XVxfF4uj7GwwGueiii/jc5z5HU1MTQggMR/JkxuKupEFunBwVigANdzG+7GGzpes9tHFzux+KvLHRy6nh/dOBqVLLEG4yamlzxGbJOhwpsW2DdD5Gf2wnu3qfYkfP4/THdpItJDCsAnYpSy24u1nPPvpSXnPiZWzafSe3P/V9EpneUXM3VdE5fvV5vONVXyfkb4BKDOB+l3zZi7h3714eeOABbrnlFrZt20Ymk5lQaF6vl6VLl/L617+ed77znaxZswafz1dx78fjcSQOplUgkeljz8DTPL/vXrqHnydbTIz58FAVDVXRkEgsa6zaYe7ygSLcoanfG+HY5edx3oaP4NWDFAoFzj33XF544YVK26qqulvuHafyGvl3hRDU1dXxkY98hH/+538mGHSj1w0peSRtcm/CHLWPTgF8qkKrT2dN0M0D36Br+FVR2VVgloJ0Y4bFvrzBtozBYNEifwg5QY4NalzS7FqCuRbCZNTS5rg7kd0v3113ctMfJ0jmBhlK7GNv3xYGE3tIZPsomhkW1a9lZ99jFM0cTkl8bvCs24ameli/7CwuOuuztNSvRBsjKX8ikaiIrVAo0NnZyR133MHvfvc7du7cOWpOMhIhBIqiEA6HOf7443n3u9/NeeedR1NT0ygHAUikdCtbFoop4tkeuoefZ9/gJuLZLnKFJIub1nPq+gupD7e7lq/3KTbtututJulvoC7YgiaChPyNhHz1BH3uT5/HdVBQum/f+973+Pa3v13198dGVVXa29v51re+xbnnnltx3BQcyf0pkweTJsWSEDVF0OLROLMxyNERH1FddZ1HpVtZtS5fEZGUbuHxuGmzKZnn78NZhgx73gXuVhPVFD65OIBeCo+bKrUIYTJqaXNccU3EfiGUduSWNhKaVoGimaNgpCmYGYRqkS+myBaT5ItumZ6myBKao8vweUK0Nawh4KurtDkWhUKB7du387//+7/ceuutDAwMYFnjLyRrmkZjYyNnnXUWb3nLWzjxxBNdJ8gYxSHKhCNhpLRLRQOqN0s6FWvFBOc5kkKhwBVXXME111xDNps9wDpSsryRSIQ3vOENfOpTn2Lx4sWVYxlbckfc4OmsW7ZJFdDq1XndoghHhn14p5DQZTxkKfPW5lSBP/elGChlxJ2PKMDH2gO0elxn1lSZyndEDX1+KsyKuKbCeG2WO5vbX6fWaaWUpNNpnn76ab773e+yceNGMpkMtj3+Hitd16mvr+fUU0/l4osvZsOGDUSjUTwet1JI+TXyPMvWk5IARiJHnGf5L9qljYdpWxLV3JrQlOZPjz32GF/+8pfZuHFjxfKWh7JvfvObufjii+no6Kh4Tx0gZkpuHC6wu+DuOghqCuc0hnhFc2jM/JG1InELJNw9mOGB4Sy5eegoEcCbmnycHHLn2VNlsr5UZq7bnDVxOdLtHOUvX1T/oUl6RbnNST5GNBrFMAz27NnDT37yE2666SZ6e3spFosHzGVGomkawWCQ5cuXc84553DWWWexYsUKIpEIra2tqKqKlJKBgQEeeeQRWltbOfXUUyt7pSwp6StYdCVSZG2HpCUZshwGDEncdjAlnBjSeFXUQ0AR1Jeu3bIsstksmUwGIQSBQIBAIIDHsz+XSDyRwJSS3QWHPw0XiVsOihC0ejXesriO1SHvuNvfZ4olJS+ki/yuO8mgYR0QyvZic0JI5+Im74z751jMdZtjRsVPRvVJSeC+oQw7MwYRXSGkubnoZLGAR4BHuJ4sTbhDHLUUd1dO+yKEoC4SGS1AKVGEQJbmDD5V4FUEqaRbrI3S2lgymeSBBx7ghhtuYNOmTcTjcUzTnFBolMTm9/sJh8PU1dURCoWwLIt9+/YRj8fxer28+93v5ktf+hKq6u5j+81gge1516KM1bImBMfV+XlDWwQll0Edox5WmXIblpRY/hD3DGZ4PJ6j6Eg0IVgR9PC2UlWQ8dqYLaSE7oLJr7ri7M2Z8yqSvtmj8YX1i8gma++f4zGTPj8eI9ucFXHlLIevbOtn2Njv5q5YsFIHG/kC12U8stMoyuhM5q7o3P+WEpq9Gi9rCNDmGEQ0Ba3kgnaPSwzDoLu7m9tuu4077riD7du3k06nMQxjwqHjRLS2tvLQQw/R0NBA0ZH8JW7wSHrsuMsyAqj3aJwWVFgb0Iio7oNl/9W6LvKcIxkwHTZmLbbnHbIlL54qBKuCHt65pJ4mrzbnwiojgf6CxS87Y+yZRwLTFcHn1rXize9PfDoZ1f1zPGbS58dj1sX1SCzHL/bNvDTNZCgCQopgfUDjmIDKIo+Kr7TZcqQ1y+fz7N69mwcffJC//e1vbN26lVgsRrFYxLLcwuWTiU1VVVavXs2dd95JOBym4Ehujhk8lZlYXGUUwK8KWnWFVo9CqPQkyNqSActh0JBkHWdU1lpFwGKfznuWNRwUi1WNBLryBr/YG6e3aM4LR4cqBO9d1sAqph4/Wt0/x2MmfX48ZlVcjoQrdw6yNTP1i58pAvAIWORROSaoscqnEtUEemn4We6UkUiEfD5Pd3c3jzzyCA899BCbN2+mq6urYtWqxaYoCh6Ph/b2dj73uc9xwQUXIIQgaUmuH3BTy80FAoh6VN61pJ4jwgducz9YOBK2pPLc0JUgOQ8qkSgCXt4U4rxg9ZHxqUUIk1FLmzMW12DR4ktb+yfcNDmXqKXdq8u9Cuv8Kku8KiFV4BGChvro/sGYlBXnQm9vL9u3b2fHjh10dXXR29tLLpdDVVXq6+tZt24d5557LitWrEBVVSwJL+QtfjtYxJjE4tWKVxGc3xrmvJbwnDkvporpSG7rS3HPUGbaqRxmGwEs8Xv4UItnwoy8I6lFCJNRS5szFtf9Q1l+1TW10jRziSgV1q7TBEu9Cqt9Gkc0RYloCp4R1etHIkvRIcPDw5VIkHKgbXldy5IwYDr8ZrBAvzk3VksRbgf66Momtxj7PCBp2vxg1xA9hRd/eBhQFT7e7icyRXXVIoTJqKXNGX2TEticGjty4mAjcXOcD5oOT2UsbhwucNXuIf63K87fhjLszBYZNmyypS3wtnRzImqahtfrxe/34/f73QgJIbCkOz/alrf4/VCBgTkSFoBXUXhta5jQPBEWpaKHr2kJ461+Ir0ImFIyNIf3f66YkeUq2A5feL6flDX7wbCzhShNiv2qoE5XafZotPk02nweGjwKQU0ll05RXp61cMvl9BoOW/M2e4v2uAGzs0HZan18VdOY+fpeTLK2w3d2DNKTN+fs+qeCKgTnRXXOqZtaad9arMxk1NLmjMTVmTf52rb+F33YMB1EaRlAV9xhpFdRUKSDKvavOxUdNze+Wa7/MId4FMHFi6Oc0TiNGftBQgL3DmW4sSf5os2pKT2A1vo0Lm2dmqOnFiFMRi1tzuhR2ZM3R6VqP9gowhWITxFuednSy68qeBU3Qrz6y5Cl7RgFW5K2HIYMN8FLr+HQZzgMmW4ok3EQhAXgUxTWh6e+r+hgIoCjI74XfWjoSOg3nRfduTJdZhT+dHvc4L6kcVA6YRldCHyqQkhTaPGqdPg8NHs1QppSsT5F260v1V0w6SlYJEyLrO3OtebT96MIWB308rFVzVP2hB1sTCn5zvZB9uQO7vdcjV9V+PTaFhZ5xy72MZKpWqRa+vxkjGxzRuL65UCBLbnxI9RnE68iaPRoHBXxcXydn4bSArJW8gKKEVZKSnBKkRBGqTrinqzB44ks3XmLtOXMiwgETQhevyjC+a3h6kPzipt7k/x1IPOiblHxKIL3LGvghDo3jcJE1CKEyailzZqHhRKIW3PvwdGFYGnAw5va6/joykZevyjCyqCHel3FryroZTd7aRjjzqncjutVBGFNYZFX4+R6P+9Z2siHVjRyUtRPRFcPcM0fbFQBSwNTm6S/mCwLeF/0e+VI2J09tDIw1ywuS8oDqkzOJgKI6iqvbgnxoeWNnNEYpMGjlXJ1TB9VCEKawjK/h4s7orx3aT2rg170F3HBVhHigLTN85FGz4v/ILKlZGfWmBcjjqkyA3HBHEUCoZSe6Jcuref81giNHnfH7WygCHdRck3Ix3uXNfDy5tCL5gIXpfjD+Y5fHV0j7cVAAkOGRf4QSitcc6+yS1vHZxtFuOmM37O0gbUh75x5qlThWsYLWsNc1F5H8EVYwBXCjfqeCeUok1oj/6fCWF7XFwPTcR1Vhwo19yhZ2jk7mygCjon4uaSjnhavdkAZmbnApyqc2hDgrR31B11gM7k60zTZt3cvN914I9+/8kq+c8UV3PDLX7Jl8+ZRZV1ng4PwNUwJW0p6ilPblTAfqNlbmLIk3+zOjtoyMRMEsDrk5T1LG6j3jF0Xdy6xpOTRWI7fdCcO2oJpQFW4/IhWItOcdyWTSX59ww384Q9/YKC/H8uykFKiqirhcJhzXv5yPnLZZXR0dFT/ak3EDJsvbe0nb8/243R6aEJwRmOAt3Xsz2Y8FrV49iajljZrflTP9tOsyavx1o4o0XEKTs81mhCcUh/gFU2hg/b3ZSnL03RIJZN87Stf4aof/5g9u3eTyWQoFAoUi0VyuRz9/f3ceOONfPyyy9i3b1/1r9dEwZkf+TVsKdmbM+dkOjIX1CwuGLm7dmb4VIUL2+po9WovqldKVwTntYRZFdxfAGIucaQkNY05hGVZ3HDDDfzlttvIZrPj5nQ0DYNnn32WL3/xi1POFDsRCXPu5nPTQZbOpXCIODVqFpdaes0UARwb8XFEeO6SsEyHgKZw0eI6fAfBg+hI6CpMfQ7R19vLTTfeOG66tpHYts3DDz3EE48/Xn1o2nTlzXlT+8uc5gPpxaTmwN2C7fD55/tIz3AhOawpfGRlE8uqKgm+mJiO5FddcR6O5aoPzSqKgKPDPv5lZdOUrv1PN93E5V/4AqlUqvrQmGiaxpv/6Z/4yte+Vn1oyjjA93cOsi1TnBehY15FcFGjl2OD44dBTXUuNd0+PxVmJXBXU9ziCzNBACfU+Vl0EBOxTAWttCt4rte/HAl78ybZKT6gtm7dOq1hnuM4PPfcc+MOH6dC2rTpyb/4GybL2FKyZ0SxxflMzb1HE24k+kzwqwon1gfwzrCd2UYA9brK6oMw9yraDrtzk4f1SCmxzOlVbJFSYpc8ibWyI1ucV9HotoSeosOhIK8Z9eqoZ2azrna/Tus8s1pldKFwVmNgzh0shpTcMzh5UKwQgqXLlo1KJjoZiqKwtFRDuRZMR/K3wQzmJOd2MJFA0j40tp/MSFwNeu3CEMARIS/BeWa1yigClge8hOb4/BwJ+/IG3fnJHRsnn3wyDQ0Nlfwek6FpGuedf37121Nmb86gtzj/cslb0s2nP9+ZUc9pnIHl8iqCJX4dba5NwwzQFWj17a/LO1cUbMktfSmKk8yNlq9YwelnnDEl66UoCitXreLsc86pPjQlCrZbxXI+xvJZkkMip8aMxNXkGd9jMxkBVaHBU7vlOxhoQrDMP3lHnim2lOzKGjybLExoJbxeLx/+6Ec57vjjK8UkxkJRFFoXLeLzX/jClL1cI3EkPJXIsy9vzrvc8ZSiabrnKmp8FpmhuNSaIzXCujpjh8hcowjBssDByXybtx3+3J+ivzhxMpjFixfztW98g1e9+tVESxVbVFVFLRVsD4ZCHHPssXzziis4+ZRTqn99UiTQUzC5fSBN4UUOdxoP16lhz5u1t/GoeZ0LIG3ZfO65vpoml+vDXt67rIGwVvvQcq6RwM5ske/sGJzQoswWmhAcEfbyziX1RCYJA0un0zz26KP8/YEH2Lt3L5Zl0draykknn8wrzj2XlpaW6l+ZFAkkDJv/6YyzLVOc13un2jwKH1rkr5RsGslUrXUtfX4yRrY5I3HZUvJfz/czZEx/q//xdX7eubR+3jo0KHW2zrzJN7cNTOrNmy28iuDEaIAL2+sIT1KPq+yeNww3v4Wu6xMOFydCAinT5g89SZ5J5g9a8HKt1GsKH1zko36MnQy1CGEyammz5qj4Mj8fyLM1N/1Vhw1RP+9YUl/z0NBxnEqwqlEsIoTA6/NVal/V0sGqkUB33uTr2wewDmJn86kKJ0b9vH5RhIg297uAHQkJy+bm3hRPJ/KTOlbmA2FN4YPLG1kTOnAtcqqiqbXPT8SsRMWXaZvmdokyluPWKK6FYrHI9m3buPK73+Wyj3yE9733vXzgfe/j3z7xCX51ww309vRgmpO7tqeCJWs/z1op2A5PxHP8X3eC/uLcRoGbUtJbMPl1V4KnErlDQliU1uB6C9MfMR1MZmy5NmYtfj049ZCcMmuCXt6/vIG6aYqzUChwy5/+xDVXX013dzeGsT+6QVEU/H4/6488kn//9Kc55thjp+S2Hg9HwguZAj/YOTShk2Gu0BRBm1fjta0R1oa8+FVl1qyYI10nyvOZIrf3p+grWHMq4tlGE4LTGgJc0lF/gFOtFiszGbW0OWPL1eqZeF4wHhnbmfZeJsdxuPOOO/jmN77Bnj17RgmrfDybzfLM00/zhc9/nu3bts0ors7BLdU6vbOcPSxH0p13Kz7+pjtBV94gbzszcq44EnK2w768wa+7EvymK053fm6t41xgS8mQYc2r6JFqZiyuelXgr+FxmrFs0tPMMT88PMz3vvc9YrHYhPFylmWxc8cOfvrTn1aKedeCLWF3dna3zE8XB0hbDk8l8ly9e5hfdyXYni2SMG2KU0xy6kg3PXfctNmaKfCrzjjX7B7mmWSe9DwsND4VZOm+1OKpPljMWFweRdCoT19cBUcyMI3QGikld/zlL+zbu7f60JiYpskjDz3Ezh07qg9NGUtKuqYQlnQwsKQkZto8mchz3Z5hfrRrmD/2JHgykWN31qC/aBEzLJKmTdK0iRkW/QWLXVmDJxI5/tCT5Ee7hvjp3hhPJwvETfuQs1bV5G1JZoo7Cl4MZiwuAbTXEAZlOW4euulMoB9++OFpDfMSiQQ7duyY1u+UkSXXdHyehdnY0s1x35U3eHA4x6+6Ely9Z5gf7hzih7uG+dGuIX60a5gf7hrmh7uGuGaPa+0eGs7SnTfJzJNsw7NB0XFz/c9XZiwugCWe6Tcjge2Z4pRTZUkpGRwcrH57QkzTJB6P1yQuW0qeTtbilpZI28YpFrFyWaxMGiuTws7ncEwDOe32xkaWrFnedkiaNoOGRU/BpDNv0pk36CmYDJYsWd52XK9ndSOHOIbjejrnK9NXxRgs8da2FhM3bXZmjSkPTwKBQPVbE6IoCn6fr6Y1r6IteTKen1KHlI6Dnc+R69rLwCP3s+fGG9h63ffY/N0vsemKL7Dpiv9i85VfZvsvfkT37TeSfH4TZibtJrWfZWTp9VLAlpL+ojVvLfGMXfGU9iR9pztHooY8a6tLLvnJ0jpLKfn2FVdw1Y9+VH1oXOrq6vjulVdy9jnnTEtgjoQnEzmu74xPuHgsHRsjmSC+6UmGHn+Q1M5tGOmUa6Fsy7VS5V8XIBQVRdPQ/AFCy1ez+FWvo3HDqai+yYsLLDA268M+PrSicVQYVHX/HI+Z9PnxmFVXPKViCe01DA0BOvMGz6eLk1ovIQQXXHAB4fDUKoIIIVi7bh1r166dlrAA8o7DnYOZCYVl5bL0//0eNl3xX7xw7ffof/h+sr1dmOkkdiGPY5pI20Y6pZdt45gGVj5HITbE8MbHef6ab7Pr/36GlZ/bXB2HMxnLpjhPA4xnFFtYRgL3Dmb4TffU2xhJm0/jwyuaaJpkV7JhGHzrm9/k+p//HNueeK7W2NjIf/33f3Pe+ee7dY6niCPhrwMpbulLjz3ckJLC8CC7f/8/DDx0L2Y2jZzkXMZFCPRAkGPe8QFO+6e3IYRASne4Yzjuq1j6aUmJ5chZz3J8qFOvCd7V4qdtxMO9un+Ox0z6/HiMii2cDXEB9BZMvrK1tgBXVQhe1hDgze11EyaFkVISj8f52le+wq233HLAIjIli9XQ0MC/fOQjvOXiiwkGp14OVUrYmzf48a4hUuO4eAvDA2y77kqGnnoU2yjOeN4khKBj+Qp+c+NNhEIhKD2syvXFTEdSdBwylkN3Mk2/4dBlOAyaDnnH/cxLmYAieHOTlyMD+/cWjtU/x2KmfX4sRrapXn755ZdTCiuaKj7fgWVGvYrCk8lcTesOEhgoWkR0lcU+fdwc8UIIfD4fp556KkuXLaNz3z7y+TyUtrSHwmFOOfVU/uOzn+XV551HIBCY1pAwZdn8bF+cweLY7l07n2Pvjb+i9747cYzZW1z26hpvf9tbiYZDeEpZtbyKW342oClEdJVGj0bUMVnp1zg6qHFsUGO5191Pl3bkrKUVP/QQtHtVlnn3z9nH6p9jMdM+PxYj25w1y2VL+L+uOA8MZ6sPTZmQpvKupVGOCvvGFRglC2ZZFul0mv6+PoaHh9E0jeaWFpqbmwkGg9NOypK3JdftHeb59Pi7gTN7dvD0F/+NQmyo+lDNCCFY3NHBrbfdRigURNol17IQCKG4P3F/jvyOZMnSWkDCcngyY/J42prTmmnzEUXAKSGdf2zYX6BvrP45FjPt82MxJ8NCCWxJFfjRrtqDXEVJYO9cUs9REe+EAiszcg1LCDEtS1UmZzv8fF+cLanCuNvapeMw+NC9bPreF3GssS1bLXg8Ht77vvfxyU99CquQZGDHfUjHRggFoagIVUPVfOi+CJbwo3rrUDQfQlFLd8y997aUDJkONw4b7D1E8vrNFusDGm9t2l9uaqz+ORYz7fNjMbLN8Sc400QAywOeGe0slqXdzT/fN8yDw9kpzd8URam8ahHWsGHzw11DbEnlxxWWi3RfE35meiiKwrLly3nv+9+PQJJP92MVs9hmHsvIYhZSGNkY+WQvqYGt5PqeIdP5AOm995HteworN4R0LEQpSrzVo/KeVh/HBLWa7sWhSsaWGLP3tcwasyYuSrtolwdr3+JRJm9Lftud5IbOxIzTZY+HLSWbUgWu2DHI7qwx7lBQAEFFsD7o4U3HrKG+oaH6IzWhKAqr16zhW9/+No2NjTi2QWZwR0nE1ZRFLZGOjWPlMdO9ZHseI73vAYx0F1LaCMCnCN7c6GWpf+oe0kOdnCPJzkPPzqyKSxWCDXW+A/bX1IIlJY/Esnxj2wCPx3MUnJmH75SHTz0Fk1/si3PtnmHixoFbSsqWoM2j8IYGLx9rD/DOFj+vWreSD37gA9N2lIxECEEgEOD1//iP/OjHP2bJkiVIxyY7vAezMLUc8GWkdHDMLPn+Z8n1PYVju95TryJ4w6JITVEzhyJFR5Keh+KatTlXmbhp8+UX+snO4sKeKtwch69oDnFEyEtIUxAIhJi4OmP5djsSDMehv2jzwHCGZxJ5co5zwAhPlMq5tnkUzo54WOPX8FU9fnRd50833cRPrr6avr4+bNueMHaxPA9UFIVgMMixxx3Hpe9+N8cceyyapoF08KoGgzsfwLFm5oH0hDsILDoOEPgjEf7r+X4SU4zdPJTxCMEFDR5ODbvWeqL+OZLZ6vMjmROHRpmiI7lq1xAvZGbWUcZCFYKornBEyMv6iI82r05YU/Ao7g7dstCckuXL2Q4xw2ZXtsjGZIG+okVxDFFRMuH1usJZEZ3jgtqIPWrukEw6FkLRiNY3YFkW3d3d3Hrzzdx33310dnaSzWSwRjg6hBB4PB7CkQgdHR2ceNJJnPPyl7N06dL9u6Olg5UfpjC4CcuYeZSGonoIL38lQlEJ1dXxze2D7JtCHvpDHUXA2REP59V7UCbpnyOZrT4/klHimo3YwpHYEp7MmNw4XDxguDVbuBZG4FUEIU0hrKsEVQVNuNaqYEtSlk3KciiUIsLHm1NR2pN2TMTHG9rqaC5HiUiJlDZmIUU2todCqp9gw3JsTzNCcRcsHcchn88Ti8Xo7+sjFouRz+fRdZ22tjaaW1poaWkhEong9XorQ0kpHRzLIDO0k1T/89jm1NdbJkJRdTqOvRBF8zIcT3Bdf57dhcPfcgGcWh/g7Uvq8SijlywmYrb6/EhGtjnr4pKldZcf9OQPiTUXvyI4rzXCK5pDleBP6dgY+QSZwe3kEl3YlhuJoWhe9HAH3rplCM3rrkONMzAddT+lRCJBOthmgUKqj/TQTozsMFKOP6ScLqonQMcxb0AoKkPxBD/uy9FTnL325zPrwl4+sKyRkKZM2D9HMlt9fiQj25xVhwalruZXXGfAfCegCF5b7+HVLSVhSYlt5kn2bmZgx32kh3a6VqU0jnSsIsXEbrK9T1CM7cDKx3CsPNI2kY6JdKzSy8SxithmHrOQopDuJzO4neE9j9G/7W6G9z1GMTM4q8IC8AYbEYp73w0pSb2EwjbSpkNuFuf5s8GsWy5KQ8NnsiZ/GJ4f1QjHwqsIXlPv4eSQRlN9PVI6GNkY8a6np9bxhYJQNBTVg1C97lBRlB4o0kFVJI5tYFsl4dnW5G3OAEXz0rL6bHzhVgAe6R3m+v6p7Uc7HIjqKh9c3sDKoHfS/llmNvt8mTm1XJQ8bit98zcXvAIcE1DZENTcOsxSkk/2MLjr7xTS/VMTgXSQtoFtZLDyw5jZfsxMr/vK9lNID2DkEthGFscyptZmTQgUzUNd25H4Qs1Qyun3aNrNwvtSwXQkyTlaE62VOev9fkWwIjDzBeW5IKwJzo16KmVnC5kBYnsfwypmqj86fxECoWjovgiNS08m0rIOhIIDbEwW2JE//B0Zaqm6abNHY3nQM2be+BeTORkWUhoadipert0TG3tf1IuEAM6q8/DqqAdduPOoQv8TGLl49UdniVK8oyiHZ5XWDEbcktFWrXRAln0l+zuMUFSEUFAUDc0XIhBdgi/ShuYNIoSCI2FPzuCne2MMz+PELTNFERBUFY4IezmlPkirVyOgKvhUgVYV4DwRs93nmWtv4UicQJhvbh+YVwuZmoB/aQvQXkpmWkzspjD0/CwP2wSKqqGoOqoniCdQjydQj6b73YBbobh/TwI4ZNJppHQQSDcfo3RcdQkBKK6TQqiEI/Uoql55CVUveSzdZC07skX+ryvBwDhbZg4HVCFY5NO4eHGUxX4df2mNcz+SRDwx4pk0vjWbiz5/0MTlC0f4TXeCR2K5eTP+D6qCj7UHiKiu+ch0PoxViI82JbUiFBTVg+qNUNeyCk+wEVXzoaius0OUrVaZknVKJBKT/3kB0Wj9qLdkaa4RN20eHs7yUDxH2rQnbepQRRHQ4dN53/JGmjwaqnC3H0nbxLaKOKVXOp2EsqVX9BE/tVGOp7no8wdNXJG6KC9kCly9e3jelKSJaoKPtgUIqQIpbdJ77sOxZhgdIRQUzY8ebMUTaUfRAkQbmipWBcCR7hZ9yX5RlXWWTJQ6wzgPWSndX4nU1eFIiSEleVsSMyyeSxd5NpUnbtjz5h7PFSFN4aMrm1jm9yAEOLZBIdVPZngXZj6JY5tI6exPXydwLb8QIFQUzYceaEYLNqPoIeobGqv+wvhMtc8fNHFFo1Fihs0Pdg3Om4oUdargsnZXXEiH9L4HsI0aU14L4Yoq1IYnvBhFD1T2WdVFo5iOJG3ZDBs2g0WLmGFjSDcfhiYEojRMtYpFFOF6WUv2DUW481ZZCuUyJdi6h5Rpuy/LIV/Kt2/NQlDzfEcVcFI0wDuX1qMJgWMZJHu3kBnehWMVpzisFwhFQahe9GALTUuOQfNGphSEPZ0+X2bWYwtHkkgkMBzJ35Im9ybnh2vYryp8dm1LJRlObO8TpAa2TnNY6Lq//XXtRFrWofvr3KEfAlu6e9I2D8TZlrfpNGyypf1G9hiJOQWl4N6q98qUPy9HWr+S6F5K6ALe1uxzc2VIiZkbINf3DNKpLSmoUFQUPYC3fjV6aBFCTLwPcTp9vsycueLL6IpgnV+dN27SouOwLVusbIwMt6xB0aeWH4HSl+INNdK47GQalp6IN9iIourYUjBk2Nw7lOEne4a5KVbkqaxJn+GQst3wp2ZdYZVP5Qi/xhF+jbV+jdU+lTVBL0sDHjQhKDqSwohXcVQGKDfC/6UmLEqOjMZSFUkpbcx0b83CAjfEzS6myQ9uoRjbMaO2xmPOLRdA2pb8erDArnkSRLos4OGylU2ENAWkZKh3O7nB53CM7AQWTKBoXsLNqwk1rULzuENACaRLBRIeieUYMNzIe1HK51gsDdlW+VTe3ORFr7JSEojURSjYkv/rSvBcenaCeA83fIrg4+0BoppA2mZpJ/b00puPh1A0PJEl+BrXVYKyq5lun+dgWC5KC8rHBFzvznygJ29y/3AG03Hd3Zq/ieCiDXjrV6J6Qvs9SuX1KdWLJ9xOYNEG6tqOQveFEIpK0ZFsSub52b4Yt/Sl6CwYmI6kzadzftTLRY1e9JLFzjqSOlUQUgXBEa+QKohoKnW6SvOIDEYLHEilFpcQKPrsZSmWjoWR6qQY246Us2cADoq4NAHLfCqheTI0NKXknoEMj8ZLeTqEguoN42tYQ7D9FIJtJxFoPY5Ay3EEF20gtPgU/M1Ho/ncdSZHCvqLFr/vTnBDV4LtGYOiI2n2aLypvY5/Xt7IyyI6a/wq9ZprqRKWJDfBnFvBjY9bYGxsKekvVZwRQsUTXoxQZi+VgXQsisl9mKmuCUYv0+OgiItSZtSV/vnTebK2w029KW7uTZG1JRI3nEjRA2j+RjyhNvRwO3qwBdUbQag6UghytsODsSw/2TPMo/EcKdPGpwrObQ7xzysaObMxSJNXwyPc4ODVPje3YNGR9Brjq0sRC+KaiPI+QUu6lkv1RvBGl+0Plp4FpGNRiO3ALk4v3cJ4zN6ZTYJXEaz3u51uPiCBjOVw71CGn/bneThtkrQcLAmyEq6k4MbrCfKOZGve4ie7h7mxJ0lvwcR0JCuCHj64vJHXtoZp9ep4lP1zKgGs8Koopb+3Y4LlCIHApyjjrnW91HGAPQWHPaV5u1B0vHUr8ITaZ1FgEscukB98DumM/11Nldk6q0lRgMVehSb9oP3JKWGULMpfYkV+3Jvnur4cNw0X+VvS4O8pk7/GDX49WODq3jy/GSyyPVskV6pLLIElfp1lfn3cYuBNHoVy1egX8va46adlqQPN0ojksKTgSP4UK5IoRb8LzYOvcR16oGX8FfjpIiV2MYmZ6a0+Mm3mtqdLB8fIIh33aRNRFdYFtDE74YuJBEwJKVuyr+jwRMbk7oTB7fEi96UMtuQsBsbJzb43Z0644zqguIl0AAYNh85xEnbaUrIvNz/WAucrEohZDv83WCylUhMoug9/85Fo/saqFcLakY5NIbYDWcqmVStzJi4pHczcINneJ7CLbniPLmCNTyUw39RVomw9bAlW6WVPsrbUX7QmFMXIG+wA96XMMSuVZGyHp5Ju3vsFxseW0GXY/HaoUHqouZ5Df/NRqN6plZeaHIm0izO2XnMU/iSxCgnyfU/iWAbBppU0LTsVhCBjOVy/L8am1OGznrPOr/JPTT43pKpE+X72FEy+vm2gEvenAm9cHOXMhiC6AjaweyjOzcNFdhUO36Db2UZXBMfX+bikowG/KpBSkk/1MLz7EWxzNh5SAm+wgUXrXoVQ9Sn0eZeROpoTy+VYBfL9G7HNAlI6FDODWKYbHBtQFY6J+CsbFQ8HdhUcHs+YB6RUlsBTifyooaQN3NiT5Ctb+/jOjiG+uXWAq3pzC8KaJqYj2Zgs8Oe+JKaUCCHwhxcRalo9Sw4OiWXkKOanJqqxmI2zGIV0bPJDz2Mb+3f12kaefMo1sYqAtSEvTZ6xV8IPRUwpubc0R+s1HDK2ZKBocc9ghrsHMgdsFrWlZNCw2Zkt0lUwKYyo7rrA1DEcySPxHI/HczjSDU0LN69C9dZVf7QmHNsgn6h93Wt2xSUlZrYPM9M36m3HMcnFOyvuzQaPytqQZ945NmZCUcLDKZOf9OX5QW+Ob2wb4I89CfITZONdYOZkLIe7BzL0F93YQM0TxBNZPG4Y03SQjk0xM1RxyE2XWRWXdEyKsR2lnbQjD0jMfAKjZGLdJJx+gvM0gU2tSCDvSJKWJGs7B3gWF5gbBooWDwxn3fAoIdCDrSj61CuKToRt5t28lTUwi71bYqS7Rw0HR2KbBXKxfZV9N0sDHhb7PbPkPF3gpYwpJZtTBfpKi/RC9aIFmmZl7uXYJnaNqcZn/tdLSMemmOwcd3wqHZtCur+SujmoKhwT8VUCWxdYYCbETZstqQK2lAihoAdbZiX2UEq75jz+syYuKzeMNCfe0WsWMxTS/YBEEXBU2EeDZyGeboGZYzqSbZki+dJYXPWEUDRv9cemj5Q1V5+ZJXFJjEy3m7loAsreF8fe79hYGZhaedYFFpiM/qJJzCg5HxQdRQ/MOGpDSrfgYC3MirikbWLlhqvfPhApKWaHMfNuxIZHEZxc7ycwXzZ6LXBIk7Ulg6V8jUIoqJ7IqCRBtSCEKOVFmT4z+8slrHxsynFYtpknn+ypODaW+D20+kplexZYYAaYjsOwYVXCyxRPaBYCegXqNNJAjGRWtvkP73mU9OD2Ue9NhOqLEmw7EUXz4wCPpk1uj7sbDhdYYCa8LKxzyYoWPIqgmBliYMe9M6p/pmg+gm0n0bhoefWhMZndbf5SUshML5eBY2Sx8jHXsQGs82tEFjYKLjALDJlO5SGtevwzXkwWio7QarNc0xKX4zgUCgUMY/8Q0Lby0y5gIB0LM9NXidiIqIJ1Ia9bcWSBBWZA3JJkLNcBoageFHUG7nihoHrrEKpbUGQyh101E4pLSolhGAwPD7N582ZuveUWvv+973HfvfdWimwb+WQNuzYldiGOXRKlJuD0hgC+BcfGAjMkX0rvDW6soe4NTynp51gIRUOPLEYIhWw2y4MPPsizzz7L0NAQhmFMKrYx51ymaRKPxXjhhRd46qmn2LxpE319fWQzGYrFIj++5hrOPvtsFEUh1f8CsX1PjGxzaggFX/0qvA2rEULFG47wo13D7MrN34J5C8x/VAH/tDjKWY0hVAHpga3EOp+evgEQAi3QTLD1BFA09uzezWf+/d8pFou0t7dz/AkncPKpp3LUUUfR0NCAprnDz5E6GiUuyzTp7Ori7rvu4sG//52e7m4y2SxGsVixVJqmcdPNN3PE+vUIIRje+zjpga2VBqeD6okQbD8RRQ9SF43yRDzH/3bGFxwbC8yIMxuDvHlxFJ8iMHIx+rfeg21Nz6mhaD4CbSeh+erIZnP89Npr+dUNN2CaJqqq4vF6CYdCLFm6lHPPPZd/uOACFi9eTCazf4pUGRYW8nluv/12/vMzn+GX11/Pls2bGRoaopDPV4QFoHs8RCKRyr+tcWIJp4JjZbHycZASgbsVJaypC275BWZEd96kUKqPrHlCKPr0IjWEouNrPALVG8GxHZ5/7jnuuP12TNONvLdtm3wux8DAAM88/TRXX3UVH/2Xf+Evt902yh+hUJpbbd68mWuuuoodO3aQyWSw7bFXpTVNwx8IVMaxtlH7rk/p2Bjp7koq4bCmcnK9fyFiY4EZETdt0qUkNoqqE4h2THkhWKg6/qb16KFFgGBgcJDrfvITBgfH9ojbtk06nWbr1q18/WtfY9++fZW5WMVyZTIZ0un0uKIqo2kaqlo6USlxZphj2y4mS5H0brzhyfUBvAuOjQVmQM52F5Ml7twp1LgCZQpBvIrmw99yLHq4HaFopFIpfnL11WzatGlSXdi2TSIeJ5fLjRaXEIJjjzuO17/hDQSDwQm9KyOPSYAZbgaUtomR7q7EGzZ7NFYHDq+NlAscXExH0pU3sUpzd80bJlC/ZIJQKIHqrSOwaAN6sAWESjqd5uof/5i77ryTQmHy+VowGOSd73oXK1euRFHcv1NJUBOJREilUjz91FP8/Gc/45mnnx6lwjL19fX88U9/IhKJIKUkveceHKv2oSGl3aOB9lMqG9y25S3+d6BwQE6KBRaYKuv8Gm9p8hIsjYIcM0+293HsYrpsFqA0bAw3ryXcshbV4wfcmsr//V//xT133002mx3R6miEEPj9fo497jjedemlHHnUUXR0dFQM0KjsT1JKLMsik07T1dXFnXfeyV9vv53u7m4KhQKO4xAKh/ndH/5AS0sLAOm9f8M2xj+BqSCEgq9pPd46Nz1xwZFc3Zun33TG2R22wAIT06ApvK/VR2MlCa3ENnMUh7e60UGKSii6hFDzKjRvCEXVcBxJT08P//5v/8bGZ54Z02IpioLP56O9vZ1XvvrVnH3OObS1tREIBNA0jfr6/aV1x0ytJqXEcRxM0ySXyzE8PMzGZ57hnrvvZvv27Vzxne+wdOlShBBkuh7Gyk8hIn4SVE+YYMfLUFQvEngkbXJrrLiwVX6BmvAqgne3+FjuG+l9lm5JV2khEdTXN5ZSlgtM0+SBBx7gy1/8It1dXViWO01RVRWfz0e0vp7169dz1llnceTRR9PQ0IDf70fTNBSlVBq2urLkWOIaiZRuhXnHcbBMk0KxiGVZlUWzXP9GjFRn9a9NGyFUAu0nogeaAUHScvhBb4FMyaW6wALTQQCvb/Ryakgft3RVNBrFcRy6u7r4wfe/z9/uuQfHcYhEIixdupRjjzuODSeeyPIVKxBC4PP5RolpLN/EtMQ1FiNXoYuJ3eQHt4w6XitaoJlg24kIRUMCt8SKPJwyF4aGC9TEMUGNixq9E1Y1feThh9m1axeLFi1i+YoVtLa2EgqFKkIqiyiZdPcgTsasissuJEh3/n3U8VoRik6o4zRUr7tI3WM4XNWb31/0bIEFJkEVbolXXUC7rvCWZh/hcUxXOBxGSllZWhrLEpWZ6pasWRWXlA7pvffilDLqzgghCCw6AU+wDYTAAX43WGBP0caUbrEER7rFEMaS21jvLXBoMVb3VoRAFaAJga4IvIrAryoEVEFIU4loCnW6Sr3uVuiU+Sw+ReAV7m738Rzwtfb5iZhVcQEUYtspDNcWX7gfgR5qI9B6zKisPYaUmI6bPqsowRMIkbMdMpZDxnbI2jY5yyFnl4p02+5+nqIjKVpWpaCCIyUOArf09wghyv3f6GQGcpLDLwnG6vwjEZX/K/9w/18R7qLqfqG4NaNVJB4BHiHwKm6JX58iCCiCgCoIKgK/KmipC+NTFDyKKzC11E65zZHnVd0/x2MmfX48Zl1cjlUk0/kgjlWj9RIKmr+RQOuxKNrEtW6rz1OWnS641Ugc9lu3WDKJJWVFYIaUGI77s+hIDOlWfFS9PoqOg2FLTCkxHPd3TEdiOrLUhvsyS7W5bGSl+kn57448H4QYLeAJxOme/VQYv2tXHym3Wf3+SASlHBEjf1aE4P5bKQ2zNAHScdBKwtBKnVsv/benJBZdgYjfrQXgVRXXgpRenhHi0EttZlIpVyRCIJAVoVSfd/X3PhHV/XM85rrNWREXgJnpJde/cdqh/UJRCUQXo9atLgmr+raOZqbnWY0stSlLFmykUOUIsbiihXgyiRwhYqdUXMGRrtgcBI6U+EMh998loTslMdqjHgSuANJZ96Hkvj++1AL+8R88ithfB0wAxXzeFQfu++4T3v0pSnMTRUAkFEYVwhURJWswysq4xxQgnUpV2tovSDfo2n25fysajU7yLe5nKt8Rc/C9cxDanDVxIR2KqU4Kw1uRtjnBc9pFCAVF8xJpWUuoeTXp7NRyw834PMdgPrU50V2brM2RHXquz3MiFtp0GXOz5GSMd1Ju4vpBkn3PU8wOIW1r1JBHIEAIhOpBD7biCbejeCMIoY7bZjWzcZ7VLLQ5NRbanJyRbY7nSKkJoaj4Iq00rzyd1jWvwN9yDL6G1XijK/BGV+JrOoLgog2EFp/q7pfx1SPE1LYCLLDAocasistFoGhevKEmPJHFeOtX42tci69xLd665WjBFhQ9OOX9NQsscKgyB+IaiUAIBSHUSgzXAgu8VJhjcS2wwEuXBXEdRpSDrKXj4EzhVb1Xb4HZZVa9hdUstDk1ptpmLBbDtiwM06RYLFLI58kXChTy+Uqy1mKxiGWaeLzeA8RjWRZCCFRVrWylkFISiUSoi0aJRqN4vd5xY+ymep5zce2HYpsL4prHbUopMU2TRCJBZ2cnWzZtYu/evXR3dxOLxUin0xQLBUzTxLZtbNuuWCWEOCCeqyy2cqS3oqqoioLH66UuEuGoo4/mwje9iVWrVlW2FI1kvPOsZjauvZpDsc0Fcc3TNg3DYNvWrfz1jjt47LHH6O3tJZ1KuZbJsvaLaJYQQuD1ejnq6KP5yte+RnNzc/VHxjzPsZjptY/FodjmwpxrHpLP57nxD3/g3z75Sa7/xS946skn6ersJJlMUigUKuKaTaSUFAoF+np7yedqjBFdYBSzF/40BgttTo3qNre+8AL//qlP0dPdPesimghFUXjd617HF/77v0flgihTfZ7jMZNrH49Dsc0FyzUPGR4eJh6LHXRhrV23jve8//2Ew+HqwwvUwIK45iHLli9n/ZFHjulUmAv8fj/nnX8+X//mN1m3bt1B+7uHOwvimoe0tLTw+S98gU9+6lOcdPLJNDY24vP5UFV1XDd5LSiKwooVK/jyV7/KFy6/nCOOOAKvd3p51RcYn4U51zxt03EcisUi+VyOdCZDKpkkm82yd88eXnjhBXbs2OFWoclkKmnApkvHkiV857vf5cijjsLn800q3LHOcyxmeu1jcSi2uSCuQ6DNsts9HA6761mlheRsJsOOHTv4wZVXsnnz5mnP0U4+5RR+dNVVNDY2Vh8ak8nOs8xsXnuZQ7HNw35YWA4JOpRRFAVN0/B6vQQCAcKRCA0NDXQsWcKZZ53Fd773vVFlnabKnt27eeqpp2q2fAtMzCFvuaSU5PN5uru72bljB91dXQwNDZHJZEbl+S6H+4RCISJ1ddRHo9Q3NFBfX8+SpUsJhUKVDKoTUet5TsRM29y9ezdveN3rJsxrPhaKotDc3Myb3/IW3vWud9HY1DTh0HCm5zkWh3Obh6y4HMehp7ubu+68k5v/9Cf27dtHPp/Htu2KpRppr0Z2mXL4j6qqqJqGz+cjHAqxuKODE086iTPOOIMj1q8nGHQLQ4xkuuc5FWbSpuM4XH3VVfzgyitHFV6bKuXIjJNPOYWvfv3rtLe3V3+kwkzOczwO5zYPOXH5/X42b9rE737zG+677z7i8TiWZc146Fd+YpcT7a9Zs4bPfu5znHjSSaM+N9XznItrL7dZjqbo7u7mj7//Pb+64QYymcyM7oHf7+dLX/kKF77xjeNar+me51Q4nNs8ZMSVSqV4+KGHuOVPf+LZZ5+d9hBouqiqystf8Qqu/slPKvWWmMJ5lhl57bJUPaZYLFIsFjEMA6P007IsEomEG9JUysnvOA7ScbAsC9u2MQyDXC6HZVkMDgywb98+du/aRXd3N+l0etqOjLHQNI0vXH45b33b2/YXN6yilmufjMO5zXkbuCulxLZt9u7Zw2233catt9zCvr17axr6TIWK5VJVWlpaOOvss7nkkktYsnTpqM9Vn2c1juOQz+V45pln2L59O7t37aKrq4vh0jwwX9oa4tg2dklEEjcnIFUOmPJ/y5Loyj9nGyEEixYt4qtf/zrHHHvsuJZrsmsvM5PvfTwOxTbnlbiklDi2TSaT4bHHHuPPt97KIw8/zPDw8Kx1qnLHEUKgKAqqqhIqVWU/8sgjOWHDBtYfeSRNTU3o+oGlPie69kwmw+9++1tuvflmdu3aVbE285Hy9Xs8Ho47/nje9e53c/zxx0+4iDzRtY9kut/7VDgU23zRxVW2UH6/nx3bt3PnX//KA/ffz+7du8esbDlVyk6LcidSSvuWonV1LO7oYOXKlaxavZqVK1cSLXkOA34/6iTewvGu3TJNvvylL3HjH/9INput+bzngur74PP5WLZsGSefeipHrFtHuFQlNBgM0tHRQTgSGXNoON61VzOV773M4dzmQRdXeWhj2zbFYpF9e/fy0IMPVoZRydL8YzKqxSMUBbW0HhQMBmloaGDpsmUsWbKEjo4O2trbaWltpaGhgXA4jM/nQ9d1hHDLdE6V8a49kUhw6TvewZYtW14UYVXfj7JV9nq9RCIROpYsYe3atRyxfj1r1qxhcUcHQ4ODfOXLX2br1q0YxSKaprG4o4OPffzjHH/CCaPmmkxw7dXMxv2s5lBsc07FFY/HKxN0y7IwTZPh4WG2vvACzzz9NFu3bqWnu5tkMjnK41ceuimlImPljlLeORsIBKirq6OpuZn29nZaFy2iubmZhsZGonV1hCMRgoEALa2teL3eSp2l8ZiNay8UCvziZz/j2muvJVsKSZqpyMrnXC2cioBUFb20lBCpq6OpqYm29nYWLVrEihUraG5uxrIs7rrrLvp6e9F1nZUrV3LhG9/IylWr2PTss/y/j32MgYEBbMdBEQJ/IMDnPv95zjr77APW/Ma79mpm435Wcyi2OSviKlujsogsy6JQKLBr5052797N9m3b2Lt3L/39/e729FSKQqGAbdtQ6jyqqqLrOh6Ph3AkQnNTE+2LF7tWp62Npubmyh6jYDCI3+/HW7I+mqaNGdRafZ7jMZNrH0k6nea5LVu45+67efDvf2dgcJBisYhT2n5fFtvIh8hYolFVFY/HQyAQIFJXR0N9PU3NzZXIjLpolGAggKbrUPJE6ppGuK6OpsZGwpEI7e3t2LbNv//bv/HXO+6gWHTThXu9Xo47/niuufZadF1n06ZNbNu6lVgsRigYZPWaNaxctWrMNb6Jrn0ks3U/R3IotjktccmS5yocDlcsUbFYJDY8zN69e3n++efZtWsXvT09JBMJkskkuXweo7Q1vfpJLkoLmI1NTbziFa/gtNNPp6Ojg0hdHYFAoFLdT9f1SuebynmWqeWGTMZkbVqWRSqZZPfu3QwPDxOLxcik05il3cNCiMrDQC9dW32pvq6u69i2TSwWIxGPo3s8dHR0sHTZMurr6ykWCiiqiqIobNm8mWuuvprenh7y+TyO46BqGqFgkLXr1nH5F79IXV0df7vnHr777W8zODQEQF1dHZe++91c9OY3EwgESCQSlQfjSJGPxWTXXmY272eZQ7HNCcUlS09FwzDI5/MkEgm6Ojvp3LePHTt30tfbSyKRIJNOk8vlKBaLmKY5Zc9eQ0MD737Pezjz7LNZtWoVfr9/zIn0SMY6z/Go5YZMxkRt5nI5Hn74YW656SZ27tpFLpvFNN2ys5qq4vf7aV+8mFefdx6nn3EGgUAAAUTr65FSsnXrVr50+eV0dnWRz+dBSrdy/OLFfOKTn2TtunWV+3PTjTdy3bXXVuaoUkoURUHTdVqam7n62mtZvXo1pmkyNDREKplEAqFQiMbGRvyliimzde0jWWjTZUxxOY5DLptlX2cnTzz+OBs3bqS3u5tUOk0um6VoGJiGURnW1YIQgve9//1c8o53EIlExtxWPhZzfUMmY6I277rzTr7ypS/R09uLZZrVh6G0OB2NRvnMZz/Lua98JZTaNE2TX91wA9/+1rdGeUmFEPj9/sq98ng8UHL7d3d1sWfvXgb6+zGKRYKhEG1tbSxbvpyjjz76gDnTWMzWtY9koU0XkU6lpFVaWyrv6dmxYwe/vP56nn32WeKxGMVicUZCGgshBBs2bODS97yHxYsX01QOGi0Nmzy6jtfrxeP1jppPzfUNmYyJ2tyzZw8/uPJKnnj8cRKJBIZhjBKJruuEw2GOPOooPvLRj7J8xQootek4DoMDA/zxD3/gwQcfJB6LVWqHnXLKKbzpzW8mFAod4MErp1QrWy61NGyc6DxHMlvXPpKFNl3E+9/7XpnP52lububt73wnLc3N/PunPsWmZ5+lUCiM+sXZxuPxEI1GCYfDqCMqp2uaRiAQoLGxkZWrVnHcccex/sgjCQQCU75IpnHzZqtN27ZJJpMM9PeTSCTo6+sjk05XhmMtLS0sWbqUtrY2GhsbK0IptylLMYOZdLpy771eL6HS0kFDQ8OovzcRE53nSGbr2key0KaLOPecc2RLSwtnnHkm/3jhhfT39fGJj3+cnp6eUb90MCmLTBmRsPLsc87h45/4BC0tLdUfH5dabshkTKXNstOnnKST0rKCWsp0W+0wmEqbzMF5stBm9VvjUkubyrHHHUdjczO9vb3cduutaJrGG9/0JuobGg4YghwsZMm1b1kWuWzWPbc//5l0Ol390XlJ2fp6vV78fr+7bDCF9bYFDi/UYj5/+b69e+nu6UHTNE4/4wxOP+MMjjrqKKSUJJJJ1wMoJdXpkQ8WiqJw0kkn8brXv55QKFR9eFymOqz1+XzVb43LQpuTs9Cmi/rmiy66vKW1lY6ODuqiUXp6eigaBiefcgpnnnkmZ519Nscffzwrli+noaEBn89XWWspv0Y+jWfyZC4PBctP/bq6OtauXcvr//Efeeell9LU1DTnN2QyFtqcnIU2XcTZZ5wh06VJdzm06BXnnstl//qv6B4P27ZuZePGjXR2dpLLZvH7/Rx73HE0NDSQz+fJZrOjX5lMZc1LSunuXTKMyjAPKVHLi6i6js/nwx8IuBEG4TDhSIRoqeJGfX090WjUDWcKBqflBaPGcfJkLLQ5OQttuoh3XHKJVIRgydKlrFm7lrXr1tGxeDEPPvggf7rxRrp7esiXtk5IKfF6vbzpoot493vfC1KSTqfZ19nJzh076OrqIhGPY1oWihC0tLRw1FFHcezxxxMOhw8I+3EcB9M0yeVyrsUsFgkGArS1t1NXV4emaQfM++b6hkzGQpuTs9Cmy/8H+IcWM1jxoXUAAAAASUVORK5CYII=;" parent="1" vertex="1">
          <mxGeometry x="316" y="688.85" width="50" height="57.21" as="geometry" />
        </mxCell>
        <mxCell id="kOmin4emKqyUBwTHQekN-28" value="" style="endArrow=classic;html=1;rounded=0;entryX=0.5;entryY=0;entryDx=0;entryDy=0;" parent="1" source="kOmin4emKqyUBwTHQekN-8" target="kOmin4emKqyUBwTHQekN-27" edge="1">
          <mxGeometry width="50" height="50" relative="1" as="geometry">
            <mxPoint x="390" y="540" as="sourcePoint" />
            <mxPoint x="440" y="490" as="targetPoint" />
          </mxGeometry>
        </mxCell>
        <mxCell id="kOmin4emKqyUBwTHQekN-29" value="&lt;b&gt;&lt;u&gt;&lt;font style=&quot;font-size: 18px;&quot;&gt;AI agents getting data locally and passing RAG results to a local LLM as a brain&lt;/font&gt;&lt;/u&gt;&lt;/b&gt;&lt;div&gt;&lt;br&gt;&lt;/div&gt;" style="text;html=1;align=center;verticalAlign=middle;whiteSpace=wrap;rounded=0;" parent="1" vertex="1">
          <mxGeometry x="-26" y="66" width="760" height="50" as="geometry" />
        </mxCell>
        <UserObject label="Suported LLMs" link="https://github.com/ollama/ollama/blob/main/README.md#model-library" id="kOmin4emKqyUBwTHQekN-30">
          <mxCell style="text;html=1;strokeColor=none;fillColor=none;whiteSpace=wrap;align=center;verticalAlign=middle;fontColor=#0000EE;fontStyle=4;" parent="1" vertex="1">
            <mxGeometry x="524" y="410" width="60" height="40" as="geometry" />
          </mxCell>
        </UserObject>
        <mxCell id="kOmin4emKqyUBwTHQekN-31" value="" style="points=[];aspect=fixed;html=1;align=center;shadow=0;dashed=0;fillColor=#FF6A00;strokeColor=none;shape=mxgraph.alibaba_cloud.mps-ai;" parent="1" vertex="1">
          <mxGeometry x="526" y="353.5" width="52.2" height="52.5" as="geometry" />
        </mxCell>
        <mxCell id="Yr9fS48dj_fuA6_vqeHJ-2" value="Result" style="shape=mxgraph.signs.travel.present;html=1;pointerEvents=1;fillColor=#000000;strokeColor=none;verticalLabelPosition=bottom;verticalAlign=top;align=center;" vertex="1" parent="1">
          <mxGeometry x="627" y="358.5" width="50" height="46.5" as="geometry" />
        </mxCell>
        <mxCell id="Yr9fS48dj_fuA6_vqeHJ-3" value="" style="endArrow=classic;html=1;rounded=0;entryX=0;entryY=0.5;entryDx=0;entryDy=0;entryPerimeter=0;exitX=0.996;exitY=0.543;exitDx=0;exitDy=0;exitPerimeter=0;" edge="1" parent="1" source="kOmin4emKqyUBwTHQekN-31" target="Yr9fS48dj_fuA6_vqeHJ-2">
          <mxGeometry width="50" height="50" relative="1" as="geometry">
            <mxPoint x="380" y="540" as="sourcePoint" />
            <mxPoint x="320" y="540" as="targetPoint" />
          </mxGeometry>
        </mxCell>
        <mxCell id="Yr9fS48dj_fuA6_vqeHJ-5" value="Internet&lt;div&gt;WWW&lt;/div&gt;" style="image;aspect=fixed;perimeter=ellipsePerimeter;html=1;align=center;shadow=0;dashed=0;spacingTop=3;image=img/lib/active_directory/internet_globe.svg;" vertex="1" parent="1">
          <mxGeometry x="350" y="551" width="50" height="50" as="geometry" />
        </mxCell>
        <mxCell id="Yr9fS48dj_fuA6_vqeHJ-6" value="" style="endArrow=classic;html=1;rounded=0;entryX=0.5;entryY=0;entryDx=0;entryDy=0;exitX=0.5;exitY=1;exitDx=0;exitDy=0;" edge="1" parent="1" source="kOmin4emKqyUBwTHQekN-17" target="Yr9fS48dj_fuA6_vqeHJ-5">
          <mxGeometry width="50" height="50" relative="1" as="geometry">
            <mxPoint x="301" y="578" as="sourcePoint" />
            <mxPoint x="351" y="528" as="targetPoint" />
          </mxGeometry>
        </mxCell>
      </root>
    </mxGraphModel>
  </diagram>
</mxfile>
